<?xml version="1.0" encoding="UTF-8"?>
<svg width="1785px" height="342px" viewBox="0 0 1785 342" version="1.1" xmlns="http://www.w3.org/2000/svg" xmlns:xlink="http://www.w3.org/1999/xlink">
    <!-- Generator: Sketch 62 (91390) - https://sketch.com -->
    <title>fact1 copy</title>
    <desc>Created with Sketch.</desc>
    <g id="fact1-copy" stroke="none" stroke-width="1" fill="none" fill-rule="evenodd">
        <rect fill="#FFFFFF" x="0" y="0" width="1785" height="342"></rect>
        <rect id="Rectangle" x="0" y="0" width="1785" height="342"></rect>
        <g id="1-in-3-US-adults-has" transform="translate(502.448000, 73.632000)" fill-rule="nonzero">
            <path d="M19.328,50.368 L19.328,5.568 L-1.70530257e-13,5.568 L-1.70530257e-13,13.888 L8.96,13.888 L8.96,50.368 L19.328,50.368 Z M52.352,11.136 C54.1866667,11.136 55.68,10.592 56.832,9.504 C57.984,8.416 58.56,7.04 58.56,5.376 C58.56,3.84 57.984,2.56 56.832,1.536 C55.68,0.512 54.1866667,0 52.352,0 C50.5173333,0 49.024,0.533333333 47.872,1.6 C46.72,2.66666667 46.144,3.98933333 46.144,5.568 C46.144,7.14666667 46.72,8.46933333 47.872,9.536 C49.024,10.6026667 50.5173333,11.136 52.352,11.136 Z M57.344,50.368 L57.344,15.936 L47.36,15.936 L47.36,50.368 L57.344,50.368 Z M76.608,50.368 L76.608,33.344 C76.608,30.272 77.3546667,27.9573333 78.848,26.4 C80.3413333,24.8426667 82.3466667,24.064 84.864,24.064 C87.1253333,24.064 88.8533333,24.736 90.048,26.08 C91.2426667,27.424 91.84,29.4613333 91.84,32.192 L91.84,32.192 L91.84,50.368 L101.824,50.368 L101.824,30.656 C101.824,25.6213333 100.512,21.824 97.888,19.264 C95.264,16.704 91.8186667,15.424 87.552,15.424 C85.2053333,15.424 83.0506667,15.8186667 81.088,16.608 C79.1253333,17.3973333 77.4826667,18.5173333 76.16,19.968 L76.16,19.968 L76.16,15.936 L66.624,15.936 L66.624,50.368 L76.608,50.368 Z M141.376,51.136 C145.429333,51.136 148.853333,50.4746667 151.648,49.152 C154.442667,47.8293333 156.522667,46.0693333 157.888,43.872 C159.253333,41.6746667 159.936,39.2746667 159.936,36.672 C159.936,33.3013333 158.890667,30.4746667 156.8,28.192 C154.709333,25.9093333 151.701333,24.448 147.776,23.808 L147.776,23.808 L157.888,12.288 L157.888,5.568 L126.528,5.568 L126.528,13.888 L145.6,13.888 L136.384,24.32 L136.384,31.168 L141.12,31.168 C146.709333,31.168 149.504,33.0026667 149.504,36.672 C149.504,38.5066667 148.757333,39.9253333 147.264,40.928 C145.770667,41.9306667 143.722667,42.432 141.12,42.432 C138.773333,42.432 136.48,42.08 134.24,41.376 C132,40.672 130.026667,39.68 128.32,38.4 L128.32,38.4 L124.288,46.336 C126.421333,47.872 129.013333,49.056 132.064,49.888 C135.114667,50.72 138.218667,51.136 141.376,51.136 Z" id="1in3" fill="#185799"></path>
            <path d="M205.568,51.136 C211.968,51.136 216.949333,49.3653333 220.512,45.824 C224.074667,42.2826667 225.856,37.2266667 225.856,30.656 L225.856,30.656 L225.856,5.568 L215.616,5.568 L215.616,30.272 C215.616,34.4106667 214.762667,37.4506667 213.056,39.392 C211.349333,41.3333333 208.874667,42.304 205.632,42.304 C198.976,42.304 195.648,38.2933333 195.648,30.272 L195.648,30.272 L195.648,5.568 L185.28,5.568 L185.28,30.656 C185.28,37.2266667 187.061333,42.2826667 190.624,45.824 C194.186667,49.3653333 199.168,51.136 205.568,51.136 Z M250.816,51.136 C254.912,51.136 258.389333,50.5173333 261.248,49.28 C264.106667,48.0426667 266.250667,46.368 267.68,44.256 C269.109333,42.144 269.824,39.808 269.824,37.248 C269.824,34.2613333 269.045333,31.8933333 267.488,30.144 C265.930667,28.3946667 264.064,27.1146667 261.888,26.304 C259.712,25.4933333 256.917333,24.6826667 253.504,23.872 C250.218667,23.1466667 247.776,22.4106667 246.176,21.664 C244.576,20.9173333 243.776,19.776 243.776,18.24 C243.776,16.704 244.469333,15.4666667 245.856,14.528 C247.242667,13.5893333 249.386667,13.12 252.288,13.12 C256.426667,13.12 260.565333,14.2933333 264.704,16.64 L264.704,16.64 L267.904,8.768 C265.856,7.488 263.466667,6.50666667 260.736,5.824 C258.005333,5.14133333 255.210667,4.8 252.352,4.8 C248.256,4.8 244.789333,5.41866667 241.952,6.656 C239.114667,7.89333333 236.992,9.568 235.584,11.68 C234.176,13.792 233.472,16.1493333 233.472,18.752 C233.472,21.7386667 234.250667,24.128 235.808,25.92 C237.365333,27.712 239.232,29.0133333 241.408,29.824 C243.584,30.6346667 246.378667,31.4453333 249.792,32.256 C252.010667,32.768 253.770667,33.2373333 255.072,33.664 C256.373333,34.0906667 257.44,34.656 258.272,35.36 C259.104,36.064 259.52,36.9493333 259.52,38.016 C259.52,39.4666667 258.816,40.6293333 257.408,41.504 C256,42.3786667 253.824,42.816 250.88,42.816 C248.234667,42.816 245.589333,42.3893333 242.944,41.536 C240.298667,40.6826667 238.016,39.552 236.096,38.144 L236.096,38.144 L232.576,45.952 C234.581333,47.488 237.237333,48.736 240.544,49.696 C243.850667,50.656 247.274667,51.136 250.816,51.136 Z M304.96,50.88 C310.08,50.88 313.578667,49.28 315.456,46.08 L315.456,46.08 L315.456,50.368 L324.8,50.368 L324.8,30.72 C324.8,25.6 323.370667,21.7706667 320.512,19.232 C317.653333,16.6933333 313.557333,15.424 308.224,15.424 C305.450667,15.424 302.752,15.7866667 300.128,16.512 C297.504,17.2373333 295.253333,18.2613333 293.376,19.584 L293.376,19.584 L296.96,26.56 C298.197333,25.5786667 299.701333,24.8 301.472,24.224 C303.242667,23.648 305.045333,23.36 306.88,23.36 C309.525333,23.36 311.509333,23.9466667 312.832,25.12 C314.154667,26.2933333 314.816,27.968 314.816,30.144 L314.816,30.144 L306.88,30.144 C301.845333,30.144 298.122667,31.0613333 295.712,32.896 C293.301333,34.7306667 292.096,37.248 292.096,40.448 C292.096,42.4533333 292.608,44.2453333 293.632,45.824 C294.656,47.4026667 296.138667,48.64 298.08,49.536 C300.021333,50.432 302.314667,50.88 304.96,50.88 Z M307.456,44.16 C305.706667,44.16 304.330667,43.7866667 303.328,43.04 C302.325333,42.2933333 301.824,41.28 301.824,40 C301.824,37.312 303.872,35.968 307.968,35.968 L307.968,35.968 L314.816,35.968 L314.816,39.488 C314.261333,41.024 313.322667,42.1866667 312,42.976 C310.677333,43.7653333 309.162667,44.16 307.456,44.16 Z M348.608,50.88 C353.301333,50.88 356.885333,49.3866667 359.36,46.4 L359.36,46.4 L359.36,50.368 L368.896,50.368 L368.896,2.88 L358.912,2.88 L358.912,19.584 C356.437333,16.8106667 353.002667,15.424 348.608,15.424 C345.365333,15.424 342.432,16.1493333 339.808,17.6 C337.184,19.0506667 335.125333,21.12 333.632,23.808 C332.138667,26.496 331.392,29.6106667 331.392,33.152 C331.392,36.6933333 332.138667,39.808 333.632,42.496 C335.125333,45.184 337.184,47.2533333 339.808,48.704 C342.432,50.1546667 345.365333,50.88 348.608,50.88 Z M350.336,42.688 C347.776,42.688 345.664,41.824 344,40.096 C342.336,38.368 341.504,36.0533333 341.504,33.152 C341.504,30.2506667 342.336,27.936 344,26.208 C345.664,24.48 347.776,23.616 350.336,23.616 C352.853333,23.616 354.944,24.48 356.608,26.208 C358.272,27.936 359.104,30.2506667 359.104,33.152 C359.104,36.0533333 358.272,38.368 356.608,40.096 C354.944,41.824 352.853333,42.688 350.336,42.688 Z M392.64,50.88 C394.773333,50.88 396.757333,50.4853333 398.592,49.696 C400.426667,48.9066667 402.005333,47.7653333 403.328,46.272 L403.328,46.272 L403.328,50.368 L412.8,50.368 L412.8,15.936 L402.816,15.936 L402.816,32.96 C402.816,36.032 402.090667,38.3466667 400.64,39.904 C399.189333,41.4613333 397.269333,42.24 394.88,42.24 C390.229333,42.24 387.904,39.4666667 387.904,33.92 L387.904,33.92 L387.904,15.936 L377.92,15.936 L377.92,35.392 C377.92,40.512 379.242667,44.3733333 381.888,46.976 C384.533333,49.5786667 388.117333,50.88 392.64,50.88 Z M432.064,50.368 L432.064,2.88 L422.08,2.88 L422.08,50.368 L432.064,50.368 Z M455.424,50.88 C457.002667,50.88 458.506667,50.6986667 459.936,50.336 C461.365333,49.9733333 462.570667,49.4293333 463.552,48.704 L463.552,48.704 L460.864,41.664 C459.754667,42.5173333 458.410667,42.944 456.832,42.944 C455.466667,42.944 454.410667,42.5493333 453.664,41.76 C452.917333,40.9706667 452.544,39.8506667 452.544,38.4 L452.544,38.4 L452.544,24.384 L461.12,24.384 L461.12,16.704 L452.544,16.704 L452.544,8.32 L442.56,8.32 L442.56,16.704 L437.248,16.704 L437.248,24.384 L442.56,24.384 L442.56,38.528 C442.56,42.5813333 443.68,45.6533333 445.92,47.744 C448.16,49.8346667 451.328,50.88 455.424,50.88 Z M480.768,50.88 C484.138667,50.88 487.050667,50.4213333 489.504,49.504 C491.957333,48.5866667 493.824,47.296 495.104,45.632 C496.384,43.968 497.024,42.0693333 497.024,39.936 C497.024,37.4186667 496.362667,35.456 495.04,34.048 C493.717333,32.64 492.16,31.6693333 490.368,31.136 C488.576,30.6026667 486.272,30.1013333 483.456,29.632 C480.938667,29.248 479.104,28.8426667 477.952,28.416 C476.8,27.9893333 476.224,27.2426667 476.224,26.176 C476.224,25.2373333 476.757333,24.4693333 477.824,23.872 C478.890667,23.2746667 480.490667,22.976 482.624,22.976 C486.208,22.976 489.514667,23.8293333 492.544,25.536 L492.544,25.536 L495.872,18.432 C494.293333,17.4933333 492.298667,16.7573333 489.888,16.224 C487.477333,15.6906667 485.056,15.424 482.624,15.424 C479.338667,15.424 476.490667,15.8933333 474.08,16.832 C471.669333,17.7706667 469.834667,19.0826667 468.576,20.768 C467.317333,22.4533333 466.688,24.384 466.688,26.56 C466.688,29.1626667 467.36,31.168 468.704,32.576 C470.048,33.984 471.637333,34.9653333 473.472,35.52 C475.306667,36.0746667 477.632,36.5653333 480.448,36.992 C482.837333,37.2906667 484.608,37.6533333 485.76,38.08 C486.912,38.5066667 487.488,39.2106667 487.488,40.192 C487.488,42.2826667 485.376,43.328 481.152,43.328 C479.061333,43.328 476.928,43.0186667 474.752,42.4 C472.576,41.7813333 470.72,40.9813333 469.184,40 L469.184,40 L465.856,47.168 C467.477333,48.2346667 469.653333,49.12 472.384,49.824 C475.114667,50.528 477.909333,50.88 480.768,50.88 Z M531.264,50.368 L531.264,33.344 C531.264,30.272 532.010667,27.9573333 533.504,26.4 C534.997333,24.8426667 537.002667,24.064 539.52,24.064 C541.781333,24.064 543.509333,24.736 544.704,26.08 C545.898667,27.424 546.496,29.4613333 546.496,32.192 L546.496,32.192 L546.496,50.368 L556.48,50.368 L556.48,30.656 C556.48,25.6213333 555.168,21.824 552.544,19.264 C549.92,16.704 546.474667,15.424 542.208,15.424 C539.989333,15.424 537.941333,15.776 536.064,16.48 C534.186667,17.184 532.586667,18.1973333 531.264,19.52 L531.264,19.52 L531.264,2.88 L521.28,2.88 L521.28,50.368 L531.264,50.368 Z M576.128,50.88 C581.248,50.88 584.746667,49.28 586.624,46.08 L586.624,46.08 L586.624,50.368 L595.968,50.368 L595.968,30.72 C595.968,25.6 594.538667,21.7706667 591.68,19.232 C588.821333,16.6933333 584.725333,15.424 579.392,15.424 C576.618667,15.424 573.92,15.7866667 571.296,16.512 C568.672,17.2373333 566.421333,18.2613333 564.544,19.584 L564.544,19.584 L568.128,26.56 C569.365333,25.5786667 570.869333,24.8 572.64,24.224 C574.410667,23.648 576.213333,23.36 578.048,23.36 C580.693333,23.36 582.677333,23.9466667 584,25.12 C585.322667,26.2933333 585.984,27.968 585.984,30.144 L585.984,30.144 L578.048,30.144 C573.013333,30.144 569.290667,31.0613333 566.88,32.896 C564.469333,34.7306667 563.264,37.248 563.264,40.448 C563.264,42.4533333 563.776,44.2453333 564.8,45.824 C565.824,47.4026667 567.306667,48.64 569.248,49.536 C571.189333,50.432 573.482667,50.88 576.128,50.88 Z M578.624,44.16 C576.874667,44.16 575.498667,43.7866667 574.496,43.04 C573.493333,42.2933333 572.992,41.28 572.992,40 C572.992,37.312 575.04,35.968 579.136,35.968 L579.136,35.968 L585.984,35.968 L585.984,39.488 C585.429333,41.024 584.490667,42.1866667 583.168,42.976 C581.845333,43.7653333 580.330667,44.16 578.624,44.16 Z M616.576,50.88 C619.946667,50.88 622.858667,50.4213333 625.312,49.504 C627.765333,48.5866667 629.632,47.296 630.912,45.632 C632.192,43.968 632.832,42.0693333 632.832,39.936 C632.832,37.4186667 632.170667,35.456 630.848,34.048 C629.525333,32.64 627.968,31.6693333 626.176,31.136 C624.384,30.6026667 622.08,30.1013333 619.264,29.632 C616.746667,29.248 614.912,28.8426667 613.76,28.416 C612.608,27.9893333 612.032,27.2426667 612.032,26.176 C612.032,25.2373333 612.565333,24.4693333 613.632,23.872 C614.698667,23.2746667 616.298667,22.976 618.432,22.976 C622.016,22.976 625.322667,23.8293333 628.352,25.536 L628.352,25.536 L631.68,18.432 C630.101333,17.4933333 628.106667,16.7573333 625.696,16.224 C623.285333,15.6906667 620.864,15.424 618.432,15.424 C615.146667,15.424 612.298667,15.8933333 609.888,16.832 C607.477333,17.7706667 605.642667,19.0826667 604.384,20.768 C603.125333,22.4533333 602.496,24.384 602.496,26.56 C602.496,29.1626667 603.168,31.168 604.512,32.576 C605.856,33.984 607.445333,34.9653333 609.28,35.52 C611.114667,36.0746667 613.44,36.5653333 616.256,36.992 C618.645333,37.2906667 620.416,37.6533333 621.568,38.08 C622.72,38.5066667 623.296,39.2106667 623.296,40.192 C623.296,42.2826667 621.184,43.328 616.96,43.328 C614.869333,43.328 612.736,43.0186667 610.56,42.4 C608.384,41.7813333 606.528,40.9813333 604.992,40 L604.992,40 L601.664,47.168 C603.285333,48.2346667 605.461333,49.12 608.192,49.824 C610.922667,50.528 613.717333,50.88 616.576,50.88 Z M667.072,62.784 L667.072,46.72 C669.589333,49.4933333 673.045333,50.88 677.44,50.88 C680.64,50.88 683.552,50.144 686.176,48.672 C688.8,47.2 690.858667,45.1306667 692.352,42.464 C693.845333,39.7973333 694.592,36.6933333 694.592,33.152 C694.592,29.6106667 693.845333,26.5066667 692.352,23.84 C690.858667,21.1733333 688.8,19.104 686.176,17.632 C683.552,16.16 680.64,15.424 677.44,15.424 C672.704,15.424 669.098667,16.9173333 666.624,19.904 L666.624,19.904 L666.624,15.936 L657.088,15.936 L657.088,62.784 L667.072,62.784 Z M675.712,42.688 C673.152,42.688 671.050667,41.824 669.408,40.096 C667.765333,38.368 666.944,36.0533333 666.944,33.152 C666.944,30.2506667 667.765333,27.936 669.408,26.208 C671.050667,24.48 673.152,23.616 675.712,23.616 C678.272,23.616 680.373333,24.48 682.016,26.208 C683.658667,27.936 684.48,30.2506667 684.48,33.152 C684.48,36.0533333 683.658667,38.368 682.016,40.096 C680.373333,41.824 678.272,42.688 675.712,42.688 Z M711.232,50.368 L711.232,34.112 C711.232,30.912 712.042667,28.512 713.664,26.912 C715.285333,25.312 717.525333,24.512 720.384,24.512 C720.768,24.512 721.514667,24.5546667 722.624,24.64 L722.624,24.64 L722.624,15.424 C719.978667,15.424 717.642667,15.8506667 715.616,16.704 C713.589333,17.5573333 711.978667,18.816 710.784,20.48 L710.784,20.48 L710.784,15.936 L701.248,15.936 L701.248,50.368 L711.232,50.368 Z M745.92,50.88 C752.149333,50.88 756.885333,49.024 760.128,45.312 L760.128,45.312 L754.816,39.552 C753.621333,40.704 752.330667,41.5466667 750.944,42.08 C749.557333,42.6133333 747.968,42.88 746.176,42.88 C743.573333,42.88 741.397333,42.2613333 739.648,41.024 C737.898667,39.7866667 736.789333,38.1013333 736.32,35.968 L736.32,35.968 L762.368,35.968 C762.496,34.304 762.56,33.408 762.56,33.28 C762.56,29.696 761.781333,26.5493333 760.224,23.84 C758.666667,21.1306667 756.522667,19.0506667 753.792,17.6 C751.061333,16.1493333 748.010667,15.424 744.64,15.424 C741.184,15.424 738.058667,16.1813333 735.264,17.696 C732.469333,19.2106667 730.272,21.3226667 728.672,24.032 C727.072,26.7413333 726.272,29.7813333 726.272,33.152 C726.272,36.5653333 727.082667,39.616 728.704,42.304 C730.325333,44.992 732.629333,47.0933333 735.616,48.608 C738.602667,50.1226667 742.037333,50.88 745.92,50.88 Z M753.152,30.144 L736.192,30.144 C736.533333,27.9253333 737.472,26.176 739.008,24.896 C740.544,23.616 742.442667,22.976 744.704,22.976 C746.922667,22.976 748.8,23.6266667 750.336,24.928 C751.872,26.2293333 752.810667,27.968 753.152,30.144 L753.152,30.144 Z M784,50.88 C788.693333,50.88 792.277333,49.3866667 794.752,46.4 L794.752,46.4 L794.752,50.368 L804.288,50.368 L804.288,2.88 L794.304,2.88 L794.304,19.584 C791.829333,16.8106667 788.394667,15.424 784,15.424 C780.757333,15.424 777.824,16.1493333 775.2,17.6 C772.576,19.0506667 770.517333,21.12 769.024,23.808 C767.530667,26.496 766.784,29.6106667 766.784,33.152 C766.784,36.6933333 767.530667,39.808 769.024,42.496 C770.517333,45.184 772.576,47.2533333 775.2,48.704 C777.824,50.1546667 780.757333,50.88 784,50.88 Z M785.728,42.688 C783.168,42.688 781.056,41.824 779.392,40.096 C777.728,38.368 776.896,36.0533333 776.896,33.152 C776.896,30.2506667 777.728,27.936 779.392,26.208 C781.056,24.48 783.168,23.616 785.728,23.616 C788.245333,23.616 790.336,24.48 792,26.208 C793.664,27.936 794.496,30.2506667 794.496,33.152 C794.496,36.0533333 793.664,38.368 792,40.096 C790.336,41.824 788.245333,42.688 785.728,42.688 Z M818.496,11.136 C820.330667,11.136 821.824,10.592 822.976,9.504 C824.128,8.416 824.704,7.04 824.704,5.376 C824.704,3.84 824.128,2.56 822.976,1.536 C821.824,0.512 820.330667,0 818.496,0 C816.661333,0 815.168,0.533333333 814.016,1.6 C812.864,2.66666667 812.288,3.98933333 812.288,5.568 C812.288,7.14666667 812.864,8.46933333 814.016,9.536 C815.168,10.6026667 816.661333,11.136 818.496,11.136 Z M823.488,50.368 L823.488,15.936 L813.504,15.936 L813.504,50.368 L823.488,50.368 Z M843.392,50.88 C848.512,50.88 852.010667,49.28 853.888,46.08 L853.888,46.08 L853.888,50.368 L863.232,50.368 L863.232,30.72 C863.232,25.6 861.802667,21.7706667 858.944,19.232 C856.085333,16.6933333 851.989333,15.424 846.656,15.424 C843.882667,15.424 841.184,15.7866667 838.56,16.512 C835.936,17.2373333 833.685333,18.2613333 831.808,19.584 L831.808,19.584 L835.392,26.56 C836.629333,25.5786667 838.133333,24.8 839.904,24.224 C841.674667,23.648 843.477333,23.36 845.312,23.36 C847.957333,23.36 849.941333,23.9466667 851.264,25.12 C852.586667,26.2933333 853.248,27.968 853.248,30.144 L853.248,30.144 L845.312,30.144 C840.277333,30.144 836.554667,31.0613333 834.144,32.896 C831.733333,34.7306667 830.528,37.248 830.528,40.448 C830.528,42.4533333 831.04,44.2453333 832.064,45.824 C833.088,47.4026667 834.570667,48.64 836.512,49.536 C838.453333,50.432 840.746667,50.88 843.392,50.88 Z M845.888,44.16 C844.138667,44.16 842.762667,43.7866667 841.76,43.04 C840.757333,42.2933333 840.256,41.28 840.256,40 C840.256,37.312 842.304,35.968 846.4,35.968 L846.4,35.968 L853.248,35.968 L853.248,39.488 C852.693333,41.024 851.754667,42.1866667 850.432,42.976 C849.109333,43.7653333 847.594667,44.16 845.888,44.16 Z M892.608,50.88 C895.808,50.88 898.72,50.144 901.344,48.672 C903.968,47.2 906.026667,45.1306667 907.52,42.464 C909.013333,39.7973333 909.76,36.6933333 909.76,33.152 C909.76,29.6106667 909.013333,26.5066667 907.52,23.84 C906.026667,21.1733333 903.968,19.104 901.344,17.632 C898.72,16.16 895.808,15.424 892.608,15.424 C888.213333,15.424 884.757333,16.8106667 882.24,19.584 L882.24,19.584 L882.24,2.88 L872.256,2.88 L872.256,50.368 L881.792,50.368 L881.792,46.4 C884.266667,49.3866667 887.872,50.88 892.608,50.88 Z M890.88,42.688 C888.32,42.688 886.218667,41.824 884.576,40.096 C882.933333,38.368 882.112,36.0533333 882.112,33.152 C882.112,30.2506667 882.933333,27.936 884.576,26.208 C886.218667,24.48 888.32,23.616 890.88,23.616 C893.44,23.616 895.541333,24.48 897.184,26.208 C898.826667,27.936 899.648,30.2506667 899.648,33.152 C899.648,36.0533333 898.826667,38.368 897.184,40.096 C895.541333,41.824 893.44,42.688 890.88,42.688 Z M933.504,50.88 C939.733333,50.88 944.469333,49.024 947.712,45.312 L947.712,45.312 L942.4,39.552 C941.205333,40.704 939.914667,41.5466667 938.528,42.08 C937.141333,42.6133333 935.552,42.88 933.76,42.88 C931.157333,42.88 928.981333,42.2613333 927.232,41.024 C925.482667,39.7866667 924.373333,38.1013333 923.904,35.968 L923.904,35.968 L949.952,35.968 C950.08,34.304 950.144,33.408 950.144,33.28 C950.144,29.696 949.365333,26.5493333 947.808,23.84 C946.250667,21.1306667 944.106667,19.0506667 941.376,17.6 C938.645333,16.1493333 935.594667,15.424 932.224,15.424 C928.768,15.424 925.642667,16.1813333 922.848,17.696 C920.053333,19.2106667 917.856,21.3226667 916.256,24.032 C914.656,26.7413333 913.856,29.7813333 913.856,33.152 C913.856,36.5653333 914.666667,39.616 916.288,42.304 C917.909333,44.992 920.213333,47.0933333 923.2,48.608 C926.186667,50.1226667 929.621333,50.88 933.504,50.88 Z M940.736,30.144 L923.776,30.144 C924.117333,27.9253333 925.056,26.176 926.592,24.896 C928.128,23.616 930.026667,22.976 932.288,22.976 C934.506667,22.976 936.384,23.6266667 937.92,24.928 C939.456,26.2293333 940.394667,27.968 940.736,30.144 L940.736,30.144 Z M970.88,50.88 C972.458667,50.88 973.962667,50.6986667 975.392,50.336 C976.821333,49.9733333 978.026667,49.4293333 979.008,48.704 L979.008,48.704 L976.32,41.664 C975.210667,42.5173333 973.866667,42.944 972.288,42.944 C970.922667,42.944 969.866667,42.5493333 969.12,41.76 C968.373333,40.9706667 968,39.8506667 968,38.4 L968,38.4 L968,24.384 L976.576,24.384 L976.576,16.704 L968,16.704 L968,8.32 L958.016,8.32 L958.016,16.704 L952.704,16.704 L952.704,24.384 L958.016,24.384 L958.016,38.528 C958.016,42.5813333 959.136,45.6533333 961.376,47.744 C963.616,49.8346667 966.784,50.88 970.88,50.88 Z M1001.728,50.88 C1007.95733,50.88 1012.69333,49.024 1015.936,45.312 L1015.936,45.312 L1010.624,39.552 C1009.42933,40.704 1008.13867,41.5466667 1006.752,42.08 C1005.36533,42.6133333 1003.776,42.88 1001.984,42.88 C999.381333,42.88 997.205333,42.2613333 995.456,41.024 C993.706667,39.7866667 992.597333,38.1013333 992.128,35.968 L992.128,35.968 L1018.176,35.968 C1018.304,34.304 1018.368,33.408 1018.368,33.28 C1018.368,29.696 1017.58933,26.5493333 1016.032,23.84 C1014.47467,21.1306667 1012.33067,19.0506667 1009.6,17.6 C1006.86933,16.1493333 1003.81867,15.424 1000.448,15.424 C996.992,15.424 993.866667,16.1813333 991.072,17.696 C988.277333,19.2106667 986.08,21.3226667 984.48,24.032 C982.88,26.7413333 982.08,29.7813333 982.08,33.152 C982.08,36.5653333 982.890667,39.616 984.512,42.304 C986.133333,44.992 988.437333,47.0933333 991.424,48.608 C994.410667,50.1226667 997.845333,50.88 1001.728,50.88 Z M1008.96,30.144 L992,30.144 C992.341333,27.9253333 993.28,26.176 994.816,24.896 C996.352,23.616 998.250667,22.976 1000.512,22.976 C1002.73067,22.976 1004.608,23.6266667 1006.144,24.928 C1007.68,26.2293333 1008.61867,27.968 1008.96,30.144 L1008.96,30.144 Z M1036.608,50.88 C1039.97867,50.88 1042.89067,50.4213333 1045.344,49.504 C1047.79733,48.5866667 1049.664,47.296 1050.944,45.632 C1052.224,43.968 1052.864,42.0693333 1052.864,39.936 C1052.864,37.4186667 1052.20267,35.456 1050.88,34.048 C1049.55733,32.64 1048,31.6693333 1046.208,31.136 C1044.416,30.6026667 1042.112,30.1013333 1039.296,29.632 C1036.77867,29.248 1034.944,28.8426667 1033.792,28.416 C1032.64,27.9893333 1032.064,27.2426667 1032.064,26.176 C1032.064,25.2373333 1032.59733,24.4693333 1033.664,23.872 C1034.73067,23.2746667 1036.33067,22.976 1038.464,22.976 C1042.048,22.976 1045.35467,23.8293333 1048.384,25.536 L1048.384,25.536 L1051.712,18.432 C1050.13333,17.4933333 1048.13867,16.7573333 1045.728,16.224 C1043.31733,15.6906667 1040.896,15.424 1038.464,15.424 C1035.17867,15.424 1032.33067,15.8933333 1029.92,16.832 C1027.50933,17.7706667 1025.67467,19.0826667 1024.416,20.768 C1023.15733,22.4533333 1022.528,24.384 1022.528,26.56 C1022.528,29.1626667 1023.2,31.168 1024.544,32.576 C1025.888,33.984 1027.47733,34.9653333 1029.312,35.52 C1031.14667,36.0746667 1033.472,36.5653333 1036.288,36.992 C1038.67733,37.2906667 1040.448,37.6533333 1041.6,38.08 C1042.752,38.5066667 1043.328,39.2106667 1043.328,40.192 C1043.328,42.2826667 1041.216,43.328 1036.992,43.328 C1034.90133,43.328 1032.768,43.0186667 1030.592,42.4 C1028.416,41.7813333 1026.56,40.9813333 1025.024,40 L1025.024,40 L1021.696,47.168 C1023.31733,48.2346667 1025.49333,49.12 1028.224,49.824 C1030.95467,50.528 1033.74933,50.88 1036.608,50.88 Z M1087.744,50.88 C1092.864,50.88 1096.36267,49.28 1098.24,46.08 L1098.24,46.08 L1098.24,50.368 L1107.584,50.368 L1107.584,30.72 C1107.584,25.6 1106.15467,21.7706667 1103.296,19.232 C1100.43733,16.6933333 1096.34133,15.424 1091.008,15.424 C1088.23467,15.424 1085.536,15.7866667 1082.912,16.512 C1080.288,17.2373333 1078.03733,18.2613333 1076.16,19.584 L1076.16,19.584 L1079.744,26.56 C1080.98133,25.5786667 1082.48533,24.8 1084.256,24.224 C1086.02667,23.648 1087.82933,23.36 1089.664,23.36 C1092.30933,23.36 1094.29333,23.9466667 1095.616,25.12 C1096.93867,26.2933333 1097.6,27.968 1097.6,30.144 L1097.6,30.144 L1089.664,30.144 C1084.62933,30.144 1080.90667,31.0613333 1078.496,32.896 C1076.08533,34.7306667 1074.88,37.248 1074.88,40.448 C1074.88,42.4533333 1075.392,44.2453333 1076.416,45.824 C1077.44,47.4026667 1078.92267,48.64 1080.864,49.536 C1082.80533,50.432 1085.09867,50.88 1087.744,50.88 Z M1090.24,44.16 C1088.49067,44.16 1087.11467,43.7866667 1086.112,43.04 C1085.10933,42.2933333 1084.608,41.28 1084.608,40 C1084.608,37.312 1086.656,35.968 1090.752,35.968 L1090.752,35.968 L1097.6,35.968 L1097.6,39.488 C1097.04533,41.024 1096.10667,42.1866667 1094.784,42.976 C1093.46133,43.7653333 1091.94667,44.16 1090.24,44.16 Z M1126.592,50.368 L1126.592,33.344 C1126.592,30.272 1127.33867,27.9573333 1128.832,26.4 C1130.32533,24.8426667 1132.33067,24.064 1134.848,24.064 C1137.10933,24.064 1138.83733,24.736 1140.032,26.08 C1141.22667,27.424 1141.824,29.4613333 1141.824,32.192 L1141.824,32.192 L1141.824,50.368 L1151.808,50.368 L1151.808,30.656 C1151.808,25.6213333 1150.496,21.824 1147.872,19.264 C1145.248,16.704 1141.80267,15.424 1137.536,15.424 C1135.18933,15.424 1133.03467,15.8186667 1131.072,16.608 C1129.10933,17.3973333 1127.46667,18.5173333 1126.144,19.968 L1126.144,19.968 L1126.144,15.936 L1116.608,15.936 L1116.608,50.368 L1126.592,50.368 Z M1175.616,50.88 C1180.30933,50.88 1183.89333,49.3866667 1186.368,46.4 L1186.368,46.4 L1186.368,50.368 L1195.904,50.368 L1195.904,2.88 L1185.92,2.88 L1185.92,19.584 C1183.44533,16.8106667 1180.01067,15.424 1175.616,15.424 C1172.37333,15.424 1169.44,16.1493333 1166.816,17.6 C1164.192,19.0506667 1162.13333,21.12 1160.64,23.808 C1159.14667,26.496 1158.4,29.6106667 1158.4,33.152 C1158.4,36.6933333 1159.14667,39.808 1160.64,42.496 C1162.13333,45.184 1164.192,47.2533333 1166.816,48.704 C1169.44,50.1546667 1172.37333,50.88 1175.616,50.88 Z M1177.344,42.688 C1174.784,42.688 1172.672,41.824 1171.008,40.096 C1169.344,38.368 1168.512,36.0533333 1168.512,33.152 C1168.512,30.2506667 1169.344,27.936 1171.008,26.208 C1172.672,24.48 1174.784,23.616 1177.344,23.616 C1179.86133,23.616 1181.952,24.48 1183.616,26.208 C1185.28,27.936 1186.112,30.2506667 1186.112,33.152 C1186.112,36.0533333 1185.28,38.368 1183.616,40.096 C1181.952,41.824 1179.86133,42.688 1177.344,42.688 Z M9.152,89.136 C10.9866667,89.136 12.48,88.592 13.632,87.504 C14.784,86.416 15.36,85.04 15.36,83.376 C15.36,81.84 14.784,80.56 13.632,79.536 C12.48,78.512 10.9866667,78 9.152,78 C7.31733333,78 5.824,78.5333333 4.672,79.6 C3.52,80.6666667 2.944,81.9893333 2.944,83.568 C2.944,85.1466667 3.52,86.4693333 4.672,87.536 C5.824,88.6026667 7.31733333,89.136 9.152,89.136 Z M14.144,128.368 L14.144,93.936 L4.16,93.936 L4.16,128.368 L14.144,128.368 Z M35.008,128.88 C38.3786667,128.88 41.2906667,128.421333 43.744,127.504 C46.1973333,126.586667 48.064,125.296 49.344,123.632 C50.624,121.968 51.264,120.069333 51.264,117.936 C51.264,115.418667 50.6026667,113.456 49.28,112.048 C47.9573333,110.64 46.4,109.669333 44.608,109.136 C42.816,108.602667 40.512,108.101333 37.696,107.632 C35.1786667,107.248 33.344,106.842667 32.192,106.416 C31.04,105.989333 30.464,105.242667 30.464,104.176 C30.464,103.237333 30.9973333,102.469333 32.064,101.872 C33.1306667,101.274667 34.7306667,100.976 36.864,100.976 C40.448,100.976 43.7546667,101.829333 46.784,103.536 L46.784,103.536 L50.112,96.432 C48.5333333,95.4933333 46.5386667,94.7573333 44.128,94.224 C41.7173333,93.6906667 39.296,93.424 36.864,93.424 C33.5786667,93.424 30.7306667,93.8933333 28.32,94.832 C25.9093333,95.7706667 24.0746667,97.0826667 22.816,98.768 C21.5573333,100.453333 20.928,102.384 20.928,104.56 C20.928,107.162667 21.6,109.168 22.944,110.576 C24.288,111.984 25.8773333,112.965333 27.712,113.52 C29.5466667,114.074667 31.872,114.565333 34.688,114.992 C37.0773333,115.290667 38.848,115.653333 40,116.08 C41.152,116.506667 41.728,117.210667 41.728,118.192 C41.728,120.282667 39.616,121.328 35.392,121.328 C33.3013333,121.328 31.168,121.018667 28.992,120.4 C26.816,119.781333 24.96,118.981333 23.424,118 L23.424,118 L20.096,125.168 C21.7173333,126.234667 23.8933333,127.12 26.624,127.824 C29.3546667,128.528 32.1493333,128.88 35.008,128.88 Z M86.144,128.88 C91.264,128.88 94.7626667,127.28 96.64,124.08 L96.64,124.08 L96.64,128.368 L105.984,128.368 L105.984,108.72 C105.984,103.6 104.554667,99.7706667 101.696,97.232 C98.8373333,94.6933333 94.7413333,93.424 89.408,93.424 C86.6346667,93.424 83.936,93.7866667 81.312,94.512 C78.688,95.2373333 76.4373333,96.2613333 74.56,97.584 L74.56,97.584 L78.144,104.56 C79.3813333,103.578667 80.8853333,102.8 82.656,102.224 C84.4266667,101.648 86.2293333,101.36 88.064,101.36 C90.7093333,101.36 92.6933333,101.946667 94.016,103.12 C95.3386667,104.293333 96,105.968 96,108.144 L96,108.144 L88.064,108.144 C83.0293333,108.144 79.3066667,109.061333 76.896,110.896 C74.4853333,112.730667 73.28,115.248 73.28,118.448 C73.28,120.453333 73.792,122.245333 74.816,123.824 C75.84,125.402667 77.3226667,126.64 79.264,127.536 C81.2053333,128.432 83.4986667,128.88 86.144,128.88 Z M88.64,122.16 C86.8906667,122.16 85.5146667,121.786667 84.512,121.04 C83.5093333,120.293333 83.008,119.28 83.008,118 C83.008,115.312 85.056,113.968 89.152,113.968 L89.152,113.968 L96,113.968 L96,117.488 C95.4453333,119.024 94.5066667,120.186667 93.184,120.976 C91.8613333,121.765333 90.3466667,122.16 88.64,122.16 Z M129.088,128.88 C130.666667,128.88 132.170667,128.698667 133.6,128.336 C135.029333,127.973333 136.234667,127.429333 137.216,126.704 L137.216,126.704 L134.528,119.664 C133.418667,120.517333 132.074667,120.944 130.496,120.944 C129.130667,120.944 128.074667,120.549333 127.328,119.76 C126.581333,118.970667 126.208,117.850667 126.208,116.4 L126.208,116.4 L126.208,102.384 L134.784,102.384 L134.784,94.704 L126.208,94.704 L126.208,86.32 L116.224,86.32 L116.224,94.704 L110.912,94.704 L110.912,102.384 L116.224,102.384 L116.224,116.528 C116.224,120.581333 117.344,123.653333 119.584,125.744 C121.824,127.834667 124.992,128.88 129.088,128.88 Z M170.944,128.368 L170.944,111.344 C170.944,108.272 171.690667,105.957333 173.184,104.4 C174.677333,102.842667 176.682667,102.064 179.2,102.064 C181.461333,102.064 183.189333,102.736 184.384,104.08 C185.578667,105.424 186.176,107.461333 186.176,110.192 L186.176,110.192 L186.176,128.368 L196.16,128.368 L196.16,108.656 C196.16,103.621333 194.848,99.824 192.224,97.264 C189.6,94.704 186.154667,93.424 181.888,93.424 C179.669333,93.424 177.621333,93.776 175.744,94.48 C173.866667,95.184 172.266667,96.1973333 170.944,97.52 L170.944,97.52 L170.944,80.88 L160.96,80.88 L160.96,128.368 L170.944,128.368 Z M210.176,89.136 C212.010667,89.136 213.504,88.592 214.656,87.504 C215.808,86.416 216.384,85.04 216.384,83.376 C216.384,81.84 215.808,80.56 214.656,79.536 C213.504,78.512 212.010667,78 210.176,78 C208.341333,78 206.848,78.5333333 205.696,79.6 C204.544,80.6666667 203.968,81.9893333 203.968,83.568 C203.968,85.1466667 204.544,86.4693333 205.696,87.536 C206.848,88.6026667 208.341333,89.136 210.176,89.136 Z M215.168,128.368 L215.168,93.936 L205.184,93.936 L205.184,128.368 L215.168,128.368 Z M240.64,141.296 C246.954667,141.296 251.754667,139.76 255.04,136.688 C258.325333,133.616 259.968,128.922667 259.968,122.608 L259.968,122.608 L259.968,93.936 L250.496,93.936 L250.496,98.352 C247.893333,95.0666667 244.096,93.424 239.104,93.424 C235.946667,93.424 233.056,94.1173333 230.432,95.504 C227.808,96.8906667 225.728,98.8426667 224.192,101.36 C222.656,103.877333 221.888,106.778667 221.888,110.064 C221.888,113.349333 222.656,116.250667 224.192,118.768 C225.728,121.285333 227.808,123.237333 230.432,124.624 C233.056,126.010667 235.946667,126.704 239.104,126.704 C243.754667,126.704 247.381333,125.274667 249.984,122.416 L249.984,122.416 L249.984,123.888 C249.984,127.045333 249.162667,129.402667 247.52,130.96 C245.877333,132.517333 243.328,133.296 239.872,133.296 C237.653333,133.296 235.434667,132.944 233.216,132.24 C230.997333,131.536 229.162667,130.586667 227.712,129.392 L227.712,129.392 L223.744,136.56 C225.706667,138.096 228.181333,139.269333 231.168,140.08 C234.154667,140.890667 237.312,141.296 240.64,141.296 Z M241.088,118.512 C238.442667,118.512 236.266667,117.733333 234.56,116.176 C232.853333,114.618667 232,112.581333 232,110.064 C232,107.546667 232.853333,105.509333 234.56,103.952 C236.266667,102.394667 238.442667,101.616 241.088,101.616 C243.733333,101.616 245.898667,102.394667 247.584,103.952 C249.269333,105.509333 250.112,107.546667 250.112,110.064 C250.112,112.581333 249.269333,114.618667 247.584,116.176 C245.898667,117.733333 243.733333,118.512 241.088,118.512 Z M279.232,128.368 L279.232,111.344 C279.232,108.272 279.978667,105.957333 281.472,104.4 C282.965333,102.842667 284.970667,102.064 287.488,102.064 C289.749333,102.064 291.477333,102.736 292.672,104.08 C293.866667,105.424 294.464,107.461333 294.464,110.192 L294.464,110.192 L294.464,128.368 L304.448,128.368 L304.448,108.656 C304.448,103.621333 303.136,99.824 300.512,97.264 C297.888,94.704 294.442667,93.424 290.176,93.424 C287.957333,93.424 285.909333,93.776 284.032,94.48 C282.154667,95.184 280.554667,96.1973333 279.232,97.52 L279.232,97.52 L279.232,80.88 L269.248,80.88 L269.248,128.368 L279.232,128.368 Z M341.568,128.368 L341.568,112.112 C341.568,108.912 342.378667,106.512 344,104.912 C345.621333,103.312 347.861333,102.512 350.72,102.512 C351.104,102.512 351.850667,102.554667 352.96,102.64 L352.96,102.64 L352.96,93.424 C350.314667,93.424 347.978667,93.8506667 345.952,94.704 C343.925333,95.5573333 342.314667,96.816 341.12,98.48 L341.12,98.48 L341.12,93.936 L331.584,93.936 L331.584,128.368 L341.568,128.368 Z M364.16,89.136 C365.994667,89.136 367.488,88.592 368.64,87.504 C369.792,86.416 370.368,85.04 370.368,83.376 C370.368,81.84 369.792,80.56 368.64,79.536 C367.488,78.512 365.994667,78 364.16,78 C362.325333,78 360.832,78.5333333 359.68,79.6 C358.528,80.6666667 357.952,81.9893333 357.952,83.568 C357.952,85.1466667 358.528,86.4693333 359.68,87.536 C360.832,88.6026667 362.325333,89.136 364.16,89.136 Z M369.152,128.368 L369.152,93.936 L359.168,93.936 L359.168,128.368 L369.152,128.368 Z M390.016,128.88 C393.386667,128.88 396.298667,128.421333 398.752,127.504 C401.205333,126.586667 403.072,125.296 404.352,123.632 C405.632,121.968 406.272,120.069333 406.272,117.936 C406.272,115.418667 405.610667,113.456 404.288,112.048 C402.965333,110.64 401.408,109.669333 399.616,109.136 C397.824,108.602667 395.52,108.101333 392.704,107.632 C390.186667,107.248 388.352,106.842667 387.2,106.416 C386.048,105.989333 385.472,105.242667 385.472,104.176 C385.472,103.237333 386.005333,102.469333 387.072,101.872 C388.138667,101.274667 389.738667,100.976 391.872,100.976 C395.456,100.976 398.762667,101.829333 401.792,103.536 L401.792,103.536 L405.12,96.432 C403.541333,95.4933333 401.546667,94.7573333 399.136,94.224 C396.725333,93.6906667 394.304,93.424 391.872,93.424 C388.586667,93.424 385.738667,93.8933333 383.328,94.832 C380.917333,95.7706667 379.082667,97.0826667 377.824,98.768 C376.565333,100.453333 375.936,102.384 375.936,104.56 C375.936,107.162667 376.608,109.168 377.952,110.576 C379.296,111.984 380.885333,112.965333 382.72,113.52 C384.554667,114.074667 386.88,114.565333 389.696,114.992 C392.085333,115.290667 393.856,115.653333 395.008,116.08 C396.16,116.506667 396.736,117.210667 396.736,118.192 C396.736,120.282667 394.624,121.328 390.4,121.328 C388.309333,121.328 386.176,121.018667 384,120.4 C381.824,119.781333 379.968,118.981333 378.432,118 L378.432,118 L375.104,125.168 C376.725333,126.234667 378.901333,127.12 381.632,127.824 C384.362667,128.528 387.157333,128.88 390.016,128.88 Z M422.4,128.368 L422.4,119.6 L427.2,114.864 L438.08,128.368 L450.176,128.368 L434.56,108.528 L448.896,93.936 L436.992,93.936 L422.4,107.76 L422.4,80.88 L412.416,80.88 L412.416,128.368 L422.4,128.368 Z M483.968,128.368 L483.968,102.384 L492.544,102.384 L492.544,94.704 L483.712,94.704 L483.712,93.232 C483.712,89.904 485.226667,88.24 488.256,88.24 C489.792,88.24 491.136,88.6453333 492.288,89.456 L492.288,89.456 L494.912,82.224 C494.016,81.6266667 492.896,81.168 491.552,80.848 C490.208,80.528 488.789333,80.368 487.296,80.368 C483.072,80.368 479.797333,81.52 477.472,83.824 C475.146667,86.128 473.984,89.2426667 473.984,93.168 L473.984,93.168 L473.984,94.704 L468.672,94.704 L468.672,102.384 L473.984,102.384 L473.984,128.368 L483.968,128.368 Z M513.92,128.88 C517.546667,128.88 520.789333,128.122667 523.648,126.608 C526.506667,125.093333 528.746667,122.992 530.368,120.304 C531.989333,117.616 532.8,114.565333 532.8,111.152 C532.8,107.738667 531.989333,104.688 530.368,102 C528.746667,99.312 526.506667,97.2106667 523.648,95.696 C520.789333,94.1813333 517.546667,93.424 513.92,93.424 C510.293333,93.424 507.04,94.1813333 504.16,95.696 C501.28,97.2106667 499.029333,99.312 497.408,102 C495.786667,104.688 494.976,107.738667 494.976,111.152 C494.976,114.565333 495.786667,117.616 497.408,120.304 C499.029333,122.992 501.28,125.093333 504.16,126.608 C507.04,128.122667 510.293333,128.88 513.92,128.88 Z M513.92,120.688 C511.36,120.688 509.248,119.824 507.584,118.096 C505.92,116.368 505.088,114.053333 505.088,111.152 C505.088,108.250667 505.92,105.936 507.584,104.208 C509.248,102.48 511.36,101.616 513.92,101.616 C516.48,101.616 518.581333,102.48 520.224,104.208 C521.866667,105.936 522.688,108.250667 522.688,111.152 C522.688,114.053333 521.866667,116.368 520.224,118.096 C518.581333,119.824 516.48,120.688 513.92,120.688 Z M549.44,128.368 L549.44,112.112 C549.44,108.912 550.250667,106.512 551.872,104.912 C553.493333,103.312 555.733333,102.512 558.592,102.512 C558.976,102.512 559.722667,102.554667 560.832,102.64 L560.832,102.64 L560.832,93.424 C558.186667,93.424 555.850667,93.8506667 553.824,94.704 C551.797333,95.5573333 550.186667,96.816 548.992,98.48 L548.992,98.48 L548.992,93.936 L539.456,93.936 L539.456,128.368 L549.44,128.368 Z M599.232,128.88 C600.810667,128.88 602.314667,128.698667 603.744,128.336 C605.173333,127.973333 606.378667,127.429333 607.36,126.704 L607.36,126.704 L604.672,119.664 C603.562667,120.517333 602.218667,120.944 600.64,120.944 C599.274667,120.944 598.218667,120.549333 597.472,119.76 C596.725333,118.970667 596.352,117.850667 596.352,116.4 L596.352,116.4 L596.352,102.384 L604.928,102.384 L604.928,94.704 L596.352,94.704 L596.352,86.32 L586.368,86.32 L586.368,94.704 L581.056,94.704 L581.056,102.384 L586.368,102.384 L586.368,116.528 C586.368,120.581333 587.488,123.653333 589.728,125.744 C591.968,127.834667 595.136,128.88 599.232,128.88 Z M617.344,141.296 C620.629333,141.296 623.434667,140.485333 625.76,138.864 C628.085333,137.242667 630.037333,134.448 631.616,130.48 L631.616,130.48 L647.168,93.936 L637.568,93.936 L627.84,117.296 L618.176,93.936 L607.872,93.936 L622.784,128.624 L622.656,128.944 C621.973333,130.48 621.205333,131.578667 620.352,132.24 C619.498667,132.901333 618.389333,133.232 617.024,133.232 C616.042667,133.232 615.050667,133.04 614.048,132.656 C613.045333,132.272 612.16,131.738667 611.392,131.056 L611.392,131.056 L607.744,138.16 C608.853333,139.141333 610.282667,139.909333 612.032,140.464 C613.781333,141.018667 615.552,141.296 617.344,141.296 Z M661.248,140.784 L661.248,124.72 C663.765333,127.493333 667.221333,128.88 671.616,128.88 C674.816,128.88 677.728,128.144 680.352,126.672 C682.976,125.2 685.034667,123.130667 686.528,120.464 C688.021333,117.797333 688.768,114.693333 688.768,111.152 C688.768,107.610667 688.021333,104.506667 686.528,101.84 C685.034667,99.1733333 682.976,97.104 680.352,95.632 C677.728,94.16 674.816,93.424 671.616,93.424 C666.88,93.424 663.274667,94.9173333 660.8,97.904 L660.8,97.904 L660.8,93.936 L651.264,93.936 L651.264,140.784 L661.248,140.784 Z M669.888,120.688 C667.328,120.688 665.226667,119.824 663.584,118.096 C661.941333,116.368 661.12,114.053333 661.12,111.152 C661.12,108.250667 661.941333,105.936 663.584,104.208 C665.226667,102.48 667.328,101.616 669.888,101.616 C672.448,101.616 674.549333,102.48 676.192,104.208 C677.834667,105.936 678.656,108.250667 678.656,111.152 C678.656,114.053333 677.834667,116.368 676.192,118.096 C674.549333,119.824 672.448,120.688 669.888,120.688 Z M712.512,128.88 C718.741333,128.88 723.477333,127.024 726.72,123.312 L726.72,123.312 L721.408,117.552 C720.213333,118.704 718.922667,119.546667 717.536,120.08 C716.149333,120.613333 714.56,120.88 712.768,120.88 C710.165333,120.88 707.989333,120.261333 706.24,119.024 C704.490667,117.786667 703.381333,116.101333 702.912,113.968 L702.912,113.968 L728.96,113.968 C729.088,112.304 729.152,111.408 729.152,111.28 C729.152,107.696 728.373333,104.549333 726.816,101.84 C725.258667,99.1306667 723.114667,97.0506667 720.384,95.6 C717.653333,94.1493333 714.602667,93.424 711.232,93.424 C707.776,93.424 704.650667,94.1813333 701.856,95.696 C699.061333,97.2106667 696.864,99.3226667 695.264,102.032 C693.664,104.741333 692.864,107.781333 692.864,111.152 C692.864,114.565333 693.674667,117.616 695.296,120.304 C696.917333,122.992 699.221333,125.093333 702.208,126.608 C705.194667,128.122667 708.629333,128.88 712.512,128.88 Z M719.744,108.144 L702.784,108.144 C703.125333,105.925333 704.064,104.176 705.6,102.896 C707.136,101.616 709.034667,100.976 711.296,100.976 C713.514667,100.976 715.392,101.626667 716.928,102.928 C718.464,104.229333 719.402667,105.968 719.744,108.144 L719.744,108.144 Z M785.28,128.368 L785.28,119.92 L766.016,119.92 L776.32,110.192 C779.264,107.461333 781.248,105.029333 782.272,102.896 C783.296,100.762667 783.808,98.48 783.808,96.048 C783.808,93.36 783.114667,91.024 781.728,89.04 C780.341333,87.056 778.4,85.52 775.904,84.432 C773.408,83.344 770.496,82.8 767.168,82.8 C763.2,82.8 759.68,83.536 756.608,85.008 C753.536,86.48 751.125333,88.5173333 749.376,91.12 L749.376,91.12 L756.928,95.984 C757.994667,94.4906667 759.317333,93.3706667 760.896,92.624 C762.474667,91.8773333 764.245333,91.504 766.208,91.504 C768.554667,91.504 770.336,91.984 771.552,92.944 C772.768,93.904 773.376,95.28 773.376,97.072 C773.376,98.3093333 773.056,99.5573333 772.416,100.816 C771.776,102.074667 770.538667,103.578667 768.704,105.328 L768.704,105.328 L751.424,121.648 L751.424,128.368 L785.28,128.368 Z M824.576,128.88 C829.269333,128.88 832.853333,127.386667 835.328,124.4 L835.328,124.4 L835.328,128.368 L844.864,128.368 L844.864,80.88 L834.88,80.88 L834.88,97.584 C832.405333,94.8106667 828.970667,93.424 824.576,93.424 C821.333333,93.424 818.4,94.1493333 815.776,95.6 C813.152,97.0506667 811.093333,99.12 809.6,101.808 C808.106667,104.496 807.36,107.610667 807.36,111.152 C807.36,114.693333 808.106667,117.808 809.6,120.496 C811.093333,123.184 813.152,125.253333 815.776,126.704 C818.4,128.154667 821.333333,128.88 824.576,128.88 Z M826.304,120.688 C823.744,120.688 821.632,119.824 819.968,118.096 C818.304,116.368 817.472,114.053333 817.472,111.152 C817.472,108.250667 818.304,105.936 819.968,104.208 C821.632,102.48 823.744,101.616 826.304,101.616 C828.821333,101.616 830.912,102.48 832.576,104.208 C834.24,105.936 835.072,108.250667 835.072,111.152 C835.072,114.053333 834.24,116.368 832.576,118.096 C830.912,119.824 828.821333,120.688 826.304,120.688 Z M859.072,89.136 C860.906667,89.136 862.4,88.592 863.552,87.504 C864.704,86.416 865.28,85.04 865.28,83.376 C865.28,81.84 864.704,80.56 863.552,79.536 C862.4,78.512 860.906667,78 859.072,78 C857.237333,78 855.744,78.5333333 854.592,79.6 C853.44,80.6666667 852.864,81.9893333 852.864,83.568 C852.864,85.1466667 853.44,86.4693333 854.592,87.536 C855.744,88.6026667 857.237333,89.136 859.072,89.136 Z M864.064,128.368 L864.064,93.936 L854.08,93.936 L854.08,128.368 L864.064,128.368 Z M883.968,128.88 C889.088,128.88 892.586667,127.28 894.464,124.08 L894.464,124.08 L894.464,128.368 L903.808,128.368 L903.808,108.72 C903.808,103.6 902.378667,99.7706667 899.52,97.232 C896.661333,94.6933333 892.565333,93.424 887.232,93.424 C884.458667,93.424 881.76,93.7866667 879.136,94.512 C876.512,95.2373333 874.261333,96.2613333 872.384,97.584 L872.384,97.584 L875.968,104.56 C877.205333,103.578667 878.709333,102.8 880.48,102.224 C882.250667,101.648 884.053333,101.36 885.888,101.36 C888.533333,101.36 890.517333,101.946667 891.84,103.12 C893.162667,104.293333 893.824,105.968 893.824,108.144 L893.824,108.144 L885.888,108.144 C880.853333,108.144 877.130667,109.061333 874.72,110.896 C872.309333,112.730667 871.104,115.248 871.104,118.448 C871.104,120.453333 871.616,122.245333 872.64,123.824 C873.664,125.402667 875.146667,126.64 877.088,127.536 C879.029333,128.432 881.322667,128.88 883.968,128.88 Z M886.464,122.16 C884.714667,122.16 883.338667,121.786667 882.336,121.04 C881.333333,120.293333 880.832,119.28 880.832,118 C880.832,115.312 882.88,113.968 886.976,113.968 L886.976,113.968 L893.824,113.968 L893.824,117.488 C893.269333,119.024 892.330667,120.186667 891.008,120.976 C889.685333,121.765333 888.170667,122.16 886.464,122.16 Z M933.184,128.88 C936.384,128.88 939.296,128.144 941.92,126.672 C944.544,125.2 946.602667,123.130667 948.096,120.464 C949.589333,117.797333 950.336,114.693333 950.336,111.152 C950.336,107.610667 949.589333,104.506667 948.096,101.84 C946.602667,99.1733333 944.544,97.104 941.92,95.632 C939.296,94.16 936.384,93.424 933.184,93.424 C928.789333,93.424 925.333333,94.8106667 922.816,97.584 L922.816,97.584 L922.816,80.88 L912.832,80.88 L912.832,128.368 L922.368,128.368 L922.368,124.4 C924.842667,127.386667 928.448,128.88 933.184,128.88 Z M931.456,120.688 C928.896,120.688 926.794667,119.824 925.152,118.096 C923.509333,116.368 922.688,114.053333 922.688,111.152 C922.688,108.250667 923.509333,105.936 925.152,104.208 C926.794667,102.48 928.896,101.616 931.456,101.616 C934.016,101.616 936.117333,102.48 937.76,104.208 C939.402667,105.936 940.224,108.250667 940.224,111.152 C940.224,114.053333 939.402667,116.368 937.76,118.096 C936.117333,119.824 934.016,120.688 931.456,120.688 Z M974.08,128.88 C980.309333,128.88 985.045333,127.024 988.288,123.312 L988.288,123.312 L982.976,117.552 C981.781333,118.704 980.490667,119.546667 979.104,120.08 C977.717333,120.613333 976.128,120.88 974.336,120.88 C971.733333,120.88 969.557333,120.261333 967.808,119.024 C966.058667,117.786667 964.949333,116.101333 964.48,113.968 L964.48,113.968 L990.528,113.968 C990.656,112.304 990.72,111.408 990.72,111.28 C990.72,107.696 989.941333,104.549333 988.384,101.84 C986.826667,99.1306667 984.682667,97.0506667 981.952,95.6 C979.221333,94.1493333 976.170667,93.424 972.8,93.424 C969.344,93.424 966.218667,94.1813333 963.424,95.696 C960.629333,97.2106667 958.432,99.3226667 956.832,102.032 C955.232,104.741333 954.432,107.781333 954.432,111.152 C954.432,114.565333 955.242667,117.616 956.864,120.304 C958.485333,122.992 960.789333,125.093333 963.776,126.608 C966.762667,128.122667 970.197333,128.88 974.08,128.88 Z M981.312,108.144 L964.352,108.144 C964.693333,105.925333 965.632,104.176 967.168,102.896 C968.704,101.616 970.602667,100.976 972.864,100.976 C975.082667,100.976 976.96,101.626667 978.496,102.928 C980.032,104.229333 980.970667,105.968 981.312,108.144 L981.312,108.144 Z M1011.456,128.88 C1013.03467,128.88 1014.53867,128.698667 1015.968,128.336 C1017.39733,127.973333 1018.60267,127.429333 1019.584,126.704 L1019.584,126.704 L1016.896,119.664 C1015.78667,120.517333 1014.44267,120.944 1012.864,120.944 C1011.49867,120.944 1010.44267,120.549333 1009.696,119.76 C1008.94933,118.970667 1008.576,117.850667 1008.576,116.4 L1008.576,116.4 L1008.576,102.384 L1017.152,102.384 L1017.152,94.704 L1008.576,94.704 L1008.576,86.32 L998.592,86.32 L998.592,94.704 L993.28,94.704 L993.28,102.384 L998.592,102.384 L998.592,116.528 C998.592,120.581333 999.712,123.653333 1001.952,125.744 C1004.192,127.834667 1007.36,128.88 1011.456,128.88 Z M1042.304,128.88 C1048.53333,128.88 1053.26933,127.024 1056.512,123.312 L1056.512,123.312 L1051.2,117.552 C1050.00533,118.704 1048.71467,119.546667 1047.328,120.08 C1045.94133,120.613333 1044.352,120.88 1042.56,120.88 C1039.95733,120.88 1037.78133,120.261333 1036.032,119.024 C1034.28267,117.786667 1033.17333,116.101333 1032.704,113.968 L1032.704,113.968 L1058.752,113.968 C1058.88,112.304 1058.944,111.408 1058.944,111.28 C1058.944,107.696 1058.16533,104.549333 1056.608,101.84 C1055.05067,99.1306667 1052.90667,97.0506667 1050.176,95.6 C1047.44533,94.1493333 1044.39467,93.424 1041.024,93.424 C1037.568,93.424 1034.44267,94.1813333 1031.648,95.696 C1028.85333,97.2106667 1026.656,99.3226667 1025.056,102.032 C1023.456,104.741333 1022.656,107.781333 1022.656,111.152 C1022.656,114.565333 1023.46667,117.616 1025.088,120.304 C1026.70933,122.992 1029.01333,125.093333 1032,126.608 C1034.98667,128.122667 1038.42133,128.88 1042.304,128.88 Z M1049.536,108.144 L1032.576,108.144 C1032.91733,105.925333 1033.856,104.176 1035.392,102.896 C1036.928,101.616 1038.82667,100.976 1041.088,100.976 C1043.30667,100.976 1045.184,101.626667 1046.72,102.928 C1048.256,104.229333 1049.19467,105.968 1049.536,108.144 L1049.536,108.144 Z M1077.184,128.88 C1080.55467,128.88 1083.46667,128.421333 1085.92,127.504 C1088.37333,126.586667 1090.24,125.296 1091.52,123.632 C1092.8,121.968 1093.44,120.069333 1093.44,117.936 C1093.44,115.418667 1092.77867,113.456 1091.456,112.048 C1090.13333,110.64 1088.576,109.669333 1086.784,109.136 C1084.992,108.602667 1082.688,108.101333 1079.872,107.632 C1077.35467,107.248 1075.52,106.842667 1074.368,106.416 C1073.216,105.989333 1072.64,105.242667 1072.64,104.176 C1072.64,103.237333 1073.17333,102.469333 1074.24,101.872 C1075.30667,101.274667 1076.90667,100.976 1079.04,100.976 C1082.624,100.976 1085.93067,101.829333 1088.96,103.536 L1088.96,103.536 L1092.288,96.432 C1090.70933,95.4933333 1088.71467,94.7573333 1086.304,94.224 C1083.89333,93.6906667 1081.472,93.424 1079.04,93.424 C1075.75467,93.424 1072.90667,93.8933333 1070.496,94.832 C1068.08533,95.7706667 1066.25067,97.0826667 1064.992,98.768 C1063.73333,100.453333 1063.104,102.384 1063.104,104.56 C1063.104,107.162667 1063.776,109.168 1065.12,110.576 C1066.464,111.984 1068.05333,112.965333 1069.888,113.52 C1071.72267,114.074667 1074.048,114.565333 1076.864,114.992 C1079.25333,115.290667 1081.024,115.653333 1082.176,116.08 C1083.328,116.506667 1083.904,117.210667 1083.904,118.192 C1083.904,120.282667 1081.792,121.328 1077.568,121.328 C1075.47733,121.328 1073.344,121.018667 1071.168,120.4 C1068.992,119.781333 1067.136,118.981333 1065.6,118 L1065.6,118 L1062.272,125.168 C1063.89333,126.234667 1066.06933,127.12 1068.8,127.824 C1071.53067,128.528 1074.32533,128.88 1077.184,128.88 Z M1103.36,128.88 C1105.10933,128.88 1106.58133,128.282667 1107.776,127.088 C1108.97067,125.893333 1109.568,124.4 1109.568,122.608 C1109.568,120.773333 1108.97067,119.290667 1107.776,118.16 C1106.58133,117.029333 1105.10933,116.464 1103.36,116.464 C1101.61067,116.464 1100.13867,117.029333 1098.944,118.16 C1097.74933,119.290667 1097.152,120.773333 1097.152,122.608 C1097.152,124.4 1097.74933,125.893333 1098.944,127.088 C1100.13867,128.282667 1101.61067,128.88 1103.36,128.88 Z" id="USadultshasprediabetesandisathighriskfortype2diabetes." fill="#232323"></path>
        </g>
        <path d="M506.844,265 L506.844,247.976 L520.2,265 L521.376,265 L521.376,245.4 L519.948,245.4 L519.948,262.424 L506.62,245.4 L505.416,245.4 L505.416,265 L506.844,265 Z M531.708,265.112 C532.958667,265.112 534.032,264.874 534.928,264.398 C535.824,263.922 536.505333,263.254667 536.972,262.396 L536.972,262.396 L536.972,265 L538.316,265 L538.316,255.732 C538.316,253.94 537.830667,252.582 536.86,251.658 C535.889333,250.734 534.498667,250.272 532.688,250.272 C531.568,250.272 530.494667,250.454 529.468,250.818 C528.441333,251.182 527.564,251.690667 526.836,252.344 L526.836,252.344 L527.536,253.352 C528.152,252.792 528.903333,252.344 529.79,252.008 C530.676667,251.672 531.605333,251.504 532.576,251.504 C533.994667,251.504 535.072667,251.858667 535.81,252.568 C536.547333,253.277333 536.916,254.313333 536.916,255.676 L536.916,255.676 L536.916,256.852 L531.904,256.852 C530,256.852 528.614,257.23 527.746,257.986 C526.878,258.742 526.444,259.726667 526.444,260.94 C526.444,262.190667 526.915333,263.198667 527.858,263.964 C528.800667,264.729333 530.084,265.112 531.708,265.112 Z M531.904,263.964 C530.616,263.964 529.617333,263.688667 528.908,263.138 C528.198667,262.587333 527.844,261.836 527.844,260.884 C527.844,259.969333 528.166,259.250667 528.81,258.728 C529.454,258.205333 530.494667,257.944 531.932,257.944 L531.932,257.944 L536.916,257.944 L536.916,260.688 C536.486667,261.752 535.847333,262.564 534.998,263.124 C534.148667,263.684 533.117333,263.964 531.904,263.964 Z M548.34,265.112 C548.918667,265.112 549.474,265.023333 550.006,264.846 C550.538,264.668667 550.981333,264.412 551.336,264.076 L551.336,264.076 L550.748,263.096 C550.150667,263.637333 549.394667,263.908 548.48,263.908 C547.584,263.908 546.907333,263.660667 546.45,263.166 C545.992667,262.671333 545.764,261.948 545.764,260.996 L545.764,260.996 L545.764,251.588 L550.412,251.588 L550.412,250.384 L545.764,250.384 L545.764,247.192 L544.364,247.192 L544.364,250.384 L541.676,250.384 L541.676,251.588 L544.364,251.588 L544.364,261.136 C544.364,262.386667 544.709333,263.362 545.4,264.062 C546.090667,264.762 547.070667,265.112 548.34,265.112 Z M555.928,246.828 C556.245333,246.828 556.516,246.716 556.74,246.492 C556.964,246.268 557.076,245.997333 557.076,245.68 C557.076,245.362667 556.964,245.096667 556.74,244.882 C556.516,244.667333 556.245333,244.56 555.928,244.56 C555.610667,244.56 555.34,244.672 555.116,244.896 C554.892,245.12 554.78,245.390667 554.78,245.708 C554.78,246.025333 554.892,246.291333 555.116,246.506 C555.34,246.720667 555.610667,246.828 555.928,246.828 Z M556.628,265 L556.628,250.384 L555.228,250.384 L555.228,265 L556.628,265 Z M568.248,265.112 C569.629333,265.112 570.875333,264.794667 571.986,264.16 C573.096667,263.525333 573.969333,262.643333 574.604,261.514 C575.238667,260.384667 575.556,259.110667 575.556,257.692 C575.556,256.273333 575.238667,254.999333 574.604,253.87 C573.969333,252.740667 573.096667,251.858667 571.986,251.224 C570.875333,250.589333 569.629333,250.272 568.248,250.272 C566.866667,250.272 565.620667,250.589333 564.51,251.224 C563.399333,251.858667 562.526667,252.740667 561.892,253.87 C561.257333,254.999333 560.94,256.273333 560.94,257.692 C560.94,259.110667 561.257333,260.384667 561.892,261.514 C562.526667,262.643333 563.399333,263.525333 564.51,264.16 C565.620667,264.794667 566.866667,265.112 568.248,265.112 Z M568.248,263.852 C567.128,263.852 566.124667,263.590667 565.238,263.068 C564.351333,262.545333 563.651333,261.817333 563.138,260.884 C562.624667,259.950667 562.368,258.886667 562.368,257.692 C562.368,256.497333 562.624667,255.433333 563.138,254.5 C563.651333,253.566667 564.351333,252.838667 565.238,252.316 C566.124667,251.793333 567.128,251.532 568.248,251.532 C569.368,251.532 570.371333,251.793333 571.258,252.316 C572.144667,252.838667 572.844667,253.566667 573.358,254.5 C573.871333,255.433333 574.128,256.497333 574.128,257.692 C574.128,258.886667 573.871333,259.950667 573.358,260.884 C572.844667,261.817333 572.144667,262.545333 571.258,263.068 C570.371333,263.590667 569.368,263.852 568.248,263.852 Z M581.296,265 L581.296,257.216 C581.296,255.48 581.790667,254.098667 582.78,253.072 C583.769333,252.045333 585.122667,251.532 586.84,251.532 C588.333333,251.532 589.495333,251.961333 590.326,252.82 C591.156667,253.678667 591.572,254.929333 591.572,256.572 L591.572,256.572 L591.572,265 L592.972,265 L592.972,256.46 C592.972,254.462667 592.44,252.932 591.376,251.868 C590.312,250.804 588.865333,250.272 587.036,250.272 C585.673333,250.272 584.492667,250.561333 583.494,251.14 C582.495333,251.718667 581.744,252.521333 581.24,253.548 L581.24,253.548 L581.24,250.384 L579.896,250.384 L579.896,265 L581.296,265 Z M602.688,265.112 C603.938667,265.112 605.012,264.874 605.908,264.398 C606.804,263.922 607.485333,263.254667 607.952,262.396 L607.952,262.396 L607.952,265 L609.296,265 L609.296,255.732 C609.296,253.94 608.810667,252.582 607.84,251.658 C606.869333,250.734 605.478667,250.272 603.668,250.272 C602.548,250.272 601.474667,250.454 600.448,250.818 C599.421333,251.182 598.544,251.690667 597.816,252.344 L597.816,252.344 L598.516,253.352 C599.132,252.792 599.883333,252.344 600.77,252.008 C601.656667,251.672 602.585333,251.504 603.556,251.504 C604.974667,251.504 606.052667,251.858667 606.79,252.568 C607.527333,253.277333 607.896,254.313333 607.896,255.676 L607.896,255.676 L607.896,256.852 L602.884,256.852 C600.98,256.852 599.594,257.23 598.726,257.986 C597.858,258.742 597.424,259.726667 597.424,260.94 C597.424,262.190667 597.895333,263.198667 598.838,263.964 C599.780667,264.729333 601.064,265.112 602.688,265.112 Z M602.884,263.964 C601.596,263.964 600.597333,263.688667 599.888,263.138 C599.178667,262.587333 598.824,261.836 598.824,260.884 C598.824,259.969333 599.146,259.250667 599.79,258.728 C600.434,258.205333 601.474667,257.944 602.912,257.944 L602.912,257.944 L607.896,257.944 L607.896,260.688 C607.466667,261.752 606.827333,262.564 605.978,263.124 C605.128667,263.684 604.097333,263.964 602.884,263.964 Z M616.464,265 L616.464,244.224 L615.064,244.224 L615.064,265 L616.464,265 Z M637.772,265 C639.806667,265 641.612667,264.58 643.19,263.74 C644.767333,262.9 645.994667,261.738 646.872,260.254 C647.749333,258.77 648.188,257.085333 648.188,255.2 C648.188,253.314667 647.749333,251.63 646.872,250.146 C645.994667,248.662 644.767333,247.5 643.19,246.66 C641.612667,245.82 639.806667,245.4 637.772,245.4 L637.772,245.4 L630.016,245.4 L630.016,265 L637.772,265 Z M637.66,263.712 L631.444,263.712 L631.444,246.688 L637.66,246.688 C639.470667,246.688 641.066667,247.047333 642.448,247.766 C643.829333,248.484667 644.893333,249.488 645.64,250.776 C646.386667,252.064 646.76,253.538667 646.76,255.2 C646.76,256.861333 646.386667,258.336 645.64,259.624 C644.893333,260.912 643.829333,261.915333 642.448,262.634 C641.066667,263.352667 639.470667,263.712 637.66,263.712 L637.66,263.712 Z M653.396,246.828 C653.713333,246.828 653.984,246.716 654.208,246.492 C654.432,246.268 654.544,245.997333 654.544,245.68 C654.544,245.362667 654.432,245.096667 654.208,244.882 C653.984,244.667333 653.713333,244.56 653.396,244.56 C653.078667,244.56 652.808,244.672 652.584,244.896 C652.36,245.12 652.248,245.390667 652.248,245.708 C652.248,246.025333 652.36,246.291333 652.584,246.506 C652.808,246.720667 653.078667,246.828 653.396,246.828 Z M654.096,265 L654.096,250.384 L652.696,250.384 L652.696,265 L654.096,265 Z M663.952,265.112 C665.202667,265.112 666.276,264.874 667.172,264.398 C668.068,263.922 668.749333,263.254667 669.216,262.396 L669.216,262.396 L669.216,265 L670.56,265 L670.56,255.732 C670.56,253.94 670.074667,252.582 669.104,251.658 C668.133333,250.734 666.742667,250.272 664.932,250.272 C663.812,250.272 662.738667,250.454 661.712,250.818 C660.685333,251.182 659.808,251.690667 659.08,252.344 L659.08,252.344 L659.78,253.352 C660.396,252.792 661.147333,252.344 662.034,252.008 C662.920667,251.672 663.849333,251.504 664.82,251.504 C666.238667,251.504 667.316667,251.858667 668.054,252.568 C668.791333,253.277333 669.16,254.313333 669.16,255.676 L669.16,255.676 L669.16,256.852 L664.148,256.852 C662.244,256.852 660.858,257.23 659.99,257.986 C659.122,258.742 658.688,259.726667 658.688,260.94 C658.688,262.190667 659.159333,263.198667 660.102,263.964 C661.044667,264.729333 662.328,265.112 663.952,265.112 Z M664.148,263.964 C662.86,263.964 661.861333,263.688667 661.152,263.138 C660.442667,262.587333 660.088,261.836 660.088,260.884 C660.088,259.969333 660.41,259.250667 661.054,258.728 C661.698,258.205333 662.738667,257.944 664.176,257.944 L664.176,257.944 L669.16,257.944 L669.16,260.688 C668.730667,261.752 668.091333,262.564 667.242,263.124 C666.392667,263.684 665.361333,263.964 664.148,263.964 Z M683.664,265.112 C685.026667,265.112 686.258667,264.794667 687.36,264.16 C688.461333,263.525333 689.324667,262.648 689.95,261.528 C690.575333,260.408 690.888,259.129333 690.888,257.692 C690.888,256.254667 690.575333,254.971333 689.95,253.842 C689.324667,252.712667 688.461333,251.835333 687.36,251.21 C686.258667,250.584667 685.026667,250.272 683.664,250.272 C682.376,250.272 681.209333,250.575333 680.164,251.182 C679.118667,251.788667 678.306667,252.633333 677.728,253.716 L677.728,253.716 L677.728,244.224 L676.328,244.224 L676.328,265 L677.672,265 L677.672,261.556 C678.250667,262.676 679.067333,263.548667 680.122,264.174 C681.176667,264.799333 682.357333,265.112 683.664,265.112 Z M683.58,263.852 C682.46,263.852 681.456667,263.590667 680.57,263.068 C679.683333,262.545333 678.983333,261.817333 678.47,260.884 C677.956667,259.950667 677.7,258.886667 677.7,257.692 C677.7,256.497333 677.956667,255.433333 678.47,254.5 C678.983333,253.566667 679.683333,252.838667 680.57,252.316 C681.456667,251.793333 682.46,251.532 683.58,251.532 C684.7,251.532 685.708,251.793333 686.604,252.316 C687.5,252.838667 688.204667,253.566667 688.718,254.5 C689.231333,255.433333 689.488,256.497333 689.488,257.692 C689.488,258.886667 689.231333,259.950667 688.718,260.884 C688.204667,261.817333 687.5,262.545333 686.604,263.068 C685.708,263.590667 684.7,263.852 683.58,263.852 Z M701.164,265.112 C702.284,265.112 703.324667,264.906667 704.286,264.496 C705.247333,264.085333 706.045333,263.497333 706.68,262.732 L706.68,262.732 L705.868,261.808 C705.326667,262.48 704.65,262.988667 703.838,263.334 C703.026,263.679333 702.144,263.852 701.192,263.852 C700.034667,263.852 698.994,263.609333 698.07,263.124 C697.146,262.638667 696.413333,261.952667 695.872,261.066 C695.330667,260.179333 695.041333,259.166667 695.004,258.028 L695.004,258.028 L707.576,258.028 L707.604,257.636 C707.604,256.217333 707.300667,254.948 706.694,253.828 C706.087333,252.708 705.256667,251.835333 704.202,251.21 C703.147333,250.584667 701.957333,250.272 700.632,250.272 C699.306667,250.272 698.112,250.589333 697.048,251.224 C695.984,251.858667 695.148667,252.740667 694.542,253.87 C693.935333,254.999333 693.632,256.273333 693.632,257.692 C693.632,259.129333 693.954,260.408 694.598,261.528 C695.242,262.648 696.133333,263.525333 697.272,264.16 C698.410667,264.794667 699.708,265.112 701.164,265.112 Z M706.232,256.936 L695.032,256.936 C695.106667,255.890667 695.391333,254.952667 695.886,254.122 C696.380667,253.291333 697.038667,252.647333 697.86,252.19 C698.681333,251.732667 699.605333,251.504 700.632,251.504 C701.658667,251.504 702.582667,251.737333 703.404,252.204 C704.225333,252.670667 704.888,253.314667 705.392,254.136 C705.896,254.957333 706.176,255.890667 706.232,256.936 L706.232,256.936 Z M716.2,265.112 C716.778667,265.112 717.334,265.023333 717.866,264.846 C718.398,264.668667 718.841333,264.412 719.196,264.076 L719.196,264.076 L718.608,263.096 C718.010667,263.637333 717.254667,263.908 716.34,263.908 C715.444,263.908 714.767333,263.660667 714.31,263.166 C713.852667,262.671333 713.624,261.948 713.624,260.996 L713.624,260.996 L713.624,251.588 L718.272,251.588 L718.272,250.384 L713.624,250.384 L713.624,247.192 L712.224,247.192 L712.224,250.384 L709.536,250.384 L709.536,251.588 L712.224,251.588 L712.224,261.136 C712.224,262.386667 712.569333,263.362 713.26,264.062 C713.950667,264.762 714.930667,265.112 716.2,265.112 Z M729.024,265.112 C730.144,265.112 731.184667,264.906667 732.146,264.496 C733.107333,264.085333 733.905333,263.497333 734.54,262.732 L734.54,262.732 L733.728,261.808 C733.186667,262.48 732.51,262.988667 731.698,263.334 C730.886,263.679333 730.004,263.852 729.052,263.852 C727.894667,263.852 726.854,263.609333 725.93,263.124 C725.006,262.638667 724.273333,261.952667 723.732,261.066 C723.190667,260.179333 722.901333,259.166667 722.864,258.028 L722.864,258.028 L735.436,258.028 L735.464,257.636 C735.464,256.217333 735.160667,254.948 734.554,253.828 C733.947333,252.708 733.116667,251.835333 732.062,251.21 C731.007333,250.584667 729.817333,250.272 728.492,250.272 C727.166667,250.272 725.972,250.589333 724.908,251.224 C723.844,251.858667 723.008667,252.740667 722.402,253.87 C721.795333,254.999333 721.492,256.273333 721.492,257.692 C721.492,259.129333 721.814,260.408 722.458,261.528 C723.102,262.648 723.993333,263.525333 725.132,264.16 C726.270667,264.794667 727.568,265.112 729.024,265.112 Z M734.092,256.936 L722.892,256.936 C722.966667,255.890667 723.251333,254.952667 723.746,254.122 C724.240667,253.291333 724.898667,252.647333 725.72,252.19 C726.541333,251.732667 727.465333,251.504 728.492,251.504 C729.518667,251.504 730.442667,251.737333 731.264,252.204 C732.085333,252.670667 732.748,253.314667 733.252,254.136 C733.756,254.957333 734.036,255.890667 734.092,256.936 L734.092,256.936 Z M743.5,265.112 C745.329333,265.112 746.748,264.748 747.756,264.02 C748.764,263.292 749.268,262.321333 749.268,261.108 C749.268,260.193333 749.025333,259.474667 748.54,258.952 C748.054667,258.429333 747.462,258.051333 746.762,257.818 C746.062,257.584667 745.142667,257.365333 744.004,257.16 C742.977333,256.954667 742.179333,256.763333 741.61,256.586 C741.040667,256.408667 740.56,256.138 740.168,255.774 C739.776,255.41 739.58,254.901333 739.58,254.248 C739.58,253.426667 739.925333,252.764 740.616,252.26 C741.306667,251.756 742.333333,251.504 743.696,251.504 C744.498667,251.504 745.282667,251.616 746.048,251.84 C746.813333,252.064 747.494667,252.390667 748.092,252.82 L748.092,252.82 L748.736,251.7 C748.157333,251.270667 747.410667,250.925333 746.496,250.664 C745.581333,250.402667 744.657333,250.272 743.724,250.272 C741.950667,250.272 740.583333,250.65 739.622,251.406 C738.660667,252.162 738.18,253.118667 738.18,254.276 C738.18,255.228 738.432,255.974667 738.936,256.516 C739.44,257.057333 740.046667,257.449333 740.756,257.692 C741.465333,257.934667 742.398667,258.158667 743.556,258.364 C744.545333,258.550667 745.32,258.728 745.88,258.896 C746.44,259.064 746.911333,259.325333 747.294,259.68 C747.676667,260.034667 747.868,260.52 747.868,261.136 C747.868,261.994667 747.518,262.666667 746.818,263.152 C746.118,263.637333 745.030667,263.88 743.556,263.88 C742.529333,263.88 741.544667,263.712 740.602,263.376 C739.659333,263.04 738.889333,262.62 738.292,262.116 L738.292,262.116 L737.648,263.236 C738.245333,263.777333 739.076,264.225333 740.14,264.58 C741.204,264.934667 742.324,265.112 743.5,265.112 Z M765.984,265.14 C767.533333,265.14 768.84,264.906667 769.904,264.44 C770.968,263.973333 771.756667,263.348 772.27,262.564 C772.783333,261.78 773.04,260.912 773.04,259.96 C773.04,258.802667 772.736667,257.883333 772.13,257.202 C771.523333,256.520667 770.790667,256.012 769.932,255.676 C769.073333,255.34 767.925333,254.994667 766.488,254.64 C765.2,254.322667 764.182667,254.024 763.436,253.744 C762.689333,253.464 762.064,253.062667 761.56,252.54 C761.056,252.017333 760.804,251.317333 760.804,250.44 C760.804,249.282667 761.270667,248.34 762.204,247.612 C763.137333,246.884 764.509333,246.52 766.32,246.52 C767.234667,246.52 768.163333,246.66 769.106,246.94 C770.048667,247.22 770.912,247.630667 771.696,248.172 L771.696,248.172 L772.228,247.024 C771.462667,246.482667 770.557333,246.053333 769.512,245.736 C768.466667,245.418667 767.402667,245.26 766.32,245.26 C764.770667,245.26 763.478,245.493333 762.442,245.96 C761.406,246.426667 760.636,247.056667 760.132,247.85 C759.628,248.643333 759.376,249.516 759.376,250.468 C759.376,251.644 759.679333,252.582 760.286,253.282 C760.892667,253.982 761.63,254.5 762.498,254.836 C763.366,255.172 764.518667,255.517333 765.956,255.872 C767.225333,256.170667 768.233333,256.46 768.98,256.74 C769.726667,257.02 770.352,257.421333 770.856,257.944 C771.36,258.466667 771.612,259.166667 771.612,260.044 C771.612,261.182667 771.136,262.106667 770.184,262.816 C769.232,263.525333 767.822667,263.88 765.956,263.88 C764.668,263.88 763.440667,263.651333 762.274,263.194 C761.107333,262.736667 760.178667,262.144 759.488,261.416 L759.488,261.416 L758.844,262.48 C759.572,263.264 760.584667,263.903333 761.882,264.398 C763.179333,264.892667 764.546667,265.14 765.984,265.14 Z M781.692,265.112 C782.270667,265.112 782.826,265.023333 783.358,264.846 C783.89,264.668667 784.333333,264.412 784.688,264.076 L784.688,264.076 L784.1,263.096 C783.502667,263.637333 782.746667,263.908 781.832,263.908 C780.936,263.908 780.259333,263.660667 779.802,263.166 C779.344667,262.671333 779.116,261.948 779.116,260.996 L779.116,260.996 L779.116,251.588 L783.764,251.588 L783.764,250.384 L779.116,250.384 L779.116,247.192 L777.716,247.192 L777.716,250.384 L775.028,250.384 L775.028,251.588 L777.716,251.588 L777.716,261.136 C777.716,262.386667 778.061333,263.362 778.752,264.062 C779.442667,264.762 780.422667,265.112 781.692,265.112 Z M792.528,265.112 C793.778667,265.112 794.852,264.874 795.748,264.398 C796.644,263.922 797.325333,263.254667 797.792,262.396 L797.792,262.396 L797.792,265 L799.136,265 L799.136,255.732 C799.136,253.94 798.650667,252.582 797.68,251.658 C796.709333,250.734 795.318667,250.272 793.508,250.272 C792.388,250.272 791.314667,250.454 790.288,250.818 C789.261333,251.182 788.384,251.690667 787.656,252.344 L787.656,252.344 L788.356,253.352 C788.972,252.792 789.723333,252.344 790.61,252.008 C791.496667,251.672 792.425333,251.504 793.396,251.504 C794.814667,251.504 795.892667,251.858667 796.63,252.568 C797.367333,253.277333 797.736,254.313333 797.736,255.676 L797.736,255.676 L797.736,256.852 L792.724,256.852 C790.82,256.852 789.434,257.23 788.566,257.986 C787.698,258.742 787.264,259.726667 787.264,260.94 C787.264,262.190667 787.735333,263.198667 788.678,263.964 C789.620667,264.729333 790.904,265.112 792.528,265.112 Z M792.724,263.964 C791.436,263.964 790.437333,263.688667 789.728,263.138 C789.018667,262.587333 788.664,261.836 788.664,260.884 C788.664,259.969333 788.986,259.250667 789.63,258.728 C790.274,258.205333 791.314667,257.944 792.752,257.944 L792.752,257.944 L797.736,257.944 L797.736,260.688 C797.306667,261.752 796.667333,262.564 795.818,263.124 C794.968667,263.684 793.937333,263.964 792.724,263.964 Z M809.16,265.112 C809.738667,265.112 810.294,265.023333 810.826,264.846 C811.358,264.668667 811.801333,264.412 812.156,264.076 L812.156,264.076 L811.568,263.096 C810.970667,263.637333 810.214667,263.908 809.3,263.908 C808.404,263.908 807.727333,263.660667 807.27,263.166 C806.812667,262.671333 806.584,261.948 806.584,260.996 L806.584,260.996 L806.584,251.588 L811.232,251.588 L811.232,250.384 L806.584,250.384 L806.584,247.192 L805.184,247.192 L805.184,250.384 L802.496,250.384 L802.496,251.588 L805.184,251.588 L805.184,261.136 C805.184,262.386667 805.529333,263.362 806.22,264.062 C806.910667,264.762 807.890667,265.112 809.16,265.112 Z M816.748,246.828 C817.065333,246.828 817.336,246.716 817.56,246.492 C817.784,246.268 817.896,245.997333 817.896,245.68 C817.896,245.362667 817.784,245.096667 817.56,244.882 C817.336,244.667333 817.065333,244.56 816.748,244.56 C816.430667,244.56 816.16,244.672 815.936,244.896 C815.712,245.12 815.6,245.390667 815.6,245.708 C815.6,246.025333 815.712,246.291333 815.936,246.506 C816.16,246.720667 816.430667,246.828 816.748,246.828 Z M817.448,265 L817.448,250.384 L816.048,250.384 L816.048,265 L817.448,265 Z M827.052,265.112 C828.881333,265.112 830.3,264.748 831.308,264.02 C832.316,263.292 832.82,262.321333 832.82,261.108 C832.82,260.193333 832.577333,259.474667 832.092,258.952 C831.606667,258.429333 831.014,258.051333 830.314,257.818 C829.614,257.584667 828.694667,257.365333 827.556,257.16 C826.529333,256.954667 825.731333,256.763333 825.162,256.586 C824.592667,256.408667 824.112,256.138 823.72,255.774 C823.328,255.41 823.132,254.901333 823.132,254.248 C823.132,253.426667 823.477333,252.764 824.168,252.26 C824.858667,251.756 825.885333,251.504 827.248,251.504 C828.050667,251.504 828.834667,251.616 829.6,251.84 C830.365333,252.064 831.046667,252.390667 831.644,252.82 L831.644,252.82 L832.288,251.7 C831.709333,251.270667 830.962667,250.925333 830.048,250.664 C829.133333,250.402667 828.209333,250.272 827.276,250.272 C825.502667,250.272 824.135333,250.65 823.174,251.406 C822.212667,252.162 821.732,253.118667 821.732,254.276 C821.732,255.228 821.984,255.974667 822.488,256.516 C822.992,257.057333 823.598667,257.449333 824.308,257.692 C825.017333,257.934667 825.950667,258.158667 827.108,258.364 C828.097333,258.550667 828.872,258.728 829.432,258.896 C829.992,259.064 830.463333,259.325333 830.846,259.68 C831.228667,260.034667 831.42,260.52 831.42,261.136 C831.42,261.994667 831.07,262.666667 830.37,263.152 C829.67,263.637333 828.582667,263.88 827.108,263.88 C826.081333,263.88 825.096667,263.712 824.154,263.376 C823.211333,263.04 822.441333,262.62 821.844,262.116 L821.844,262.116 L821.2,263.236 C821.797333,263.777333 822.628,264.225333 823.692,264.58 C824.756,264.934667 825.876,265.112 827.052,265.112 Z M840.996,265.112 C841.574667,265.112 842.13,265.023333 842.662,264.846 C843.194,264.668667 843.637333,264.412 843.992,264.076 L843.992,264.076 L843.404,263.096 C842.806667,263.637333 842.050667,263.908 841.136,263.908 C840.24,263.908 839.563333,263.660667 839.106,263.166 C838.648667,262.671333 838.42,261.948 838.42,260.996 L838.42,260.996 L838.42,251.588 L843.068,251.588 L843.068,250.384 L838.42,250.384 L838.42,247.192 L837.02,247.192 L837.02,250.384 L834.332,250.384 L834.332,251.588 L837.02,251.588 L837.02,261.136 C837.02,262.386667 837.365333,263.362 838.056,264.062 C838.746667,264.762 839.726667,265.112 840.996,265.112 Z M848.584,246.828 C848.901333,246.828 849.172,246.716 849.396,246.492 C849.62,246.268 849.732,245.997333 849.732,245.68 C849.732,245.362667 849.62,245.096667 849.396,244.882 C849.172,244.667333 848.901333,244.56 848.584,244.56 C848.266667,244.56 847.996,244.672 847.772,244.896 C847.548,245.12 847.436,245.390667 847.436,245.708 C847.436,246.025333 847.548,246.291333 847.772,246.506 C847.996,246.720667 848.266667,246.828 848.584,246.828 Z M849.284,265 L849.284,250.384 L847.884,250.384 L847.884,265 L849.284,265 Z M860.988,265.112 C862.164,265.112 863.232667,264.883333 864.194,264.426 C865.155333,263.968667 865.934667,263.301333 866.532,262.424 L866.532,262.424 L865.496,261.668 C864.973333,262.396 864.324667,262.942 863.55,263.306 C862.775333,263.67 861.921333,263.852 860.988,263.852 C859.849333,263.852 858.827333,263.595333 857.922,263.082 C857.016667,262.568667 856.307333,261.845333 855.794,260.912 C855.280667,259.978667 855.024,258.905333 855.024,257.692 C855.024,256.478667 855.280667,255.405333 855.794,254.472 C856.307333,253.538667 857.016667,252.815333 857.922,252.302 C858.827333,251.788667 859.849333,251.532 860.988,251.532 C861.921333,251.532 862.775333,251.714 863.55,252.078 C864.324667,252.442 864.973333,252.988 865.496,253.716 L865.496,253.716 L866.532,252.96 C865.934667,252.082667 865.155333,251.415333 864.194,250.958 C863.232667,250.500667 862.164,250.272 860.988,250.272 C859.569333,250.272 858.3,250.584667 857.18,251.21 C856.06,251.835333 855.182667,252.712667 854.548,253.842 C853.913333,254.971333 853.596,256.254667 853.596,257.692 C853.596,259.110667 853.913333,260.384667 854.548,261.514 C855.182667,262.643333 856.06,263.525333 857.18,264.16 C858.3,264.794667 859.569333,265.112 860.988,265.112 Z M874.428,265.112 C876.257333,265.112 877.676,264.748 878.684,264.02 C879.692,263.292 880.196,262.321333 880.196,261.108 C880.196,260.193333 879.953333,259.474667 879.468,258.952 C878.982667,258.429333 878.39,258.051333 877.69,257.818 C876.99,257.584667 876.070667,257.365333 874.932,257.16 C873.905333,256.954667 873.107333,256.763333 872.538,256.586 C871.968667,256.408667 871.488,256.138 871.096,255.774 C870.704,255.41 870.508,254.901333 870.508,254.248 C870.508,253.426667 870.853333,252.764 871.544,252.26 C872.234667,251.756 873.261333,251.504 874.624,251.504 C875.426667,251.504 876.210667,251.616 876.976,251.84 C877.741333,252.064 878.422667,252.390667 879.02,252.82 L879.02,252.82 L879.664,251.7 C879.085333,251.270667 878.338667,250.925333 877.424,250.664 C876.509333,250.402667 875.585333,250.272 874.652,250.272 C872.878667,250.272 871.511333,250.65 870.55,251.406 C869.588667,252.162 869.108,253.118667 869.108,254.276 C869.108,255.228 869.36,255.974667 869.864,256.516 C870.368,257.057333 870.974667,257.449333 871.684,257.692 C872.393333,257.934667 873.326667,258.158667 874.484,258.364 C875.473333,258.550667 876.248,258.728 876.808,258.896 C877.368,259.064 877.839333,259.325333 878.222,259.68 C878.604667,260.034667 878.796,260.52 878.796,261.136 C878.796,261.994667 878.446,262.666667 877.746,263.152 C877.046,263.637333 875.958667,263.88 874.484,263.88 C873.457333,263.88 872.472667,263.712 871.53,263.376 C870.587333,263.04 869.817333,262.62 869.22,262.116 L869.22,262.116 L868.576,263.236 C869.173333,263.777333 870.004,264.225333 871.068,264.58 C872.132,264.934667 873.252,265.112 874.428,265.112 Z M893.188,265 L893.188,258.588 L898.788,258.588 C899.366667,258.588 900.001333,258.541333 900.692,258.448 L900.692,258.448 L905.368,265 L906.992,265 L902.092,258.14 C903.566667,257.710667 904.700667,256.968667 905.494,255.914 C906.287333,254.859333 906.684,253.557333 906.684,252.008 C906.684,249.936 905.984,248.316667 904.584,247.15 C903.184,245.983333 901.252,245.4 898.788,245.4 L898.788,245.4 L891.76,245.4 L891.76,265 L893.188,265 Z M898.788,257.328 L893.188,257.328 L893.188,246.688 L898.788,246.688 C900.878667,246.688 902.474667,247.15 903.576,248.074 C904.677333,248.998 905.228,250.309333 905.228,252.008 C905.228,253.706667 904.677333,255.018 903.576,255.942 C902.474667,256.866 900.878667,257.328 898.788,257.328 L898.788,257.328 Z M917.408,265.112 C918.528,265.112 919.568667,264.906667 920.53,264.496 C921.491333,264.085333 922.289333,263.497333 922.924,262.732 L922.924,262.732 L922.112,261.808 C921.570667,262.48 920.894,262.988667 920.082,263.334 C919.27,263.679333 918.388,263.852 917.436,263.852 C916.278667,263.852 915.238,263.609333 914.314,263.124 C913.39,262.638667 912.657333,261.952667 912.116,261.066 C911.574667,260.179333 911.285333,259.166667 911.248,258.028 L911.248,258.028 L923.82,258.028 L923.848,257.636 C923.848,256.217333 923.544667,254.948 922.938,253.828 C922.331333,252.708 921.500667,251.835333 920.446,251.21 C919.391333,250.584667 918.201333,250.272 916.876,250.272 C915.550667,250.272 914.356,250.589333 913.292,251.224 C912.228,251.858667 911.392667,252.740667 910.786,253.87 C910.179333,254.999333 909.876,256.273333 909.876,257.692 C909.876,259.129333 910.198,260.408 910.842,261.528 C911.486,262.648 912.377333,263.525333 913.516,264.16 C914.654667,264.794667 915.952,265.112 917.408,265.112 Z M922.476,256.936 L911.276,256.936 C911.350667,255.890667 911.635333,254.952667 912.13,254.122 C912.624667,253.291333 913.282667,252.647333 914.104,252.19 C914.925333,251.732667 915.849333,251.504 916.876,251.504 C917.902667,251.504 918.826667,251.737333 919.648,252.204 C920.469333,252.670667 921.132,253.314667 921.636,254.136 C922.14,254.957333 922.42,255.890667 922.476,256.936 L922.476,256.936 Z M929.588,270.432 L929.588,261.668 C930.166667,262.750667 930.978667,263.595333 932.024,264.202 C933.069333,264.808667 934.236,265.112 935.524,265.112 C936.886667,265.112 938.118667,264.799333 939.22,264.174 C940.321333,263.548667 941.184667,262.671333 941.81,261.542 C942.435333,260.412667 942.748,259.129333 942.748,257.692 C942.748,256.254667 942.435333,254.976 941.81,253.856 C941.184667,252.736 940.321333,251.858667 939.22,251.224 C938.118667,250.589333 936.886667,250.272 935.524,250.272 C934.217333,250.272 933.036667,250.584667 931.982,251.21 C930.927333,251.835333 930.110667,252.708 929.532,253.828 L929.532,253.828 L929.532,250.384 L928.188,250.384 L928.188,270.432 L929.588,270.432 Z M935.44,263.852 C934.32,263.852 933.316667,263.590667 932.43,263.068 C931.543333,262.545333 930.843333,261.817333 930.33,260.884 C929.816667,259.950667 929.56,258.886667 929.56,257.692 C929.56,256.497333 929.816667,255.433333 930.33,254.5 C930.843333,253.566667 931.543333,252.838667 932.43,252.316 C933.316667,251.793333 934.32,251.532 935.44,251.532 C936.56,251.532 937.568,251.793333 938.464,252.316 C939.36,252.838667 940.064667,253.566667 940.578,254.5 C941.091333,255.433333 941.348,256.497333 941.348,257.692 C941.348,258.886667 941.091333,259.950667 940.578,260.884 C940.064667,261.817333 939.36,262.545333 938.464,263.068 C937.568,263.590667 936.56,263.852 935.44,263.852 Z M952.8,265.112 C954.181333,265.112 955.427333,264.794667 956.538,264.16 C957.648667,263.525333 958.521333,262.643333 959.156,261.514 C959.790667,260.384667 960.108,259.110667 960.108,257.692 C960.108,256.273333 959.790667,254.999333 959.156,253.87 C958.521333,252.740667 957.648667,251.858667 956.538,251.224 C955.427333,250.589333 954.181333,250.272 952.8,250.272 C951.418667,250.272 950.172667,250.589333 949.062,251.224 C947.951333,251.858667 947.078667,252.740667 946.444,253.87 C945.809333,254.999333 945.492,256.273333 945.492,257.692 C945.492,259.110667 945.809333,260.384667 946.444,261.514 C947.078667,262.643333 947.951333,263.525333 949.062,264.16 C950.172667,264.794667 951.418667,265.112 952.8,265.112 Z M952.8,263.852 C951.68,263.852 950.676667,263.590667 949.79,263.068 C948.903333,262.545333 948.203333,261.817333 947.69,260.884 C947.176667,259.950667 946.92,258.886667 946.92,257.692 C946.92,256.497333 947.176667,255.433333 947.69,254.5 C948.203333,253.566667 948.903333,252.838667 949.79,252.316 C950.676667,251.793333 951.68,251.532 952.8,251.532 C953.92,251.532 954.923333,251.793333 955.81,252.316 C956.696667,252.838667 957.396667,253.566667 957.91,254.5 C958.423333,255.433333 958.68,256.497333 958.68,257.692 C958.68,258.886667 958.423333,259.950667 957.91,260.884 C957.396667,261.817333 956.696667,262.545333 955.81,263.068 C954.923333,263.590667 953.92,263.852 952.8,263.852 Z M965.848,265 L965.848,257.384 C965.848,255.573333 966.305333,254.159333 967.22,253.142 C968.134667,252.124667 969.404,251.616 971.028,251.616 L971.028,251.616 L971.364,251.644 L971.364,250.272 C970.001333,250.272 968.844,250.556667 967.892,251.126 C966.94,251.695333 966.24,252.512 965.792,253.576 L965.792,253.576 L965.792,250.384 L964.448,250.384 L964.448,265 L965.848,265 Z M979.736,265.112 C980.314667,265.112 980.87,265.023333 981.402,264.846 C981.934,264.668667 982.377333,264.412 982.732,264.076 L982.732,264.076 L982.144,263.096 C981.546667,263.637333 980.790667,263.908 979.876,263.908 C978.98,263.908 978.303333,263.660667 977.846,263.166 C977.388667,262.671333 977.16,261.948 977.16,260.996 L977.16,260.996 L977.16,251.588 L981.808,251.588 L981.808,250.384 L977.16,250.384 L977.16,247.192 L975.76,247.192 L975.76,250.384 L973.072,250.384 L973.072,251.588 L975.76,251.588 L975.76,261.136 C975.76,262.386667 976.105333,263.362 976.796,264.062 C977.486667,264.762 978.466667,265.112 979.736,265.112 Z M986.288,269.004 L987.38,265.196 C987.454667,264.934667 987.515333,264.701333 987.562,264.496 C987.608667,264.290667 987.632,264.094667 987.632,263.908 C987.632,263.590667 987.52,263.315333 987.296,263.082 C987.072,262.848667 986.792,262.732 986.456,262.732 C986.12,262.732 985.84,262.844 985.616,263.068 C985.392,263.292 985.28,263.572 985.28,263.908 C985.28,264.206667 985.364,264.454 985.532,264.65 C985.7,264.846 985.924,264.981333 986.204,265.056 L986.204,265.056 L985.28,269.004 L986.288,269.004 Z M1011.068,265 L1011.068,263.712 L999.7,263.712 L1006.924,256.516 C1008.156,255.302667 1008.996,254.238667 1009.444,253.324 C1009.892,252.409333 1010.116,251.448 1010.116,250.44 C1010.116,248.853333 1009.54667,247.593333 1008.408,246.66 C1007.26933,245.726667 1005.73867,245.26 1003.816,245.26 C1002.36,245.26 1001.058,245.493333 999.91,245.96 C998.762,246.426667 997.814667,247.089333 997.068,247.948 L997.068,247.948 L998.076,248.844 C998.748,248.078667 999.546,247.509333 1000.47,247.136 C1001.394,246.762667 1002.472,246.576 1003.704,246.576 C1005.30933,246.576 1006.53667,246.930667 1007.386,247.64 C1008.23533,248.349333 1008.66,249.329333 1008.66,250.58 C1008.66,251.401333 1008.46867,252.199333 1008.086,252.974 C1007.70333,253.748667 1006.97067,254.677333 1005.888,255.76 L1005.888,255.76 L997.6,263.992 L997.6,265 L1011.068,265 Z M1021.428,265.14 C1022.92133,265.14 1024.25133,264.734 1025.418,263.922 C1026.58467,263.11 1027.49,261.957333 1028.134,260.464 C1028.778,258.970667 1029.1,257.216 1029.1,255.2 C1029.1,253.184 1028.778,251.429333 1028.134,249.936 C1027.49,248.442667 1026.58467,247.29 1025.418,246.478 C1024.25133,245.666 1022.92133,245.26 1021.428,245.26 C1019.93467,245.26 1018.60467,245.666 1017.438,246.478 C1016.27133,247.29 1015.366,248.442667 1014.722,249.936 C1014.078,251.429333 1013.756,253.184 1013.756,255.2 C1013.756,257.216 1014.078,258.970667 1014.722,260.464 C1015.366,261.957333 1016.27133,263.11 1017.438,263.922 C1018.60467,264.734 1019.93467,265.14 1021.428,265.14 Z M1021.428,263.824 C1020.196,263.824 1019.10867,263.483333 1018.166,262.802 C1017.22333,262.120667 1016.49067,261.131333 1015.968,259.834 C1015.44533,258.536667 1015.184,256.992 1015.184,255.2 C1015.184,253.408 1015.44533,251.863333 1015.968,250.566 C1016.49067,249.268667 1017.22333,248.279333 1018.166,247.598 C1019.10867,246.916667 1020.196,246.576 1021.428,246.576 C1022.66,246.576 1023.74733,246.916667 1024.69,247.598 C1025.63267,248.279333 1026.36533,249.268667 1026.888,250.566 C1027.41067,251.863333 1027.672,253.408 1027.672,255.2 C1027.672,256.992 1027.41067,258.536667 1026.888,259.834 C1026.36533,261.131333 1025.63267,262.120667 1024.69,262.802 C1023.74733,263.483333 1022.66,263.824 1021.428,263.824 Z M1037.108,265 L1037.108,245.4 L1030.892,245.4 L1030.892,246.688 L1035.68,246.688 L1035.68,265 L1037.108,265 Z M1047.104,265 L1055.532,246.408 L1055.532,245.4 L1041.476,245.4 L1041.476,250.44 L1042.876,250.44 L1042.876,246.688 L1053.88,246.688 L1045.536,265 L1047.104,265 Z M1059.424,269.004 L1060.516,265.196 C1060.59067,264.934667 1060.65133,264.701333 1060.698,264.496 C1060.74467,264.290667 1060.768,264.094667 1060.768,263.908 C1060.768,263.590667 1060.656,263.315333 1060.432,263.082 C1060.208,262.848667 1059.928,262.732 1059.592,262.732 C1059.256,262.732 1058.976,262.844 1058.752,263.068 C1058.528,263.292 1058.416,263.572 1058.416,263.908 C1058.416,264.206667 1058.5,264.454 1058.668,264.65 C1058.836,264.846 1059.06,264.981333 1059.34,265.056 L1059.34,265.056 L1058.416,269.004 L1059.424,269.004 Z M1081.292,265.14 C1082.692,265.14 1083.994,264.906667 1085.198,264.44 C1086.402,263.973333 1087.424,263.292 1088.264,262.396 L1088.264,262.396 L1087.368,261.472 C1085.78133,263.04 1083.77467,263.824 1081.348,263.824 C1079.70533,263.824 1078.212,263.450667 1076.868,262.704 C1075.524,261.957333 1074.46933,260.926 1073.704,259.61 C1072.93867,258.294 1072.556,256.824 1072.556,255.2 C1072.556,253.576 1072.93867,252.106 1073.704,250.79 C1074.46933,249.474 1075.524,248.442667 1076.868,247.696 C1078.212,246.949333 1079.70533,246.576 1081.348,246.576 C1083.79333,246.576 1085.8,247.350667 1087.368,248.9 L1087.368,248.9 L1088.264,247.976 C1087.424,247.08 1086.40667,246.403333 1085.212,245.946 C1084.01733,245.488667 1082.71067,245.26 1081.292,245.26 C1079.36933,245.26 1077.638,245.689333 1076.098,246.548 C1074.558,247.406667 1073.34467,248.592 1072.458,250.104 C1071.57133,251.616 1071.128,253.314667 1071.128,255.2 C1071.128,257.085333 1071.57133,258.784 1072.458,260.296 C1073.34467,261.808 1074.558,262.993333 1076.098,263.852 C1077.638,264.710667 1079.36933,265.14 1081.292,265.14 Z M1100.808,265 C1102.84267,265 1104.64867,264.58 1106.226,263.74 C1107.80333,262.9 1109.03067,261.738 1109.908,260.254 C1110.78533,258.77 1111.224,257.085333 1111.224,255.2 C1111.224,253.314667 1110.78533,251.63 1109.908,250.146 C1109.03067,248.662 1107.80333,247.5 1106.226,246.66 C1104.64867,245.82 1102.84267,245.4 1100.808,245.4 L1100.808,245.4 L1093.052,245.4 L1093.052,265 L1100.808,265 Z M1100.696,263.712 L1094.48,263.712 L1094.48,246.688 L1100.696,246.688 C1102.50667,246.688 1104.10267,247.047333 1105.484,247.766 C1106.86533,248.484667 1107.92933,249.488 1108.676,250.776 C1109.42267,252.064 1109.796,253.538667 1109.796,255.2 C1109.796,256.861333 1109.42267,258.336 1108.676,259.624 C1107.92933,260.912 1106.86533,261.915333 1105.484,262.634 C1104.10267,263.352667 1102.50667,263.712 1100.696,263.712 L1100.696,263.712 Z M1124.468,265.14 C1125.868,265.14 1127.17,264.906667 1128.374,264.44 C1129.578,263.973333 1130.6,263.292 1131.44,262.396 L1131.44,262.396 L1130.544,261.472 C1128.95733,263.04 1126.95067,263.824 1124.524,263.824 C1122.88133,263.824 1121.388,263.450667 1120.044,262.704 C1118.7,261.957333 1117.64533,260.926 1116.88,259.61 C1116.11467,258.294 1115.732,256.824 1115.732,255.2 C1115.732,253.576 1116.11467,252.106 1116.88,250.79 C1117.64533,249.474 1118.7,248.442667 1120.044,247.696 C1121.388,246.949333 1122.88133,246.576 1124.524,246.576 C1126.96933,246.576 1128.976,247.350667 1130.544,248.9 L1130.544,248.9 L1131.44,247.976 C1130.6,247.08 1129.58267,246.403333 1128.388,245.946 C1127.19333,245.488667 1125.88667,245.26 1124.468,245.26 C1122.54533,245.26 1120.814,245.689333 1119.274,246.548 C1117.734,247.406667 1116.52067,248.592 1115.634,250.104 C1114.74733,251.616 1114.304,253.314667 1114.304,255.2 C1114.304,257.085333 1114.74733,258.784 1115.634,260.296 C1116.52067,261.808 1117.734,262.993333 1119.274,263.852 C1120.814,264.710667 1122.54533,265.14 1124.468,265.14 Z" id="NationalDiabetesStatisticsReport,2017,CDC" fill="#232323" fill-rule="nonzero"></path>
        <g id="Group" transform="translate(70.000000, 84.000000)" fill-rule="nonzero">
            <g id="user-(1)" fill="#185799">
                <path d="M50.3461538,0 C33.4012077,0 19.6153846,13.7402652 19.6153846,30.6292135 C19.6153846,47.5181618 33.4012077,61.258427 50.3461538,61.258427 C67.2911,61.258427 81.0769231,47.5181618 81.0769231,30.6292135 C81.0769231,13.7402652 67.2911,0 50.3461538,0 Z" id="Path"></path>
                <path d="M89.0722933,81.0131938 C80.6946933,72.4765086 69.5887067,67.7752809 57.8,67.7752809 L44.2,67.7752809 C32.41152,67.7752809 21.3053067,72.4765086 12.9277067,81.0131938 C4.59113333,89.5080235 0,100.721181 0,112.587874 C0,114.472277 1.52229333,116 3.4,116 L98.6,116 C100.477707,116 102,114.472277 102,112.587874 C102,100.721181 97.4088667,89.5080235 89.0722933,81.0131938 Z" id="Path"></path>
            </g>
            <g id="user-(1)-copy" transform="translate(123.000000, 0.000000)" fill="#C5CFDA">
                <path d="M50.3461538,0 C33.4012077,0 19.6153846,13.7402652 19.6153846,30.6292135 C19.6153846,47.5181618 33.4012077,61.258427 50.3461538,61.258427 C67.2911,61.258427 81.0769231,47.5181618 81.0769231,30.6292135 C81.0769231,13.7402652 67.2911,0 50.3461538,0 Z" id="Path"></path>
                <path d="M89.0722933,81.0131938 C80.6946933,72.4765086 69.5887067,67.7752809 57.8,67.7752809 L44.2,67.7752809 C32.41152,67.7752809 21.3053067,72.4765086 12.9277067,81.0131938 C4.59113333,89.5080235 0,100.721181 0,112.587874 C0,114.472277 1.52229333,116 3.4,116 L98.6,116 C100.477707,116 102,114.472277 102,112.587874 C102,100.721181 97.4088667,89.5080235 89.0722933,81.0131938 Z" id="Path"></path>
            </g>
            <g id="user-(1)-copy-2" transform="translate(247.000000, 0.000000)" fill="#C5CFDA">
                <path d="M50.3461538,0 C33.4012077,0 19.6153846,13.7402652 19.6153846,30.6292135 C19.6153846,47.5181618 33.4012077,61.258427 50.3461538,61.258427 C67.2911,61.258427 81.0769231,47.5181618 81.0769231,30.6292135 C81.0769231,13.7402652 67.2911,0 50.3461538,0 Z" id="Path"></path>
                <path d="M89.0722933,81.0131938 C80.6946933,72.4765086 69.5887067,67.7752809 57.8,67.7752809 L44.2,67.7752809 C32.41152,67.7752809 21.3053067,72.4765086 12.9277067,81.0131938 C4.59113333,89.5080235 0,100.721181 0,112.587874 C0,114.472277 1.52229333,116 3.4,116 L98.6,116 C100.477707,116 102,114.472277 102,112.587874 C102,100.721181 97.4088667,89.5080235 89.0722933,81.0131938 Z" id="Path"></path>
            </g>
        </g>
    </g>
</svg>