<?xml version="1.0" encoding="UTF-8"?>
<svg width="1698px" height="474px" viewBox="0 0 1698 474" version="1.1" xmlns="http://www.w3.org/2000/svg" xmlns:xlink="http://www.w3.org/1999/xlink">
    <!-- Generator: Sketch 62 (91390) - https://sketch.com -->
    <title>problems copy</title>
    <desc>Created with Sketch.</desc>
    <g id="problems-copy" stroke="none" stroke-width="1" fill="none" fill-rule="evenodd">
        <rect fill="#FFFFFF" x="0" y="0" width="1698" height="474"></rect>
        <rect id="Rectangle" fill="#FFFFFF" x="0" y="0" width="1698" height="474"></rect>
        <g id="apple" transform="translate(776.000000, 116.000000)">
            <path d="M67.3560163,50.0156134 C52.1574674,45.347756 40.5411651,46.8708315 32.5071096,54.5848399 C20.4560263,66.1558524 13.104,76.1276357 13.104,98.7352425 C13.104,113.80698 23.3414828,133.778056 43.8164484,158.64847 C51.800182,162.860747 57.7193768,164.966885 61.5740326,164.966885 C65.4286884,164.966885 69.9469221,163.967828 75.1287336,161.969714 C77.0369392,161.969714 79.3665066,161.969714 82.1174359,161.969714 C86.2438299,161.969714 97.2240636,164.966885 100.831136,164.966885 C104.438208,164.966885 117.718152,156.214904 120.179898,153.239875 C121.821062,151.256522 125.603925,146.493724 131.528488,138.951481 C140.702501,122.055589 145.289508,111.128909 145.289508,106.171443 C145.289508,98.7352425 147.673759,86.4567043 140.817906,70.5207721 C136.247338,59.8968173 127.64526,53.0617644 115.011673,50.0156134 C101.988805,53.0617644 92.3260247,54.5848399 86.0233331,54.5848399 C79.7206416,54.5848399 73.4982027,53.0617644 67.3560163,50.0156134 Z" id="Path-2" fill="#D9E6F3"></path>
            <path d="M133.609543,66.7930112 C132.915534,65.4014499 131.224976,64.835675 129.833736,65.5293614 C128.442175,66.2230478 127.8764,67.9132842 128.569764,69.3048455 C132.076215,76.3390125 133.854089,84.3742401 133.854089,93.186925 C133.854089,105.655559 128.126424,122.160978 118.906484,136.261854 C109.460041,150.708445 98.477049,159.33329 89.5267868,159.33329 C85.7976988,159.33329 81.796678,158.744962 78.260585,157.676884 C72.7439577,156.010491 66.9115791,156.010491 61.3949518,157.676884 C57.8585366,158.745284 53.8571936,159.33329 50.1281056,159.33329 C41.1778434,159.33329 30.1948513,150.708123 20.7484084,136.261854 C11.5281465,122.160978 5.80080352,105.655559 5.80080352,93.186925 C5.80080352,81.407144 9.0598086,70.8191632 15.225015,62.5674203 C20.4120365,55.625079 27.6427426,50.5401934 35.0619329,48.6163655 C40.6053024,47.1790524 47.9146242,47.5605316 56.2014863,49.7179511 C57.1071772,49.953798 58.0338108,50.1696688 58.9546449,50.3587974 C60.4773397,50.6710046 61.9658818,49.6905645 62.2790556,48.1675475 C62.5922294,46.6445304 61.6108226,45.1563105 60.0878056,44.8431367 C59.2623413,44.6733398 58.4323663,44.4806671 57.6207565,44.269307 C48.2761273,41.8360883 40.2109354,41.4652416 33.6487845,43.1661104 C24.8857177,45.4379092 16.7409437,51.1314217 10.7139591,59.1972579 C3.8160807,68.429441 0.169796904,80.182802 0.169796904,93.186925 C0.169796904,106.690451 6.24897713,124.376715 16.0356582,139.34333 C26.6822785,155.625467 39.1083832,164.963975 50.1277834,164.963975 C54.4548658,164.963975 58.9140483,164.307985 63.0223601,163.067211 C67.4734876,161.72269 72.1797938,161.72269 76.6315658,163.067211 C80.7401998,164.308307 85.19906,164.963975 89.5261424,164.963975 C100.545543,164.963975 112.971647,155.625467 123.618268,139.34333 C133.404304,124.376393 139.484129,106.690451 139.484129,93.186925 C139.484129,83.4946471 137.508105,74.6143012 133.609543,66.7930112 Z" id="Path" fill="#185799" fill-rule="nonzero"></path>
            <path d="M127.731412,57.6462099 C121.853282,50.4171148 114.137672,45.2745562 106.005786,43.1661104 C99.443957,41.4649194 91.378443,41.8357661 82.0334916,44.269307 C80.0091387,44.7967406 77.9303349,45.1962627 75.854753,45.4569187 C74.3120821,45.6505581 73.2185514,47.0582292 73.4121907,48.6012223 C73.6058301,50.1438932 75.0157565,51.2387127 76.5564943,51.0437846 C78.8734004,50.7528422 81.1935285,50.306924 83.4530839,49.7182733 C91.7409126,47.5605316 99.0505566,47.180019 104.592959,48.6166876 C111.57042,50.4261362 118.23664,54.8943402 123.362445,61.1984127 C123.918876,61.8827554 124.730486,62.2378146 125.548539,62.2378146 C126.172954,62.2378146 126.800912,62.0312874 127.322869,61.6069563 C128.52949,60.6258717 128.712175,58.852509 127.731412,57.6462099 Z" id="Path" fill="#185799" fill-rule="nonzero"></path>
            <path d="M146.741255,2.11714507 C145.811077,1.52237262 144.619277,1.52623896 143.692321,2.12681093 C139.649415,4.74883598 135.107428,3.78708312 128.231782,2.33172712 C127.634109,2.20510438 127.02516,2.07654847 126.403968,1.94734817 C124.881917,1.63127462 123.39112,2.60913724 123.075046,4.13183205 C122.758973,5.65452687 123.736835,7.14467996 125.25953,7.46075351 C125.873312,7.58802064 126.475173,7.71560997 127.065435,7.84062173 C132.230547,8.93415245 136.901412,9.92296971 141.302277,9.06335275 C139.185132,16.6281753 133.618886,30.6636454 120.687902,35.6463951 C109.752917,39.8597426 99.4774653,33.9526146 91.2208895,29.2063562 C87.9084,27.3021822 84.9819004,25.6200007 82.3811403,24.8886175 C85.3108618,18.6708933 92.5779759,6.78736541 105.64686,5.79468181 C109.449731,5.50567266 113.231659,5.59943148 117.207871,6.08046901 C118.752797,6.26605348 120.154346,5.16704544 120.34122,3.62373012 C120.528093,2.08009262 119.427796,0.677254443 117.884481,0.490381191 C113.538389,-0.0354414789 109.39528,-0.136932987 105.220918,0.179784957 C96.285799,0.858328181 88.2908458,5.73668666 82.1008304,14.2864602 C78.1371842,19.7615243 76.1205641,25.0568034 75.6082736,26.5121594 L68.1977826,37.7657956 C66.1122126,31.4585011 64.0433968,27.5051652 63.8771441,27.1919914 C63.147694,25.8187952 61.4432811,25.2968389 60.0700849,26.0259668 C58.6968887,26.7550947 58.1749323,28.4595076 58.9040602,29.8327038 C58.9739766,29.9638373 65.4684665,42.3673883 66.7791568,58.6202062 C64.621093,58.3782375 62.6373367,57.8830234 61.091766,57.1828931 C59.2262555,56.3377749 58.6466262,55.4804133 58.6466262,55.2638981 C58.6466262,53.7089838 57.3861983,52.4485559 55.831284,52.4485559 C54.2763696,52.4485559 53.0159418,53.7089838 53.0159418,55.2638981 C53.0159418,56.9225593 53.7634348,60.0443092 58.768416,62.3115973 C61.7683761,63.6709391 65.695292,64.4193987 69.825513,64.4193987 C73.9573451,64.4193987 77.8852275,63.6709391 80.885832,62.3119195 C85.8911354,60.0446314 86.6389507,56.9228815 86.6389507,55.2642203 C86.6389507,53.709306 85.3785228,52.4488781 83.8236084,52.4488781 C82.2686941,52.4488781 81.0082662,53.709306 81.0082662,55.2642203 C81.0082662,55.4807355 80.428637,56.3377749 78.5628042,57.1828931 C76.9115535,57.9310305 74.7589669,58.4439654 72.4288508,58.6653135 C72.059615,53.6622655 71.2389837,49.0113768 70.2408227,44.9014541 L79.9595207,30.1429778 C80.2910596,30.1568322 80.8903428,30.2605791 81.9001027,30.6594569 C83.6747542,31.3615203 85.8714815,32.6242036 88.4152131,34.0863257 C95.0192494,37.8824303 103.451744,42.731469 112.927507,42.7305024 C116.083087,42.7305024 119.355946,42.1921141 122.712899,40.8985001 C143.781247,32.7801461 147.848318,6.02215166 148.011349,4.88705775 C148.168258,3.7957824 147.671433,2.71159533 146.741255,2.11714507 Z" id="Path" fill="#185799" fill-rule="nonzero"></path>
        </g>
        <g id="protest-copy" transform="translate(1281.000000, 125.000000)" fill-rule="nonzero">
            <path d="M51.2544614,100.615173 L51.2544614,149.053686 L39.2581325,149.053686 C32.6311373,149.053686 27.2582554,143.684675 27.2582554,137.057357 L27.2582554,100.615173 L51.2544614,100.615173 Z" id="Path" fill-opacity="0.324956294" fill="#1A66B4"></path>
            <polygon id="Path" fill-opacity="0.165947334" fill="#1A66B4" points="73.6481894 47.9985408 73.6481894 88.9365658 152.045752 118.069862 152.045752 18.8655667"></polygon>
            <g id="Group" fill="#185799">
                <path d="M163.830482,50.7561062 L155.898086,46.1880115 C154.636554,45.461929 153.025367,45.8957722 152.299284,47.1566592 C151.572879,48.4178688 152.006723,50.0293786 153.26761,50.7554611 L159.88009,54.5632819 L159.88009,67.1208653 L153.26761,70.9283635 C152.0064,71.6547686 151.572879,73.2662784 152.299284,74.5271654 C152.786995,75.374208 153.673713,75.8480486 154.585267,75.8480486 C155.031368,75.8477261 155.483919,75.7345075 155.898086,75.4958131 L163.830482,70.9277184 C164.647204,70.4571034 165.15072,69.5865139 165.15072,68.6439936 L165.15072,53.0395085 C165.15072,52.0973107 164.647204,51.2267213 163.830482,50.7561062 Z" id="Path"></path>
                <path d="M144.041426,0.28094976 C142.585713,0.28094976 141.406111,1.46087424 141.406111,2.91626496 L141.406111,9.40810752 L65.170345,37.7382298 L10.958976,37.7382298 C4.91613696,37.7379072 0,42.6540442 0,48.6972058 L0,72.9875866 C0,79.0304256 4.91613696,83.9465626 10.958976,83.9465626 L17.4243686,83.9465626 L17.4243686,130.236826 C17.4243686,138.305987 23.9894323,144.87105 32.0585933,144.87105 L44.0571802,144.87105 C45.5125709,144.87105 46.6924954,143.691126 46.6924954,142.235735 L46.6924954,108.917868 L48.2188493,108.917868 C49.67424,108.917868 50.8541645,107.737943 50.8541645,106.282552 C50.8541645,104.827162 49.67424,103.647237 48.2188493,103.647237 L46.6924954,103.647237 L46.6924954,96.432215 L48.2188493,96.432215 C49.67424,96.432215 50.8541645,95.2522906 50.8541645,93.7968998 C50.8541645,92.3415091 49.67424,91.1615846 48.2188493,91.1615846 L46.6924954,91.1615846 L46.6924954,83.9468851 L55.1022797,83.9468851 C56.5576704,83.9468851 57.7375949,82.7669606 57.7375949,81.3115699 C57.7375949,79.8561792 56.5576704,78.6762547 55.1022797,78.6762547 L10.958976,78.6762547 C7.82240256,78.6762547 5.2706304,76.1244826 5.2706304,72.9879091 L5.2706304,48.6975283 C5.2706304,45.5609549 7.82240256,43.0088602 10.958976,43.0088602 L63.0082253,43.0088602 L63.0082253,81.3115699 C63.0082253,82.4127898 63.6930202,83.3982106 64.7258573,83.7817344 L141.405788,112.276685 L141.405788,118.768527 C141.405788,120.223918 142.58539,121.403843 144.041103,121.403843 C145.496817,121.403843 146.676419,120.223918 146.676419,118.768527 L146.676419,2.91658752 C146.676419,1.4611968 145.496817,0.28094976 144.041426,0.28094976 Z M41.421865,139.600097 L32.0585933,139.600097 C26.8956979,139.600097 22.6953216,135.399721 22.6953216,130.236826 L22.6953216,96.432215 L41.421865,96.432215 C41.421865,96.432215 41.421865,139.600097 41.421865,139.600097 Z M41.421865,91.1619072 L22.6953216,91.1619072 L22.6953216,83.9468851 L41.421865,83.9468851 C41.421865,83.9468851 41.421865,91.1619072 41.421865,91.1619072 Z M68.2791782,79.4794291 L68.2791782,42.2053632 L141.405788,15.031296 L141.405788,106.654141 L68.2791782,79.4794291 Z" id="Shape"></path>
            </g>
        </g>
        <g id="Group-2" transform="translate(275.000000, 116.000000)">
            <circle id="Oval" fill="#D9E6F3" cx="33.9134004" cy="17.0134377" r="17.0134377"></circle>
            <circle id="Oval-Copy" stroke="#185799" stroke-width="5.2" cx="26.5863781" cy="17.0134377" r="17.0134377"></circle>
            <polyline id="Path-3" stroke="#185799" stroke-width="5.2" stroke-linecap="round" stroke-linejoin="round" points="69.1199722 87.4741433 133.304726 87.4741433 133.304726 169.204503 107.303301 169.204503 107.303301 90.3511046"></polyline>
            <path d="M20.9028659,56.3341625 L24.0350846,110.156356 C24.4774857,116.747834 27.1381547,120.043573 32.0170913,120.043573 C36.896028,120.043573 52.1259246,120.043573 77.7067811,120.043573 C80.1780729,120.764174 81.4137188,121.654147 81.4137188,122.713492 C81.4137188,124.302509 79.0710425,159.395014 79.4982752,164.651622 C79.9255079,169.908231 84.3201842,170.276787 88.0063353,170.276787 C91.6924864,170.276787 94.1905283,166.96817 94.1905283,164.651622 C94.1905283,163.107258 95.1246406,148.747263 96.9928654,121.571639 C96.597664,113.347858 94.84569,108.398602 91.7369435,106.723872 C88.6281971,105.049142 77.6368348,102.926346 58.7628568,100.355484 C56.0141865,99.8324834 54.6398513,99.0993078 54.6398513,98.155957 C54.6398513,97.2126061 53.6839259,85.876742 51.772075,64.1483644 C52.0030369,63.04488 52.9589623,62.4931378 54.6398513,62.4931378 C57.1611849,62.4931378 59.6948363,66.3455815 65.5558782,68.4835183 C72.3612533,69.8369548 87.0645853,70.8308606 90.6275568,70.114109 C94.1905283,69.3973574 95.7810855,65.6634742 95.7810855,64.1483644 C95.7810855,62.6332547 93.9649555,59.6415289 91.7369435,59.6415289 C89.5089316,59.6415289 74.280847,59.4575293 69.7332082,58.1433564 C65.1855694,56.8291834 55.7330708,46.5699322 44.0818153,44.7660831 C32.4305599,42.962234 27.1153579,44.7660831 27.1153579,44.7660831 C27.1153579,44.7660831 20.9028659,47.1811371 20.9028659,50.5316237 C20.9028659,52.7652814 20.9028659,54.699461 20.9028659,56.3341625 Z" id="Path-4-Copy" fill="#D9E6F3"></path>
            <path d="M13.5758435,56.3341625 L16.7080622,110.156356 C17.1504634,116.747834 19.8111323,120.043573 24.690069,120.043573 C29.5690056,120.043573 44.7989022,120.043573 70.3797587,120.043573 C72.8510505,120.764174 74.0866964,121.654147 74.0866964,122.713492 C74.0866964,124.302509 71.7440201,159.395014 72.1712528,164.651622 C72.5984855,169.908231 76.9931618,170.276787 80.6793129,170.276787 C84.365464,170.276787 86.8635059,166.96817 86.8635059,164.651622 C86.8635059,163.107258 87.7976182,148.747263 89.665843,121.571639 C89.2706416,113.347858 87.5186677,108.398602 84.4099212,106.723872 C81.3011747,105.049142 70.3098124,102.926346 51.4358344,100.355484 C48.6871641,99.8324834 47.312829,99.0993078 47.312829,98.155957 C47.312829,97.2126061 46.3569035,85.876742 44.4450527,64.1483644 C44.6760145,63.04488 45.6319399,62.4931378 47.312829,62.4931378 C49.8341625,62.4931378 52.367814,66.3455815 58.2288558,68.4835183 C65.0342309,69.8369548 79.737563,70.8308606 83.3005344,70.114109 C86.8635059,69.3973574 88.4540631,65.6634742 88.4540631,64.1483644 C88.4540631,62.6332547 86.6379331,59.6415289 84.4099212,59.6415289 C82.1819092,59.6415289 66.9538246,59.4575293 62.4061858,58.1433564 C57.858547,56.8291834 48.4060484,46.5699322 36.754793,44.7660831 C25.1035375,42.962234 19.7883355,44.7660831 19.7883355,44.7660831 C19.7883355,44.7660831 13.5758435,47.1811371 13.5758435,50.5316237 C13.5758435,52.7652814 13.5758435,54.699461 13.5758435,56.3341625 Z" id="Path-4" stroke="#185799" stroke-width="5.2"></path>
            <g id="Group-3" transform="translate(0.000000, 57.218797)" stroke="#185799" stroke-linecap="round" stroke-linejoin="round" stroke-width="5.2">
                <polyline id="Path-5" points="-1.19084536e-12 2.72690635e-13 4.71726143 76.7555902 14.663296 76.7555902 45.3257911 76.7555902 55.9467203 76.7555902"></polyline>
                <line x1="7.6751564" y1="113.048137" x2="13.5758435" y2="76.7966044" id="Path-6"></line>
                <line x1="45.4901977" y1="113.048137" x2="51.3908848" y2="76.7966044" id="Path-6-Copy" transform="translate(48.440541, 94.922370) scale(-1, 1) translate(-48.440541, -94.922370) "></line>
            </g>
        </g>
        <path d="M179.832,393.332 L179.832,386.384 L184.908,386.384 C187.14,386.384 189.078,386.018 190.722,385.286 C192.366,384.554 193.632,383.498 194.52,382.118 C195.408,380.738 195.852,379.124 195.852,377.276 C195.852,375.404 195.408,373.784 194.52,372.416 C193.632,371.048 192.366,369.992 190.722,369.248 C189.078,368.504 187.14,368.132 184.908,368.132 L184.908,368.132 L174,368.132 L174,393.332 L179.832,393.332 Z M184.584,381.632 L179.832,381.632 L179.832,372.884 L184.584,372.884 C186.336,372.884 187.668,373.262 188.58,374.018 C189.492,374.774 189.948,375.86 189.948,377.276 C189.948,378.668 189.492,379.742 188.58,380.498 C187.668,381.254 186.336,381.632 184.584,381.632 L184.584,381.632 Z M205.422,393.332 L205.422,383.756 C205.422,382.028 205.842,380.726 206.682,379.85 C207.522,378.974 208.65,378.536 210.066,378.536 C211.338,378.536 212.31,378.914 212.982,379.67 C213.654,380.426 213.99,381.572 213.99,383.108 L213.99,383.108 L213.99,393.332 L219.606,393.332 L219.606,382.244 C219.606,379.412 218.868,377.276 217.392,375.836 C215.916,374.396 213.978,373.676 211.578,373.676 C210.33,373.676 209.178,373.874 208.122,374.27 C207.066,374.666 206.166,375.236 205.422,375.98 L205.422,375.98 L205.422,366.62 L199.806,366.62 L199.806,393.332 L205.422,393.332 Z M226.62,400.604 C228.468,400.604 230.046,400.148 231.354,399.236 C232.662,398.324 233.76,396.752 234.648,394.52 L234.648,394.52 L243.396,373.964 L237.996,373.964 L232.524,387.104 L227.088,373.964 L221.292,373.964 L229.68,393.476 L229.608,393.656 C229.224,394.52 228.792,395.138 228.312,395.51 C227.832,395.882 227.208,396.068 226.44,396.068 C225.888,396.068 225.33,395.96 224.766,395.744 C224.202,395.528 223.704,395.228 223.272,394.844 L223.272,394.844 L221.22,398.84 C221.844,399.392 222.648,399.824 223.632,400.136 C224.616,400.448 225.612,400.604 226.62,400.604 Z M251.778,393.62 C253.674,393.62 255.312,393.362 256.692,392.846 C258.072,392.33 259.122,391.604 259.842,390.668 C260.562,389.732 260.922,388.664 260.922,387.464 C260.922,386.048 260.55,384.944 259.806,384.152 C259.062,383.36 258.186,382.814 257.178,382.514 C256.17,382.214 254.874,381.932 253.29,381.668 C251.874,381.452 250.842,381.224 250.194,380.984 C249.546,380.744 249.222,380.324 249.222,379.724 C249.222,379.196 249.522,378.764 250.122,378.428 C250.722,378.092 251.622,377.924 252.822,377.924 C254.838,377.924 256.698,378.404 258.402,379.364 L258.402,379.364 L260.274,375.368 C259.386,374.84 258.264,374.426 256.908,374.126 C255.552,373.826 254.19,373.676 252.822,373.676 C250.974,373.676 249.372,373.94 248.016,374.468 C246.66,374.996 245.628,375.734 244.92,376.682 C244.212,377.63 243.858,378.716 243.858,379.94 C243.858,381.404 244.236,382.532 244.992,383.324 C245.748,384.116 246.642,384.668 247.674,384.98 C248.706,385.292 250.014,385.568 251.598,385.808 C252.942,385.976 253.938,386.18 254.586,386.42 C255.234,386.66 255.558,387.056 255.558,387.608 C255.558,388.784 254.37,389.372 251.994,389.372 C250.818,389.372 249.618,389.198 248.394,388.85 C247.17,388.502 246.126,388.052 245.262,387.5 L245.262,387.5 L243.39,391.532 C244.302,392.132 245.526,392.63 247.062,393.026 C248.598,393.422 250.17,393.62 251.778,393.62 Z M267.036,371.264 C268.068,371.264 268.908,370.958 269.556,370.346 C270.204,369.734 270.528,368.96 270.528,368.024 C270.528,367.16 270.204,366.44 269.556,365.864 C268.908,365.288 268.068,365 267.036,365 C266.004,365 265.164,365.3 264.516,365.9 C263.868,366.5 263.544,367.244 263.544,368.132 C263.544,369.02 263.868,369.764 264.516,370.364 C265.164,370.964 266.004,371.264 267.036,371.264 Z M269.844,393.332 L269.844,373.964 L264.228,373.964 L264.228,393.332 L269.844,393.332 Z M284.274,393.62 C286.314,393.62 288.096,393.188 289.62,392.324 C291.144,391.46 292.254,390.26 292.95,388.724 L292.95,388.724 L288.594,386.348 C287.61,388.124 286.158,389.012 284.238,389.012 C282.774,389.012 281.562,388.532 280.602,387.572 C279.642,386.612 279.162,385.304 279.162,383.648 C279.162,381.992 279.642,380.684 280.602,379.724 C281.562,378.764 282.774,378.284 284.238,378.284 C286.134,378.284 287.586,379.172 288.594,380.948 L288.594,380.948 L292.95,378.608 C292.254,377.024 291.144,375.806 289.62,374.954 C288.096,374.102 286.314,373.676 284.274,373.676 C282.21,373.676 280.356,374.102 278.712,374.954 C277.068,375.806 275.784,376.988 274.86,378.5 C273.936,380.012 273.474,381.728 273.474,383.648 C273.474,385.568 273.936,387.284 274.86,388.796 C275.784,390.308 277.068,391.49 278.712,392.342 C280.356,393.194 282.21,393.62 284.274,393.62 Z M302.016,393.62 C304.896,393.62 306.864,392.72 307.92,390.92 L307.92,390.92 L307.92,393.332 L313.176,393.332 L313.176,382.28 C313.176,379.4 312.372,377.246 310.764,375.818 C309.156,374.39 306.852,373.676 303.852,373.676 C302.292,373.676 300.774,373.88 299.298,374.288 C297.822,374.696 296.556,375.272 295.5,376.016 L295.5,376.016 L297.516,379.94 C298.212,379.388 299.058,378.95 300.054,378.626 C301.05,378.302 302.064,378.14 303.096,378.14 C304.584,378.14 305.7,378.47 306.444,379.13 C307.188,379.79 307.56,380.732 307.56,381.956 L307.56,381.956 L303.096,381.956 C300.264,381.956 298.17,382.472 296.814,383.504 C295.458,384.536 294.78,385.952 294.78,387.752 C294.78,388.88 295.068,389.888 295.644,390.776 C296.22,391.664 297.054,392.36 298.146,392.864 C299.238,393.368 300.528,393.62 302.016,393.62 Z M303.42,389.84 C302.436,389.84 301.662,389.63 301.098,389.21 C300.534,388.79 300.252,388.22 300.252,387.5 C300.252,385.988 301.404,385.232 303.708,385.232 L303.708,385.232 L307.56,385.232 L307.56,387.212 C307.248,388.076 306.72,388.73 305.976,389.174 C305.232,389.618 304.38,389.84 303.42,389.84 Z M323.718,393.332 L323.718,366.62 L318.102,366.62 L318.102,393.332 L323.718,393.332 Z M341.634,371.264 C342.666,371.264 343.506,370.958 344.154,370.346 C344.802,369.734 345.126,368.96 345.126,368.024 C345.126,367.16 344.802,366.44 344.154,365.864 C343.506,365.288 342.666,365 341.634,365 C340.602,365 339.762,365.3 339.114,365.9 C338.466,366.5 338.142,367.244 338.142,368.132 C338.142,369.02 338.466,369.764 339.114,370.364 C339.762,370.964 340.602,371.264 341.634,371.264 Z M344.442,393.332 L344.442,373.964 L338.826,373.964 L338.826,393.332 L344.442,393.332 Z M355.128,393.332 L355.128,383.756 C355.128,382.028 355.548,380.726 356.388,379.85 C357.228,378.974 358.356,378.536 359.772,378.536 C361.044,378.536 362.016,378.914 362.688,379.67 C363.36,380.426 363.696,381.572 363.696,383.108 L363.696,383.108 L363.696,393.332 L369.312,393.332 L369.312,382.244 C369.312,379.412 368.574,377.276 367.098,375.836 C365.622,374.396 363.684,373.676 361.284,373.676 C359.964,373.676 358.752,373.898 357.648,374.342 C356.544,374.786 355.62,375.416 354.876,376.232 L354.876,376.232 L354.876,373.964 L349.512,373.964 L349.512,393.332 L355.128,393.332 Z M380.214,393.62 C383.094,393.62 385.062,392.72 386.118,390.92 L386.118,390.92 L386.118,393.332 L391.374,393.332 L391.374,382.28 C391.374,379.4 390.57,377.246 388.962,375.818 C387.354,374.39 385.05,373.676 382.05,373.676 C380.49,373.676 378.972,373.88 377.496,374.288 C376.02,374.696 374.754,375.272 373.698,376.016 L373.698,376.016 L375.714,379.94 C376.41,379.388 377.256,378.95 378.252,378.626 C379.248,378.302 380.262,378.14 381.294,378.14 C382.782,378.14 383.898,378.47 384.642,379.13 C385.386,379.79 385.758,380.732 385.758,381.956 L385.758,381.956 L381.294,381.956 C378.462,381.956 376.368,382.472 375.012,383.504 C373.656,384.536 372.978,385.952 372.978,387.752 C372.978,388.88 373.266,389.888 373.842,390.776 C374.418,391.664 375.252,392.36 376.344,392.864 C377.436,393.368 378.726,393.62 380.214,393.62 Z M381.618,389.84 C380.634,389.84 379.86,389.63 379.296,389.21 C378.732,388.79 378.45,388.22 378.45,387.5 C378.45,385.988 379.602,385.232 381.906,385.232 L381.906,385.232 L385.758,385.232 L385.758,387.212 C385.446,388.076 384.918,388.73 384.174,389.174 C383.43,389.618 382.578,389.84 381.618,389.84 Z M405.876,393.62 C407.916,393.62 409.698,393.188 411.222,392.324 C412.746,391.46 413.856,390.26 414.552,388.724 L414.552,388.724 L410.196,386.348 C409.212,388.124 407.76,389.012 405.84,389.012 C404.376,389.012 403.164,388.532 402.204,387.572 C401.244,386.612 400.764,385.304 400.764,383.648 C400.764,381.992 401.244,380.684 402.204,379.724 C403.164,378.764 404.376,378.284 405.84,378.284 C407.736,378.284 409.188,379.172 410.196,380.948 L410.196,380.948 L414.552,378.608 C413.856,377.024 412.746,375.806 411.222,374.954 C409.698,374.102 407.916,373.676 405.876,373.676 C403.812,373.676 401.958,374.102 400.314,374.954 C398.67,375.806 397.386,376.988 396.462,378.5 C395.538,380.012 395.076,381.728 395.076,383.648 C395.076,385.568 395.538,387.284 396.462,388.796 C397.386,390.308 398.67,391.49 400.314,392.342 C401.958,393.194 403.812,393.62 405.876,393.62 Z M425.85,393.62 C426.738,393.62 427.584,393.518 428.388,393.314 C429.192,393.11 429.87,392.804 430.422,392.396 L430.422,392.396 L428.91,388.436 C428.286,388.916 427.53,389.156 426.642,389.156 C425.874,389.156 425.28,388.934 424.86,388.49 C424.44,388.046 424.23,387.416 424.23,386.6 L424.23,386.6 L424.23,378.716 L429.054,378.716 L429.054,374.396 L424.23,374.396 L424.23,369.68 L418.614,369.68 L418.614,374.396 L415.626,374.396 L415.626,378.716 L418.614,378.716 L418.614,386.672 C418.614,388.952 419.244,390.68 420.504,391.856 C421.764,393.032 423.546,393.62 425.85,393.62 Z M436.248,371.264 C437.28,371.264 438.12,370.958 438.768,370.346 C439.416,369.734 439.74,368.96 439.74,368.024 C439.74,367.16 439.416,366.44 438.768,365.864 C438.12,365.288 437.28,365 436.248,365 C435.216,365 434.376,365.3 433.728,365.9 C433.08,366.5 432.756,367.244 432.756,368.132 C432.756,369.02 433.08,369.764 433.728,370.364 C434.376,370.964 435.216,371.264 436.248,371.264 Z M439.056,393.332 L439.056,373.964 L433.44,373.964 L433.44,393.332 L439.056,393.332 Z M455.178,393.332 L463.35,373.964 L457.95,373.964 L452.406,387.14 L447.042,373.964 L441.246,373.964 L449.382,393.332 L455.178,393.332 Z M468.312,371.264 C469.344,371.264 470.184,370.958 470.832,370.346 C471.48,369.734 471.804,368.96 471.804,368.024 C471.804,367.16 471.48,366.44 470.832,365.864 C470.184,365.288 469.344,365 468.312,365 C467.28,365 466.44,365.3 465.792,365.9 C465.144,366.5 464.82,367.244 464.82,368.132 C464.82,369.02 465.144,369.764 465.792,370.364 C466.44,370.964 467.28,371.264 468.312,371.264 Z M471.12,393.332 L471.12,373.964 L465.504,373.964 L465.504,393.332 L471.12,393.332 Z M484.11,393.62 C484.998,393.62 485.844,393.518 486.648,393.314 C487.452,393.11 488.13,392.804 488.682,392.396 L488.682,392.396 L487.17,388.436 C486.546,388.916 485.79,389.156 484.902,389.156 C484.134,389.156 483.54,388.934 483.12,388.49 C482.7,388.046 482.49,387.416 482.49,386.6 L482.49,386.6 L482.49,378.716 L487.314,378.716 L487.314,374.396 L482.49,374.396 L482.49,369.68 L476.874,369.68 L476.874,374.396 L473.886,374.396 L473.886,378.716 L476.874,378.716 L476.874,386.672 C476.874,388.952 477.504,390.68 478.764,391.856 C480.024,393.032 481.806,393.62 484.11,393.62 Z M493.788,400.604 C495.636,400.604 497.214,400.148 498.522,399.236 C499.83,398.324 500.928,396.752 501.816,394.52 L501.816,394.52 L510.564,373.964 L505.164,373.964 L499.692,387.104 L494.256,373.964 L488.46,373.964 L496.848,393.476 L496.776,393.656 C496.392,394.52 495.96,395.138 495.48,395.51 C495,395.882 494.376,396.068 493.608,396.068 C493.056,396.068 492.498,395.96 491.934,395.744 C491.37,395.528 490.872,395.228 490.44,394.844 L490.44,394.844 L488.388,398.84 C489.012,399.392 489.816,399.824 490.8,400.136 C491.784,400.448 492.78,400.604 493.788,400.604 Z" id="Physicalinactivity" fill="#232323" fill-rule="nonzero"></path>
        <path d="M724.412,393.764 C728.012,393.764 730.814,392.768 732.818,390.776 C734.822,388.784 735.824,385.94 735.824,382.244 L735.824,382.244 L735.824,368.132 L730.064,368.132 L730.064,382.028 C730.064,384.356 729.584,386.066 728.624,387.158 C727.664,388.25 726.272,388.796 724.448,388.796 C720.704,388.796 718.832,386.54 718.832,382.028 L718.832,382.028 L718.832,368.132 L713,368.132 L713,382.244 C713,385.94 714.002,388.784 716.006,390.776 C718.01,392.768 720.812,393.764 724.412,393.764 Z M746.654,393.332 L746.654,383.756 C746.654,382.028 747.074,380.726 747.914,379.85 C748.754,378.974 749.882,378.536 751.298,378.536 C752.57,378.536 753.542,378.914 754.214,379.67 C754.886,380.426 755.222,381.572 755.222,383.108 L755.222,383.108 L755.222,393.332 L760.838,393.332 L760.838,382.244 C760.838,379.412 760.1,377.276 758.624,375.836 C757.148,374.396 755.21,373.676 752.81,373.676 C751.49,373.676 750.278,373.898 749.174,374.342 C748.07,374.786 747.146,375.416 746.402,376.232 L746.402,376.232 L746.402,373.964 L741.038,373.964 L741.038,393.332 L746.654,393.332 Z M771.38,393.332 L771.38,383.756 C771.38,382.028 771.8,380.726 772.64,379.85 C773.48,378.974 774.608,378.536 776.024,378.536 C777.296,378.536 778.268,378.914 778.94,379.67 C779.612,380.426 779.948,381.572 779.948,383.108 L779.948,383.108 L779.948,393.332 L785.564,393.332 L785.564,382.244 C785.564,379.412 784.826,377.276 783.35,375.836 C781.874,374.396 779.936,373.676 777.536,373.676 C776.288,373.676 775.136,373.874 774.08,374.27 C773.024,374.666 772.124,375.236 771.38,375.98 L771.38,375.98 L771.38,366.62 L765.764,366.62 L765.764,393.332 L771.38,393.332 Z M800.318,393.62 C803.822,393.62 806.486,392.576 808.31,390.488 L808.31,390.488 L805.322,387.248 C804.65,387.896 803.924,388.37 803.144,388.67 C802.364,388.97 801.47,389.12 800.462,389.12 C798.998,389.12 797.774,388.772 796.79,388.076 C795.806,387.38 795.182,386.432 794.918,385.232 L794.918,385.232 L809.57,385.232 C809.642,384.296 809.678,383.792 809.678,383.72 C809.678,381.704 809.24,379.934 808.364,378.41 C807.488,376.886 806.282,375.716 804.746,374.9 C803.21,374.084 801.494,373.676 799.598,373.676 C797.654,373.676 795.896,374.102 794.324,374.954 C792.752,375.806 791.516,376.994 790.616,378.518 C789.716,380.042 789.266,381.752 789.266,383.648 C789.266,385.568 789.722,387.284 790.634,388.796 C791.546,390.308 792.842,391.49 794.522,392.342 C796.202,393.194 798.134,393.62 800.318,393.62 Z M804.386,381.956 L794.846,381.956 C795.038,380.708 795.566,379.724 796.43,379.004 C797.294,378.284 798.362,377.924 799.634,377.924 C800.882,377.924 801.938,378.29 802.802,379.022 C803.666,379.754 804.194,380.732 804.386,381.956 L804.386,381.956 Z M818.708,393.62 C821.588,393.62 823.556,392.72 824.612,390.92 L824.612,390.92 L824.612,393.332 L829.868,393.332 L829.868,382.28 C829.868,379.4 829.064,377.246 827.456,375.818 C825.848,374.39 823.544,373.676 820.544,373.676 C818.984,373.676 817.466,373.88 815.99,374.288 C814.514,374.696 813.248,375.272 812.192,376.016 L812.192,376.016 L814.208,379.94 C814.904,379.388 815.75,378.95 816.746,378.626 C817.742,378.302 818.756,378.14 819.788,378.14 C821.276,378.14 822.392,378.47 823.136,379.13 C823.88,379.79 824.252,380.732 824.252,381.956 L824.252,381.956 L819.788,381.956 C816.956,381.956 814.862,382.472 813.506,383.504 C812.15,384.536 811.472,385.952 811.472,387.752 C811.472,388.88 811.76,389.888 812.336,390.776 C812.912,391.664 813.746,392.36 814.838,392.864 C815.93,393.368 817.22,393.62 818.708,393.62 Z M820.112,389.84 C819.128,389.84 818.354,389.63 817.79,389.21 C817.226,388.79 816.944,388.22 816.944,387.5 C816.944,385.988 818.096,385.232 820.4,385.232 L820.4,385.232 L824.252,385.232 L824.252,387.212 C823.94,388.076 823.412,388.73 822.668,389.174 C821.924,389.618 821.072,389.84 820.112,389.84 Z M840.41,393.332 L840.41,366.62 L834.794,366.62 L834.794,393.332 L840.41,393.332 Z M854.804,393.62 C855.692,393.62 856.538,393.518 857.342,393.314 C858.146,393.11 858.824,392.804 859.376,392.396 L859.376,392.396 L857.864,388.436 C857.24,388.916 856.484,389.156 855.596,389.156 C854.828,389.156 854.234,388.934 853.814,388.49 C853.394,388.046 853.184,387.416 853.184,386.6 L853.184,386.6 L853.184,378.716 L858.008,378.716 L858.008,374.396 L853.184,374.396 L853.184,369.68 L847.568,369.68 L847.568,374.396 L844.58,374.396 L844.58,378.716 L847.568,378.716 L847.568,386.672 C847.568,388.952 848.198,390.68 849.458,391.856 C850.718,393.032 852.5,393.62 854.804,393.62 Z M868.01,393.332 L868.01,383.756 C868.01,382.028 868.43,380.726 869.27,379.85 C870.11,378.974 871.238,378.536 872.654,378.536 C873.926,378.536 874.898,378.914 875.57,379.67 C876.242,380.426 876.578,381.572 876.578,383.108 L876.578,383.108 L876.578,393.332 L882.194,393.332 L882.194,382.244 C882.194,379.412 881.456,377.276 879.98,375.836 C878.504,374.396 876.566,373.676 874.166,373.676 C872.918,373.676 871.766,373.874 870.71,374.27 C869.654,374.666 868.754,375.236 868.01,375.98 L868.01,375.98 L868.01,366.62 L862.394,366.62 L862.394,393.332 L868.01,393.332 Z M889.208,400.604 C891.056,400.604 892.634,400.148 893.942,399.236 C895.25,398.324 896.348,396.752 897.236,394.52 L897.236,394.52 L905.984,373.964 L900.584,373.964 L895.112,387.104 L889.676,373.964 L883.88,373.964 L892.268,393.476 L892.196,393.656 C891.812,394.52 891.38,395.138 890.9,395.51 C890.42,395.882 889.796,396.068 889.028,396.068 C888.476,396.068 887.918,395.96 887.354,395.744 C886.79,395.528 886.292,395.228 885.86,394.844 L885.86,394.844 L883.808,398.84 C884.432,399.392 885.236,399.824 886.22,400.136 C887.204,400.448 888.2,400.604 889.208,400.604 Z M926.492,393.62 C929.132,393.62 931.148,392.78 932.54,391.1 L932.54,391.1 L932.54,393.332 L937.904,393.332 L937.904,366.62 L932.288,366.62 L932.288,376.016 C930.896,374.456 928.964,373.676 926.492,373.676 C924.668,373.676 923.018,374.084 921.542,374.9 C920.066,375.716 918.908,376.88 918.068,378.392 C917.228,379.904 916.808,381.656 916.808,383.648 C916.808,385.64 917.228,387.392 918.068,388.904 C918.908,390.416 920.066,391.58 921.542,392.396 C923.018,393.212 924.668,393.62 926.492,393.62 Z M927.464,389.012 C926.024,389.012 924.836,388.526 923.9,387.554 C922.964,386.582 922.496,385.28 922.496,383.648 C922.496,382.016 922.964,380.714 923.9,379.742 C924.836,378.77 926.024,378.284 927.464,378.284 C928.88,378.284 930.056,378.77 930.992,379.742 C931.928,380.714 932.396,382.016 932.396,383.648 C932.396,385.28 931.928,386.582 930.992,387.554 C930.056,388.526 928.88,389.012 927.464,389.012 Z M945.746,371.264 C946.778,371.264 947.618,370.958 948.266,370.346 C948.914,369.734 949.238,368.96 949.238,368.024 C949.238,367.16 948.914,366.44 948.266,365.864 C947.618,365.288 946.778,365 945.746,365 C944.714,365 943.874,365.3 943.226,365.9 C942.578,366.5 942.254,367.244 942.254,368.132 C942.254,369.02 942.578,369.764 943.226,370.364 C943.874,370.964 944.714,371.264 945.746,371.264 Z M948.554,393.332 L948.554,373.964 L942.938,373.964 L942.938,393.332 L948.554,393.332 Z M963.236,393.62 C966.74,393.62 969.404,392.576 971.228,390.488 L971.228,390.488 L968.24,387.248 C967.568,387.896 966.842,388.37 966.062,388.67 C965.282,388.97 964.388,389.12 963.38,389.12 C961.916,389.12 960.692,388.772 959.708,388.076 C958.724,387.38 958.1,386.432 957.836,385.232 L957.836,385.232 L972.488,385.232 C972.56,384.296 972.596,383.792 972.596,383.72 C972.596,381.704 972.158,379.934 971.282,378.41 C970.406,376.886 969.2,375.716 967.664,374.9 C966.128,374.084 964.412,373.676 962.516,373.676 C960.572,373.676 958.814,374.102 957.242,374.954 C955.67,375.806 954.434,376.994 953.534,378.518 C952.634,380.042 952.184,381.752 952.184,383.648 C952.184,385.568 952.64,387.284 953.552,388.796 C954.464,390.308 955.76,391.49 957.44,392.342 C959.12,393.194 961.052,393.62 963.236,393.62 Z M967.304,381.956 L957.764,381.956 C957.956,380.708 958.484,379.724 959.348,379.004 C960.212,378.284 961.28,377.924 962.552,377.924 C963.8,377.924 964.856,378.29 965.72,379.022 C966.584,379.754 967.112,380.732 967.304,381.956 L967.304,381.956 Z M984.11,393.62 C984.998,393.62 985.844,393.518 986.648,393.314 C987.452,393.11 988.13,392.804 988.682,392.396 L988.682,392.396 L987.17,388.436 C986.546,388.916 985.79,389.156 984.902,389.156 C984.134,389.156 983.54,388.934 983.12,388.49 C982.7,388.046 982.49,387.416 982.49,386.6 L982.49,386.6 L982.49,378.716 L987.314,378.716 L987.314,374.396 L982.49,374.396 L982.49,369.68 L976.874,369.68 L976.874,374.396 L973.886,374.396 L973.886,378.716 L976.874,378.716 L976.874,386.672 C976.874,388.952 977.504,390.68 978.764,391.856 C980.024,393.032 981.806,393.62 984.11,393.62 Z" id="Unhealthydiet" fill="#232323" fill-rule="nonzero"></path>
        <path d="M1209.468,393 L1209.468,388.248 L1196.832,388.248 L1196.832,367.8 L1191,367.8 L1191,393 L1209.468,393 Z M1218.39,393.288 C1221.27,393.288 1223.238,392.388 1224.294,390.588 L1224.294,390.588 L1224.294,393 L1229.55,393 L1229.55,381.948 C1229.55,379.068 1228.746,376.914 1227.138,375.486 C1225.53,374.058 1223.226,373.344 1220.226,373.344 C1218.666,373.344 1217.148,373.548 1215.672,373.956 C1214.196,374.364 1212.93,374.94 1211.874,375.684 L1211.874,375.684 L1213.89,379.608 C1214.586,379.056 1215.432,378.618 1216.428,378.294 C1217.424,377.97 1218.438,377.808 1219.47,377.808 C1220.958,377.808 1222.074,378.138 1222.818,378.798 C1223.562,379.458 1223.934,380.4 1223.934,381.624 L1223.934,381.624 L1219.47,381.624 C1216.638,381.624 1214.544,382.14 1213.188,383.172 C1211.832,384.204 1211.154,385.62 1211.154,387.42 C1211.154,388.548 1211.442,389.556 1212.018,390.444 C1212.594,391.332 1213.428,392.028 1214.52,392.532 C1215.612,393.036 1216.902,393.288 1218.39,393.288 Z M1219.794,389.508 C1218.81,389.508 1218.036,389.298 1217.472,388.878 C1216.908,388.458 1216.626,387.888 1216.626,387.168 C1216.626,385.656 1217.778,384.9 1220.082,384.9 L1220.082,384.9 L1223.934,384.9 L1223.934,386.88 C1223.622,387.744 1223.094,388.398 1222.35,388.842 C1221.606,389.286 1220.754,389.508 1219.794,389.508 Z M1244.052,393.288 C1246.092,393.288 1247.874,392.856 1249.398,391.992 C1250.922,391.128 1252.032,389.928 1252.728,388.392 L1252.728,388.392 L1248.372,386.016 C1247.388,387.792 1245.936,388.68 1244.016,388.68 C1242.552,388.68 1241.34,388.2 1240.38,387.24 C1239.42,386.28 1238.94,384.972 1238.94,383.316 C1238.94,381.66 1239.42,380.352 1240.38,379.392 C1241.34,378.432 1242.552,377.952 1244.016,377.952 C1245.912,377.952 1247.364,378.84 1248.372,380.616 L1248.372,380.616 L1252.728,378.276 C1252.032,376.692 1250.922,375.474 1249.398,374.622 C1247.874,373.77 1246.092,373.344 1244.052,373.344 C1241.988,373.344 1240.134,373.77 1238.49,374.622 C1236.846,375.474 1235.562,376.656 1234.638,378.168 C1233.714,379.68 1233.252,381.396 1233.252,383.316 C1233.252,385.236 1233.714,386.952 1234.638,388.464 C1235.562,389.976 1236.846,391.158 1238.49,392.01 C1240.134,392.862 1241.988,393.288 1244.052,393.288 Z M1261.29,393 L1261.29,388.068 L1263.99,385.404 L1270.11,393 L1276.914,393 L1268.13,381.84 L1276.194,373.632 L1269.498,373.632 L1261.29,381.408 L1261.29,366.288 L1255.674,366.288 L1255.674,393 L1261.29,393 Z M1298.538,393.288 C1300.578,393.288 1302.402,392.862 1304.01,392.01 C1305.618,391.158 1306.878,389.976 1307.79,388.464 C1308.702,386.952 1309.158,385.236 1309.158,383.316 C1309.158,381.396 1308.702,379.68 1307.79,378.168 C1306.878,376.656 1305.618,375.474 1304.01,374.622 C1302.402,373.77 1300.578,373.344 1298.538,373.344 C1296.498,373.344 1294.668,373.77 1293.048,374.622 C1291.428,375.474 1290.162,376.656 1289.25,378.168 C1288.338,379.68 1287.882,381.396 1287.882,383.316 C1287.882,385.236 1288.338,386.952 1289.25,388.464 C1290.162,389.976 1291.428,391.158 1293.048,392.01 C1294.668,392.862 1296.498,393.288 1298.538,393.288 Z M1298.538,388.68 C1297.098,388.68 1295.91,388.194 1294.974,387.222 C1294.038,386.25 1293.57,384.948 1293.57,383.316 C1293.57,381.684 1294.038,380.382 1294.974,379.41 C1295.91,378.438 1297.098,377.952 1298.538,377.952 C1299.978,377.952 1301.16,378.438 1302.084,379.41 C1303.008,380.382 1303.47,381.684 1303.47,383.316 C1303.47,384.948 1303.008,386.25 1302.084,387.222 C1301.16,388.194 1299.978,388.68 1298.538,388.68 Z M1319.052,393 L1319.052,378.384 L1323.876,378.384 L1323.876,374.064 L1318.908,374.064 L1318.908,373.236 C1318.908,371.364 1319.76,370.428 1321.464,370.428 C1322.328,370.428 1323.084,370.656 1323.732,371.112 L1323.732,371.112 L1325.208,367.044 C1324.704,366.708 1324.074,366.45 1323.318,366.27 C1322.562,366.09 1321.764,366 1320.924,366 C1318.548,366 1316.706,366.648 1315.398,367.944 C1314.09,369.24 1313.436,370.992 1313.436,373.2 L1313.436,373.2 L1313.436,374.064 L1310.448,374.064 L1310.448,378.384 L1313.436,378.384 L1313.436,393 L1319.052,393 Z M1339.632,393 L1341.864,387.6 L1353.564,387.6 L1355.796,393 L1361.916,393 L1350.648,367.8 L1344.888,367.8 L1333.656,393 L1339.632,393 Z M1351.728,383.172 L1343.736,383.172 L1347.732,373.524 L1351.728,383.172 Z M1372.818,393 L1377.318,380.976 L1381.674,393 L1387.074,393 L1394.094,373.632 L1389.126,373.632 L1384.41,386.736 L1379.802,373.632 L1375.05,373.632 L1370.298,386.736 L1365.726,373.632 L1360.434,373.632 L1367.418,393 L1372.818,393 Z M1401.9,393.288 C1404.78,393.288 1406.748,392.388 1407.804,390.588 L1407.804,390.588 L1407.804,393 L1413.06,393 L1413.06,381.948 C1413.06,379.068 1412.256,376.914 1410.648,375.486 C1409.04,374.058 1406.736,373.344 1403.736,373.344 C1402.176,373.344 1400.658,373.548 1399.182,373.956 C1397.706,374.364 1396.44,374.94 1395.384,375.684 L1395.384,375.684 L1397.4,379.608 C1398.096,379.056 1398.942,378.618 1399.938,378.294 C1400.934,377.97 1401.948,377.808 1402.98,377.808 C1404.468,377.808 1405.584,378.138 1406.328,378.798 C1407.072,379.458 1407.444,380.4 1407.444,381.624 L1407.444,381.624 L1402.98,381.624 C1400.148,381.624 1398.054,382.14 1396.698,383.172 C1395.342,384.204 1394.664,385.62 1394.664,387.42 C1394.664,388.548 1394.952,389.556 1395.528,390.444 C1396.104,391.332 1396.938,392.028 1398.03,392.532 C1399.122,393.036 1400.412,393.288 1401.9,393.288 Z M1403.304,389.508 C1402.32,389.508 1401.546,389.298 1400.982,388.878 C1400.418,388.458 1400.136,387.888 1400.136,387.168 C1400.136,385.656 1401.288,384.9 1403.592,384.9 L1403.592,384.9 L1407.444,384.9 L1407.444,386.88 C1407.132,387.744 1406.604,388.398 1405.86,388.842 C1405.116,389.286 1404.264,389.508 1403.304,389.508 Z M1423.602,393 L1423.602,383.856 C1423.602,382.056 1424.058,380.706 1424.97,379.806 C1425.882,378.906 1427.142,378.456 1428.75,378.456 C1428.966,378.456 1429.386,378.48 1430.01,378.528 L1430.01,378.528 L1430.01,373.344 C1428.522,373.344 1427.208,373.584 1426.068,374.064 C1424.928,374.544 1424.022,375.252 1423.35,376.188 L1423.35,376.188 L1423.35,373.632 L1417.986,373.632 L1417.986,393 L1423.602,393 Z M1442.64,393.288 C1446.144,393.288 1448.808,392.244 1450.632,390.156 L1450.632,390.156 L1447.644,386.916 C1446.972,387.564 1446.246,388.038 1445.466,388.338 C1444.686,388.638 1443.792,388.788 1442.784,388.788 C1441.32,388.788 1440.096,388.44 1439.112,387.744 C1438.128,387.048 1437.504,386.1 1437.24,384.9 L1437.24,384.9 L1451.892,384.9 C1451.964,383.964 1452,383.46 1452,383.388 C1452,381.372 1451.562,379.602 1450.686,378.078 C1449.81,376.554 1448.604,375.384 1447.068,374.568 C1445.532,373.752 1443.816,373.344 1441.92,373.344 C1439.976,373.344 1438.218,373.77 1436.646,374.622 C1435.074,375.474 1433.838,376.662 1432.938,378.186 C1432.038,379.71 1431.588,381.42 1431.588,383.316 C1431.588,385.236 1432.044,386.952 1432.956,388.464 C1433.868,389.976 1435.164,391.158 1436.844,392.01 C1438.524,392.862 1440.456,393.288 1442.64,393.288 Z M1446.708,381.624 L1437.168,381.624 C1437.36,380.376 1437.888,379.392 1438.752,378.672 C1439.616,377.952 1440.684,377.592 1441.956,377.592 C1443.204,377.592 1444.26,377.958 1445.124,378.69 C1445.988,379.422 1446.516,380.4 1446.708,381.624 L1446.708,381.624 Z M1461.21,393 L1461.21,383.424 C1461.21,381.696 1461.63,380.394 1462.47,379.518 C1463.31,378.642 1464.438,378.204 1465.854,378.204 C1467.126,378.204 1468.098,378.582 1468.77,379.338 C1469.442,380.094 1469.778,381.24 1469.778,382.776 L1469.778,382.776 L1469.778,393 L1475.394,393 L1475.394,381.912 C1475.394,379.08 1474.656,376.944 1473.18,375.504 C1471.704,374.064 1469.766,373.344 1467.366,373.344 C1466.046,373.344 1464.834,373.566 1463.73,374.01 C1462.626,374.454 1461.702,375.084 1460.958,375.9 L1460.958,375.9 L1460.958,373.632 L1455.594,373.632 L1455.594,393 L1461.21,393 Z M1490.148,393.288 C1493.652,393.288 1496.316,392.244 1498.14,390.156 L1498.14,390.156 L1495.152,386.916 C1494.48,387.564 1493.754,388.038 1492.974,388.338 C1492.194,388.638 1491.3,388.788 1490.292,388.788 C1488.828,388.788 1487.604,388.44 1486.62,387.744 C1485.636,387.048 1485.012,386.1 1484.748,384.9 L1484.748,384.9 L1499.4,384.9 C1499.472,383.964 1499.508,383.46 1499.508,383.388 C1499.508,381.372 1499.07,379.602 1498.194,378.078 C1497.318,376.554 1496.112,375.384 1494.576,374.568 C1493.04,373.752 1491.324,373.344 1489.428,373.344 C1487.484,373.344 1485.726,373.77 1484.154,374.622 C1482.582,375.474 1481.346,376.662 1480.446,378.186 C1479.546,379.71 1479.096,381.42 1479.096,383.316 C1479.096,385.236 1479.552,386.952 1480.464,388.464 C1481.376,389.976 1482.672,391.158 1484.352,392.01 C1486.032,392.862 1487.964,393.288 1490.148,393.288 Z M1494.216,381.624 L1484.676,381.624 C1484.868,380.376 1485.396,379.392 1486.26,378.672 C1487.124,377.952 1488.192,377.592 1489.464,377.592 C1490.712,377.592 1491.768,377.958 1492.632,378.69 C1493.496,379.422 1494.024,380.4 1494.216,381.624 L1494.216,381.624 Z M1509.618,393.288 C1511.514,393.288 1513.152,393.03 1514.532,392.514 C1515.912,391.998 1516.962,391.272 1517.682,390.336 C1518.402,389.4 1518.762,388.332 1518.762,387.132 C1518.762,385.716 1518.39,384.612 1517.646,383.82 C1516.902,383.028 1516.026,382.482 1515.018,382.182 C1514.01,381.882 1512.714,381.6 1511.13,381.336 C1509.714,381.12 1508.682,380.892 1508.034,380.652 C1507.386,380.412 1507.062,379.992 1507.062,379.392 C1507.062,378.864 1507.362,378.432 1507.962,378.096 C1508.562,377.76 1509.462,377.592 1510.662,377.592 C1512.678,377.592 1514.538,378.072 1516.242,379.032 L1516.242,379.032 L1518.114,375.036 C1517.226,374.508 1516.104,374.094 1514.748,373.794 C1513.392,373.494 1512.03,373.344 1510.662,373.344 C1508.814,373.344 1507.212,373.608 1505.856,374.136 C1504.5,374.664 1503.468,375.402 1502.76,376.35 C1502.052,377.298 1501.698,378.384 1501.698,379.608 C1501.698,381.072 1502.076,382.2 1502.832,382.992 C1503.588,383.784 1504.482,384.336 1505.514,384.648 C1506.546,384.96 1507.854,385.236 1509.438,385.476 C1510.782,385.644 1511.778,385.848 1512.426,386.088 C1513.074,386.328 1513.398,386.724 1513.398,387.276 C1513.398,388.452 1512.21,389.04 1509.834,389.04 C1508.658,389.04 1507.458,388.866 1506.234,388.518 C1505.01,388.17 1503.966,387.72 1503.102,387.168 L1503.102,387.168 L1501.23,391.2 C1502.142,391.8 1503.366,392.298 1504.902,392.694 C1506.438,393.09 1508.01,393.288 1509.618,393.288 Z M1528.584,393.288 C1530.48,393.288 1532.118,393.03 1533.498,392.514 C1534.878,391.998 1535.928,391.272 1536.648,390.336 C1537.368,389.4 1537.728,388.332 1537.728,387.132 C1537.728,385.716 1537.356,384.612 1536.612,383.82 C1535.868,383.028 1534.992,382.482 1533.984,382.182 C1532.976,381.882 1531.68,381.6 1530.096,381.336 C1528.68,381.12 1527.648,380.892 1527,380.652 C1526.352,380.412 1526.028,379.992 1526.028,379.392 C1526.028,378.864 1526.328,378.432 1526.928,378.096 C1527.528,377.76 1528.428,377.592 1529.628,377.592 C1531.644,377.592 1533.504,378.072 1535.208,379.032 L1535.208,379.032 L1537.08,375.036 C1536.192,374.508 1535.07,374.094 1533.714,373.794 C1532.358,373.494 1530.996,373.344 1529.628,373.344 C1527.78,373.344 1526.178,373.608 1524.822,374.136 C1523.466,374.664 1522.434,375.402 1521.726,376.35 C1521.018,377.298 1520.664,378.384 1520.664,379.608 C1520.664,381.072 1521.042,382.2 1521.798,382.992 C1522.554,383.784 1523.448,384.336 1524.48,384.648 C1525.512,384.96 1526.82,385.236 1528.404,385.476 C1529.748,385.644 1530.744,385.848 1531.392,386.088 C1532.04,386.328 1532.364,386.724 1532.364,387.276 C1532.364,388.452 1531.176,389.04 1528.8,389.04 C1527.624,389.04 1526.424,388.866 1525.2,388.518 C1523.976,388.17 1522.932,387.72 1522.068,387.168 L1522.068,387.168 L1520.196,391.2 C1521.108,391.8 1522.332,392.298 1523.868,392.694 C1525.404,393.09 1526.976,393.288 1528.584,393.288 Z" id="LackofAwareness" fill="#232323" fill-rule="nonzero"></path>
    </g>
</svg>