<?xml version="1.0" encoding="UTF-8"?>
<svg width="1698px" height="474px" viewBox="0 0 1698 474" version="1.1" xmlns="http://www.w3.org/2000/svg" xmlns:xlink="http://www.w3.org/1999/xlink">
    <!-- Generator: Sketch 62 (91390) - https://sketch.com -->
    <title>problems copy</title>
    <desc>Created with Sketch.</desc>
    <g id="problems-copy" stroke="none" stroke-width="1" fill="none" fill-rule="evenodd">
        <rect fill="#FFFFFF" x="0" y="0" width="1698" height="474"></rect>
        <rect id="Rectangle" fill="#FFFFFF" x="0" y="0" width="1698" height="474"></rect>
        <g id="apple" transform="translate(775.000000, 116.000000)">
            <path d="M67.3560163,50.0156134 C52.1574674,45.347756 40.5411651,46.8708315 32.5071096,54.5848399 C20.4560263,66.1558524 13.104,76.1276357 13.104,98.7352425 C13.104,113.80698 23.3414828,133.778056 43.8164484,158.64847 C51.800182,162.860747 57.7193768,164.966885 61.5740326,164.966885 C65.4286884,164.966885 69.9469221,163.967828 75.1287336,161.969714 C77.0369392,161.969714 79.3665066,161.969714 82.1174359,161.969714 C86.2438299,161.969714 97.2240636,164.966885 100.831136,164.966885 C104.438208,164.966885 117.718152,156.214904 120.179898,153.239875 C121.821062,151.256522 125.603925,146.493724 131.528488,138.951481 C140.702501,122.055589 145.289508,111.128909 145.289508,106.171443 C145.289508,98.7352425 147.673759,86.4567043 140.817906,70.5207721 C136.247338,59.8968173 127.64526,53.0617644 115.011673,50.0156134 C101.988805,53.0617644 92.3260247,54.5848399 86.0233331,54.5848399 C79.7206416,54.5848399 73.4982027,53.0617644 67.3560163,50.0156134 Z" id="Path-2" fill="#D9E6F3"></path>
            <path d="M133.609543,66.7930112 C132.915534,65.4014499 131.224976,64.835675 129.833736,65.5293614 C128.442175,66.2230478 127.8764,67.9132842 128.569764,69.3048455 C132.076215,76.3390125 133.854089,84.3742401 133.854089,93.186925 C133.854089,105.655559 128.126424,122.160978 118.906484,136.261854 C109.460041,150.708445 98.477049,159.33329 89.5267868,159.33329 C85.7976988,159.33329 81.796678,158.744962 78.260585,157.676884 C72.7439577,156.010491 66.9115791,156.010491 61.3949518,157.676884 C57.8585366,158.745284 53.8571936,159.33329 50.1281056,159.33329 C41.1778434,159.33329 30.1948513,150.708123 20.7484084,136.261854 C11.5281465,122.160978 5.80080352,105.655559 5.80080352,93.186925 C5.80080352,81.407144 9.0598086,70.8191632 15.225015,62.5674203 C20.4120365,55.625079 27.6427426,50.5401934 35.0619329,48.6163655 C40.6053024,47.1790524 47.9146242,47.5605316 56.2014863,49.7179511 C57.1071772,49.953798 58.0338108,50.1696688 58.9546449,50.3587974 C60.4773397,50.6710046 61.9658818,49.6905645 62.2790556,48.1675475 C62.5922294,46.6445304 61.6108226,45.1563105 60.0878056,44.8431367 C59.2623413,44.6733398 58.4323663,44.4806671 57.6207565,44.269307 C48.2761273,41.8360883 40.2109354,41.4652416 33.6487845,43.1661104 C24.8857177,45.4379092 16.7409437,51.1314217 10.7139591,59.1972579 C3.8160807,68.429441 0.169796904,80.182802 0.169796904,93.186925 C0.169796904,106.690451 6.24897713,124.376715 16.0356582,139.34333 C26.6822785,155.625467 39.1083832,164.963975 50.1277834,164.963975 C54.4548658,164.963975 58.9140483,164.307985 63.0223601,163.067211 C67.4734876,161.72269 72.1797938,161.72269 76.6315658,163.067211 C80.7401998,164.308307 85.19906,164.963975 89.5261424,164.963975 C100.545543,164.963975 112.971647,155.625467 123.618268,139.34333 C133.404304,124.376393 139.484129,106.690451 139.484129,93.186925 C139.484129,83.4946471 137.508105,74.6143012 133.609543,66.7930112 Z" id="Path" fill="#000000" fill-rule="nonzero"></path>
            <path d="M127.731412,57.6462099 C121.853282,50.4171148 114.137672,45.2745562 106.005786,43.1661104 C99.443957,41.4649194 91.378443,41.8357661 82.0334916,44.269307 C80.0091387,44.7967406 77.9303349,45.1962627 75.854753,45.4569187 C74.3120821,45.6505581 73.2185514,47.0582292 73.4121907,48.6012223 C73.6058301,50.1438932 75.0157565,51.2387127 76.5564943,51.0437846 C78.8734004,50.7528422 81.1935285,50.306924 83.4530839,49.7182733 C91.7409126,47.5605316 99.0505566,47.180019 104.592959,48.6166876 C111.57042,50.4261362 118.23664,54.8943402 123.362445,61.1984127 C123.918876,61.8827554 124.730486,62.2378146 125.548539,62.2378146 C126.172954,62.2378146 126.800912,62.0312874 127.322869,61.6069563 C128.52949,60.6258717 128.712175,58.852509 127.731412,57.6462099 Z" id="Path" fill="#000000" fill-rule="nonzero"></path>
            <path d="M146.741255,2.11714507 C145.811077,1.52237262 144.619277,1.52623896 143.692321,2.12681093 C139.649415,4.74883598 135.107428,3.78708312 128.231782,2.33172712 C127.634109,2.20510438 127.02516,2.07654847 126.403968,1.94734817 C124.881917,1.63127462 123.39112,2.60913724 123.075046,4.13183205 C122.758973,5.65452687 123.736835,7.14467996 125.25953,7.46075351 C125.873312,7.58802064 126.475173,7.71560997 127.065435,7.84062173 C132.230547,8.93415245 136.901412,9.92296971 141.302277,9.06335275 C139.185132,16.6281753 133.618886,30.6636454 120.687902,35.6463951 C109.752917,39.8597426 99.4774653,33.9526146 91.2208895,29.2063562 C87.9084,27.3021822 84.9819004,25.6200007 82.3811403,24.8886175 C85.3108618,18.6708933 92.5779759,6.78736541 105.64686,5.79468181 C109.449731,5.50567266 113.231659,5.59943148 117.207871,6.08046901 C118.752797,6.26605348 120.154346,5.16704544 120.34122,3.62373012 C120.528093,2.08009262 119.427796,0.677254443 117.884481,0.490381191 C113.538389,-0.0354414789 109.39528,-0.136932987 105.220918,0.179784957 C96.285799,0.858328181 88.2908458,5.73668666 82.1008304,14.2864602 C78.1371842,19.7615243 76.1205641,25.0568034 75.6082736,26.5121594 L68.1977826,37.7657956 C66.1122126,31.4585011 64.0433968,27.5051652 63.8771441,27.1919914 C63.147694,25.8187952 61.4432811,25.2968389 60.0700849,26.0259668 C58.6968887,26.7550947 58.1749323,28.4595076 58.9040602,29.8327038 C58.9739766,29.9638373 65.4684665,42.3673883 66.7791568,58.6202062 C64.621093,58.3782375 62.6373367,57.8830234 61.091766,57.1828931 C59.2262555,56.3377749 58.6466262,55.4804133 58.6466262,55.2638981 C58.6466262,53.7089838 57.3861983,52.4485559 55.831284,52.4485559 C54.2763696,52.4485559 53.0159418,53.7089838 53.0159418,55.2638981 C53.0159418,56.9225593 53.7634348,60.0443092 58.768416,62.3115973 C61.7683761,63.6709391 65.695292,64.4193987 69.825513,64.4193987 C73.9573451,64.4193987 77.8852275,63.6709391 80.885832,62.3119195 C85.8911354,60.0446314 86.6389507,56.9228815 86.6389507,55.2642203 C86.6389507,53.709306 85.3785228,52.4488781 83.8236084,52.4488781 C82.2686941,52.4488781 81.0082662,53.709306 81.0082662,55.2642203 C81.0082662,55.4807355 80.428637,56.3377749 78.5628042,57.1828931 C76.9115535,57.9310305 74.7589669,58.4439654 72.4288508,58.6653135 C72.059615,53.6622655 71.2389837,49.0113768 70.2408227,44.9014541 L79.9595207,30.1429778 C80.2910596,30.1568322 80.8903428,30.2605791 81.9001027,30.6594569 C83.6747542,31.3615203 85.8714815,32.6242036 88.4152131,34.0863257 C95.0192494,37.8824303 103.451744,42.731469 112.927507,42.7305024 C116.083087,42.7305024 119.355946,42.1921141 122.712899,40.8985001 C143.781247,32.7801461 147.848318,6.02215166 148.011349,4.88705775 C148.168258,3.7957824 147.671433,2.71159533 146.741255,2.11714507 Z" id="Path" fill="#000000" fill-rule="nonzero"></path>
        </g>
        <g id="protest-copy" transform="translate(1271.000000, 125.000000)" fill-rule="nonzero">
            <path d="M51.2544614,100.615173 L51.2544614,149.053686 L39.2581325,149.053686 C32.6311373,149.053686 27.2582554,143.684675 27.2582554,137.057357 L27.2582554,100.615173 L51.2544614,100.615173 Z" id="Path" fill-opacity="0.324956294" fill="#1A66B4"></path>
            <polygon id="Path" fill-opacity="0.165947334" fill="#1A66B4" points="73.6481894 47.9985408 73.6481894 88.9365658 152.045752 118.069862 152.045752 18.8655667"></polygon>
            <g id="Group" fill="#1D2328">
                <path d="M163.830482,50.7561062 L155.898086,46.1880115 C154.636554,45.461929 153.025367,45.8957722 152.299284,47.1566592 C151.572879,48.4178688 152.006723,50.0293786 153.26761,50.7554611 L159.88009,54.5632819 L159.88009,67.1208653 L153.26761,70.9283635 C152.0064,71.6547686 151.572879,73.2662784 152.299284,74.5271654 C152.786995,75.374208 153.673713,75.8480486 154.585267,75.8480486 C155.031368,75.8477261 155.483919,75.7345075 155.898086,75.4958131 L163.830482,70.9277184 C164.647204,70.4571034 165.15072,69.5865139 165.15072,68.6439936 L165.15072,53.0395085 C165.15072,52.0973107 164.647204,51.2267213 163.830482,50.7561062 Z" id="Path"></path>
                <path d="M144.041426,0.28094976 C142.585713,0.28094976 141.406111,1.46087424 141.406111,2.91626496 L141.406111,9.40810752 L65.170345,37.7382298 L10.958976,37.7382298 C4.91613696,37.7379072 0,42.6540442 0,48.6972058 L0,72.9875866 C0,79.0304256 4.91613696,83.9465626 10.958976,83.9465626 L17.4243686,83.9465626 L17.4243686,130.236826 C17.4243686,138.305987 23.9894323,144.87105 32.0585933,144.87105 L44.0571802,144.87105 C45.5125709,144.87105 46.6924954,143.691126 46.6924954,142.235735 L46.6924954,108.917868 L48.2188493,108.917868 C49.67424,108.917868 50.8541645,107.737943 50.8541645,106.282552 C50.8541645,104.827162 49.67424,103.647237 48.2188493,103.647237 L46.6924954,103.647237 L46.6924954,96.432215 L48.2188493,96.432215 C49.67424,96.432215 50.8541645,95.2522906 50.8541645,93.7968998 C50.8541645,92.3415091 49.67424,91.1615846 48.2188493,91.1615846 L46.6924954,91.1615846 L46.6924954,83.9468851 L55.1022797,83.9468851 C56.5576704,83.9468851 57.7375949,82.7669606 57.7375949,81.3115699 C57.7375949,79.8561792 56.5576704,78.6762547 55.1022797,78.6762547 L10.958976,78.6762547 C7.82240256,78.6762547 5.2706304,76.1244826 5.2706304,72.9879091 L5.2706304,48.6975283 C5.2706304,45.5609549 7.82240256,43.0088602 10.958976,43.0088602 L63.0082253,43.0088602 L63.0082253,81.3115699 C63.0082253,82.4127898 63.6930202,83.3982106 64.7258573,83.7817344 L141.405788,112.276685 L141.405788,118.768527 C141.405788,120.223918 142.58539,121.403843 144.041103,121.403843 C145.496817,121.403843 146.676419,120.223918 146.676419,118.768527 L146.676419,2.91658752 C146.676419,1.4611968 145.496817,0.28094976 144.041426,0.28094976 Z M41.421865,139.600097 L32.0585933,139.600097 C26.8956979,139.600097 22.6953216,135.399721 22.6953216,130.236826 L22.6953216,96.432215 L41.421865,96.432215 C41.421865,96.432215 41.421865,139.600097 41.421865,139.600097 Z M41.421865,91.1619072 L22.6953216,91.1619072 L22.6953216,83.9468851 L41.421865,83.9468851 C41.421865,83.9468851 41.421865,91.1619072 41.421865,91.1619072 Z M68.2791782,79.4794291 L68.2791782,42.2053632 L141.405788,15.031296 L141.405788,106.654141 L68.2791782,79.4794291 Z" id="Shape"></path>
            </g>
        </g>
        <g id="Group-2" transform="translate(255.000000, 101.000000)">
            <circle id="Oval" fill="#D9E6F3" cx="38.879718" cy="19.5049052" r="19.5049052"></circle>
            <circle id="Oval-Copy" stroke="#000000" stroke-width="7.2" cx="30.479718" cy="19.5049052" r="19.5049052"></circle>
            <polyline id="Path-3" stroke="#000000" stroke-width="7.2" stroke-linecap="round" stroke-linejoin="round" points="79.2419809 100.283958 152.826024 100.283958 152.826024 193.983006 123.016921 193.983006 123.016921 103.582225"></polyline>
            <path d="M23.9639057,64.5838024 L27.5548101,126.28778 C28.0619971,133.844522 31.1122974,137.622892 36.7057112,137.622892 C42.299125,137.622892 59.7593052,137.622892 89.0862519,137.622892 C91.9194425,138.449019 93.3360378,139.469321 93.3360378,140.683797 C93.3360378,142.505512 90.6502973,182.737004 91.1400945,188.763396 C91.6298916,194.789789 96.6681294,195.212317 100.894085,195.212317 C105.12004,195.212317 107.983898,191.419182 107.983898,188.763396 C107.983898,186.992873 109.054803,170.529984 111.196613,139.37473 C110.743538,129.946649 108.735002,124.272618 105.171008,122.352639 C101.607013,120.432659 89.0060626,117.998999 67.3681574,115.051657 C64.2169687,114.452068 62.6413743,113.611525 62.6413743,112.530029 C62.6413743,111.448533 61.5454621,98.4526313 59.3536375,73.5423251 C59.6184217,72.2772451 60.714334,71.6447052 62.6413743,71.6447052 C65.5319348,71.6447052 68.4366172,76.0613051 75.1559568,78.5123239 C82.9579188,80.0639591 99.8144238,81.2034137 103.899161,80.3817001 C107.983898,79.5599866 109.807378,75.2793092 109.807378,73.5423251 C109.807378,71.8053409 107.725292,68.3755033 105.171008,68.3755033 C102.616723,68.3755033 85.1586201,68.1645586 79.9450198,66.6579367 C74.7314195,65.1513147 63.894686,53.3896869 50.5372073,51.3216801 C37.1797286,49.2536732 31.0861622,51.3216801 31.0861622,51.3216801 C31.0861622,51.3216801 23.9639057,54.0903974 23.9639057,57.931533 C23.9639057,60.4922902 23.9639057,62.7097133 23.9639057,64.5838024 Z" id="Path-4-Copy" fill="#D9E6F3"></path>
            <path d="M15.5639057,64.5838024 L19.1548101,126.28778 C19.6619971,133.844522 22.7122974,137.622892 28.3057112,137.622892 C33.899125,137.622892 51.3593052,137.622892 80.6862519,137.622892 C83.5194425,138.449019 84.9360378,139.469321 84.9360378,140.683797 C84.9360378,142.505512 82.2502973,182.737004 82.7400945,188.763396 C83.2298916,194.789789 88.2681294,195.212317 92.4940847,195.212317 C96.7200401,195.212317 99.5838981,191.419182 99.5838981,188.763396 C99.5838981,186.992873 100.654803,170.529984 102.796613,139.37473 C102.343538,129.946649 100.335002,124.272618 96.7710076,122.352639 C93.2070127,120.432659 80.6060626,117.998999 58.9681574,115.051657 C55.8169687,114.452068 54.2413743,113.611525 54.2413743,112.530029 C54.2413743,111.448533 53.1454621,98.4526313 50.9536375,73.5423251 C51.2184217,72.2772451 52.314334,71.6447052 54.2413743,71.6447052 C57.1319348,71.6447052 60.0366172,76.0613051 66.7559568,78.5123239 C74.5579188,80.0639591 91.4144238,81.2034137 95.499161,80.3817001 C99.5838981,79.5599866 101.407378,75.2793092 101.407378,73.5423251 C101.407378,71.8053409 99.3252922,68.3755033 96.7710076,68.3755033 C94.216723,68.3755033 76.7586201,68.1645586 71.5450198,66.6579367 C66.3314195,65.1513147 55.494686,53.3896869 42.1372073,51.3216801 C28.7797286,49.2536732 22.6861622,51.3216801 22.6861622,51.3216801 C22.6861622,51.3216801 15.5639057,54.0903974 15.5639057,57.931533 C15.5639057,60.4922902 15.5639057,62.7097133 15.5639057,64.5838024 Z" id="Path-4" stroke="#000000" stroke-width="7.2"></path>
            <g id="Group-3" transform="translate(0.000000, 65.597984)" stroke="#000000" stroke-linecap="round" stroke-linejoin="round" stroke-width="7.2">
                <polyline id="Path-5" points="-9.94233731e-13 2.25769848e-13 5.40806264 87.9957676 16.810606 87.9957676 51.9633524 87.9957676 64.1396227 87.9957676"></polyline>
                <line x1="8.79911518" y1="129.603036" x2="15.5639057" y2="88.0427879" id="Path-6"></line>
                <line x1="52.1518348" y1="129.603036" x2="58.9166254" y2="88.0427879" id="Path-6-Copy" transform="translate(55.534230, 108.822912) scale(-1, 1) translate(-55.534230, -108.822912) "></line>
            </g>
        </g>
        <path d="M179.82,393 L179.82,386.052 L184.896,386.052 C187.128,386.052 189.066,385.686 190.71,384.954 C192.354,384.222 193.62,383.166 194.508,381.786 C195.396,380.406 195.84,378.792 195.84,376.944 C195.84,375.072 195.396,373.452 194.508,372.084 C193.62,370.716 192.354,369.66 190.71,368.916 C189.066,368.172 187.128,367.8 184.896,367.8 L184.896,367.8 L173.988,367.8 L173.988,393 L179.82,393 Z M184.572,381.3 L179.82,381.3 L179.82,372.552 L184.572,372.552 C186.324,372.552 187.656,372.93 188.568,373.686 C189.48,374.442 189.936,375.528 189.936,376.944 C189.936,378.336 189.48,379.41 188.568,380.166 C187.656,380.922 186.324,381.3 184.572,381.3 L184.572,381.3 Z M205.41,393 L205.41,383.424 C205.41,381.696 205.83,380.394 206.67,379.518 C207.51,378.642 208.638,378.204 210.054,378.204 C211.326,378.204 212.298,378.582 212.97,379.338 C213.642,380.094 213.978,381.24 213.978,382.776 L213.978,382.776 L213.978,393 L219.594,393 L219.594,381.912 C219.594,379.08 218.856,376.944 217.38,375.504 C215.904,374.064 213.966,373.344 211.566,373.344 C210.318,373.344 209.166,373.542 208.11,373.938 C207.054,374.334 206.154,374.904 205.41,375.648 L205.41,375.648 L205.41,366.288 L199.794,366.288 L199.794,393 L205.41,393 Z M226.608,400.272 C228.456,400.272 230.034,399.816 231.342,398.904 C232.65,397.992 233.748,396.42 234.636,394.188 L234.636,394.188 L243.384,373.632 L237.984,373.632 L232.512,386.772 L227.076,373.632 L221.28,373.632 L229.668,393.144 L229.596,393.324 C229.212,394.188 228.78,394.806 228.3,395.178 C227.82,395.55 227.196,395.736 226.428,395.736 C225.876,395.736 225.318,395.628 224.754,395.412 C224.19,395.196 223.692,394.896 223.26,394.512 L223.26,394.512 L221.208,398.508 C221.832,399.06 222.636,399.492 223.62,399.804 C224.604,400.116 225.6,400.272 226.608,400.272 Z M251.766,393.288 C253.662,393.288 255.3,393.03 256.68,392.514 C258.06,391.998 259.11,391.272 259.83,390.336 C260.55,389.4 260.91,388.332 260.91,387.132 C260.91,385.716 260.538,384.612 259.794,383.82 C259.05,383.028 258.174,382.482 257.166,382.182 C256.158,381.882 254.862,381.6 253.278,381.336 C251.862,381.12 250.83,380.892 250.182,380.652 C249.534,380.412 249.21,379.992 249.21,379.392 C249.21,378.864 249.51,378.432 250.11,378.096 C250.71,377.76 251.61,377.592 252.81,377.592 C254.826,377.592 256.686,378.072 258.39,379.032 L258.39,379.032 L260.262,375.036 C259.374,374.508 258.252,374.094 256.896,373.794 C255.54,373.494 254.178,373.344 252.81,373.344 C250.962,373.344 249.36,373.608 248.004,374.136 C246.648,374.664 245.616,375.402 244.908,376.35 C244.2,377.298 243.846,378.384 243.846,379.608 C243.846,381.072 244.224,382.2 244.98,382.992 C245.736,383.784 246.63,384.336 247.662,384.648 C248.694,384.96 250.002,385.236 251.586,385.476 C252.93,385.644 253.926,385.848 254.574,386.088 C255.222,386.328 255.546,386.724 255.546,387.276 C255.546,388.452 254.358,389.04 251.982,389.04 C250.806,389.04 249.606,388.866 248.382,388.518 C247.158,388.17 246.114,387.72 245.25,387.168 L245.25,387.168 L243.378,391.2 C244.29,391.8 245.514,392.298 247.05,392.694 C248.586,393.09 250.158,393.288 251.766,393.288 Z M267.024,370.932 C268.056,370.932 268.896,370.626 269.544,370.014 C270.192,369.402 270.516,368.628 270.516,367.692 C270.516,366.828 270.192,366.108 269.544,365.532 C268.896,364.956 268.056,364.668 267.024,364.668 C265.992,364.668 265.152,364.968 264.504,365.568 C263.856,366.168 263.532,366.912 263.532,367.8 C263.532,368.688 263.856,369.432 264.504,370.032 C265.152,370.632 265.992,370.932 267.024,370.932 Z M269.832,393 L269.832,373.632 L264.216,373.632 L264.216,393 L269.832,393 Z M284.262,393.288 C286.302,393.288 288.084,392.856 289.608,391.992 C291.132,391.128 292.242,389.928 292.938,388.392 L292.938,388.392 L288.582,386.016 C287.598,387.792 286.146,388.68 284.226,388.68 C282.762,388.68 281.55,388.2 280.59,387.24 C279.63,386.28 279.15,384.972 279.15,383.316 C279.15,381.66 279.63,380.352 280.59,379.392 C281.55,378.432 282.762,377.952 284.226,377.952 C286.122,377.952 287.574,378.84 288.582,380.616 L288.582,380.616 L292.938,378.276 C292.242,376.692 291.132,375.474 289.608,374.622 C288.084,373.77 286.302,373.344 284.262,373.344 C282.198,373.344 280.344,373.77 278.7,374.622 C277.056,375.474 275.772,376.656 274.848,378.168 C273.924,379.68 273.462,381.396 273.462,383.316 C273.462,385.236 273.924,386.952 274.848,388.464 C275.772,389.976 277.056,391.158 278.7,392.01 C280.344,392.862 282.198,393.288 284.262,393.288 Z M302.004,393.288 C304.884,393.288 306.852,392.388 307.908,390.588 L307.908,390.588 L307.908,393 L313.164,393 L313.164,381.948 C313.164,379.068 312.36,376.914 310.752,375.486 C309.144,374.058 306.84,373.344 303.84,373.344 C302.28,373.344 300.762,373.548 299.286,373.956 C297.81,374.364 296.544,374.94 295.488,375.684 L295.488,375.684 L297.504,379.608 C298.2,379.056 299.046,378.618 300.042,378.294 C301.038,377.97 302.052,377.808 303.084,377.808 C304.572,377.808 305.688,378.138 306.432,378.798 C307.176,379.458 307.548,380.4 307.548,381.624 L307.548,381.624 L303.084,381.624 C300.252,381.624 298.158,382.14 296.802,383.172 C295.446,384.204 294.768,385.62 294.768,387.42 C294.768,388.548 295.056,389.556 295.632,390.444 C296.208,391.332 297.042,392.028 298.134,392.532 C299.226,393.036 300.516,393.288 302.004,393.288 Z M303.408,389.508 C302.424,389.508 301.65,389.298 301.086,388.878 C300.522,388.458 300.24,387.888 300.24,387.168 C300.24,385.656 301.392,384.9 303.696,384.9 L303.696,384.9 L307.548,384.9 L307.548,386.88 C307.236,387.744 306.708,388.398 305.964,388.842 C305.22,389.286 304.368,389.508 303.408,389.508 Z M323.706,393 L323.706,366.288 L318.09,366.288 L318.09,393 L323.706,393 Z M341.622,370.932 C342.654,370.932 343.494,370.626 344.142,370.014 C344.79,369.402 345.114,368.628 345.114,367.692 C345.114,366.828 344.79,366.108 344.142,365.532 C343.494,364.956 342.654,364.668 341.622,364.668 C340.59,364.668 339.75,364.968 339.102,365.568 C338.454,366.168 338.13,366.912 338.13,367.8 C338.13,368.688 338.454,369.432 339.102,370.032 C339.75,370.632 340.59,370.932 341.622,370.932 Z M344.43,393 L344.43,373.632 L338.814,373.632 L338.814,393 L344.43,393 Z M355.116,393 L355.116,383.424 C355.116,381.696 355.536,380.394 356.376,379.518 C357.216,378.642 358.344,378.204 359.76,378.204 C361.032,378.204 362.004,378.582 362.676,379.338 C363.348,380.094 363.684,381.24 363.684,382.776 L363.684,382.776 L363.684,393 L369.3,393 L369.3,381.912 C369.3,379.08 368.562,376.944 367.086,375.504 C365.61,374.064 363.672,373.344 361.272,373.344 C359.952,373.344 358.74,373.566 357.636,374.01 C356.532,374.454 355.608,375.084 354.864,375.9 L354.864,375.9 L354.864,373.632 L349.5,373.632 L349.5,393 L355.116,393 Z M380.202,393.288 C383.082,393.288 385.05,392.388 386.106,390.588 L386.106,390.588 L386.106,393 L391.362,393 L391.362,381.948 C391.362,379.068 390.558,376.914 388.95,375.486 C387.342,374.058 385.038,373.344 382.038,373.344 C380.478,373.344 378.96,373.548 377.484,373.956 C376.008,374.364 374.742,374.94 373.686,375.684 L373.686,375.684 L375.702,379.608 C376.398,379.056 377.244,378.618 378.24,378.294 C379.236,377.97 380.25,377.808 381.282,377.808 C382.77,377.808 383.886,378.138 384.63,378.798 C385.374,379.458 385.746,380.4 385.746,381.624 L385.746,381.624 L381.282,381.624 C378.45,381.624 376.356,382.14 375,383.172 C373.644,384.204 372.966,385.62 372.966,387.42 C372.966,388.548 373.254,389.556 373.83,390.444 C374.406,391.332 375.24,392.028 376.332,392.532 C377.424,393.036 378.714,393.288 380.202,393.288 Z M381.606,389.508 C380.622,389.508 379.848,389.298 379.284,388.878 C378.72,388.458 378.438,387.888 378.438,387.168 C378.438,385.656 379.59,384.9 381.894,384.9 L381.894,384.9 L385.746,384.9 L385.746,386.88 C385.434,387.744 384.906,388.398 384.162,388.842 C383.418,389.286 382.566,389.508 381.606,389.508 Z M405.864,393.288 C407.904,393.288 409.686,392.856 411.21,391.992 C412.734,391.128 413.844,389.928 414.54,388.392 L414.54,388.392 L410.184,386.016 C409.2,387.792 407.748,388.68 405.828,388.68 C404.364,388.68 403.152,388.2 402.192,387.24 C401.232,386.28 400.752,384.972 400.752,383.316 C400.752,381.66 401.232,380.352 402.192,379.392 C403.152,378.432 404.364,377.952 405.828,377.952 C407.724,377.952 409.176,378.84 410.184,380.616 L410.184,380.616 L414.54,378.276 C413.844,376.692 412.734,375.474 411.21,374.622 C409.686,373.77 407.904,373.344 405.864,373.344 C403.8,373.344 401.946,373.77 400.302,374.622 C398.658,375.474 397.374,376.656 396.45,378.168 C395.526,379.68 395.064,381.396 395.064,383.316 C395.064,385.236 395.526,386.952 396.45,388.464 C397.374,389.976 398.658,391.158 400.302,392.01 C401.946,392.862 403.8,393.288 405.864,393.288 Z M425.838,393.288 C426.726,393.288 427.572,393.186 428.376,392.982 C429.18,392.778 429.858,392.472 430.41,392.064 L430.41,392.064 L428.898,388.104 C428.274,388.584 427.518,388.824 426.63,388.824 C425.862,388.824 425.268,388.602 424.848,388.158 C424.428,387.714 424.218,387.084 424.218,386.268 L424.218,386.268 L424.218,378.384 L429.042,378.384 L429.042,374.064 L424.218,374.064 L424.218,369.348 L418.602,369.348 L418.602,374.064 L415.614,374.064 L415.614,378.384 L418.602,378.384 L418.602,386.34 C418.602,388.62 419.232,390.348 420.492,391.524 C421.752,392.7 423.534,393.288 425.838,393.288 Z M436.236,370.932 C437.268,370.932 438.108,370.626 438.756,370.014 C439.404,369.402 439.728,368.628 439.728,367.692 C439.728,366.828 439.404,366.108 438.756,365.532 C438.108,364.956 437.268,364.668 436.236,364.668 C435.204,364.668 434.364,364.968 433.716,365.568 C433.068,366.168 432.744,366.912 432.744,367.8 C432.744,368.688 433.068,369.432 433.716,370.032 C434.364,370.632 435.204,370.932 436.236,370.932 Z M439.044,393 L439.044,373.632 L433.428,373.632 L433.428,393 L439.044,393 Z M455.166,393 L463.338,373.632 L457.938,373.632 L452.394,386.808 L447.03,373.632 L441.234,373.632 L449.37,393 L455.166,393 Z M468.3,370.932 C469.332,370.932 470.172,370.626 470.82,370.014 C471.468,369.402 471.792,368.628 471.792,367.692 C471.792,366.828 471.468,366.108 470.82,365.532 C470.172,364.956 469.332,364.668 468.3,364.668 C467.268,364.668 466.428,364.968 465.78,365.568 C465.132,366.168 464.808,366.912 464.808,367.8 C464.808,368.688 465.132,369.432 465.78,370.032 C466.428,370.632 467.268,370.932 468.3,370.932 Z M471.108,393 L471.108,373.632 L465.492,373.632 L465.492,393 L471.108,393 Z M484.098,393.288 C484.986,393.288 485.832,393.186 486.636,392.982 C487.44,392.778 488.118,392.472 488.67,392.064 L488.67,392.064 L487.158,388.104 C486.534,388.584 485.778,388.824 484.89,388.824 C484.122,388.824 483.528,388.602 483.108,388.158 C482.688,387.714 482.478,387.084 482.478,386.268 L482.478,386.268 L482.478,378.384 L487.302,378.384 L487.302,374.064 L482.478,374.064 L482.478,369.348 L476.862,369.348 L476.862,374.064 L473.874,374.064 L473.874,378.384 L476.862,378.384 L476.862,386.34 C476.862,388.62 477.492,390.348 478.752,391.524 C480.012,392.7 481.794,393.288 484.098,393.288 Z M493.776,400.272 C495.624,400.272 497.202,399.816 498.51,398.904 C499.818,397.992 500.916,396.42 501.804,394.188 L501.804,394.188 L510.552,373.632 L505.152,373.632 L499.68,386.772 L494.244,373.632 L488.448,373.632 L496.836,393.144 L496.764,393.324 C496.38,394.188 495.948,394.806 495.468,395.178 C494.988,395.55 494.364,395.736 493.596,395.736 C493.044,395.736 492.486,395.628 491.922,395.412 C491.358,395.196 490.86,394.896 490.428,394.512 L490.428,394.512 L488.376,398.508 C489,399.06 489.804,399.492 490.788,399.804 C491.772,400.116 492.768,400.272 493.776,400.272 Z" id="Physicalinactivity" fill="#232323" fill-rule="nonzero"></path>
        <path d="M724.244,393.432 C727.844,393.432 730.646,392.436 732.65,390.444 C734.654,388.452 735.656,385.608 735.656,381.912 L735.656,381.912 L735.656,367.8 L729.896,367.8 L729.896,381.696 C729.896,384.024 729.416,385.734 728.456,386.826 C727.496,387.918 726.104,388.464 724.28,388.464 C720.536,388.464 718.664,386.208 718.664,381.696 L718.664,381.696 L718.664,367.8 L712.832,367.8 L712.832,381.912 C712.832,385.608 713.834,388.452 715.838,390.444 C717.842,392.436 720.644,393.432 724.244,393.432 Z M746.486,393 L746.486,383.424 C746.486,381.696 746.906,380.394 747.746,379.518 C748.586,378.642 749.714,378.204 751.13,378.204 C752.402,378.204 753.374,378.582 754.046,379.338 C754.718,380.094 755.054,381.24 755.054,382.776 L755.054,382.776 L755.054,393 L760.67,393 L760.67,381.912 C760.67,379.08 759.932,376.944 758.456,375.504 C756.98,374.064 755.042,373.344 752.642,373.344 C751.322,373.344 750.11,373.566 749.006,374.01 C747.902,374.454 746.978,375.084 746.234,375.9 L746.234,375.9 L746.234,373.632 L740.87,373.632 L740.87,393 L746.486,393 Z M771.212,393 L771.212,383.424 C771.212,381.696 771.632,380.394 772.472,379.518 C773.312,378.642 774.44,378.204 775.856,378.204 C777.128,378.204 778.1,378.582 778.772,379.338 C779.444,380.094 779.78,381.24 779.78,382.776 L779.78,382.776 L779.78,393 L785.396,393 L785.396,381.912 C785.396,379.08 784.658,376.944 783.182,375.504 C781.706,374.064 779.768,373.344 777.368,373.344 C776.12,373.344 774.968,373.542 773.912,373.938 C772.856,374.334 771.956,374.904 771.212,375.648 L771.212,375.648 L771.212,366.288 L765.596,366.288 L765.596,393 L771.212,393 Z M800.15,393.288 C803.654,393.288 806.318,392.244 808.142,390.156 L808.142,390.156 L805.154,386.916 C804.482,387.564 803.756,388.038 802.976,388.338 C802.196,388.638 801.302,388.788 800.294,388.788 C798.83,388.788 797.606,388.44 796.622,387.744 C795.638,387.048 795.014,386.1 794.75,384.9 L794.75,384.9 L809.402,384.9 C809.474,383.964 809.51,383.46 809.51,383.388 C809.51,381.372 809.072,379.602 808.196,378.078 C807.32,376.554 806.114,375.384 804.578,374.568 C803.042,373.752 801.326,373.344 799.43,373.344 C797.486,373.344 795.728,373.77 794.156,374.622 C792.584,375.474 791.348,376.662 790.448,378.186 C789.548,379.71 789.098,381.42 789.098,383.316 C789.098,385.236 789.554,386.952 790.466,388.464 C791.378,389.976 792.674,391.158 794.354,392.01 C796.034,392.862 797.966,393.288 800.15,393.288 Z M804.218,381.624 L794.678,381.624 C794.87,380.376 795.398,379.392 796.262,378.672 C797.126,377.952 798.194,377.592 799.466,377.592 C800.714,377.592 801.77,377.958 802.634,378.69 C803.498,379.422 804.026,380.4 804.218,381.624 L804.218,381.624 Z M818.54,393.288 C821.42,393.288 823.388,392.388 824.444,390.588 L824.444,390.588 L824.444,393 L829.7,393 L829.7,381.948 C829.7,379.068 828.896,376.914 827.288,375.486 C825.68,374.058 823.376,373.344 820.376,373.344 C818.816,373.344 817.298,373.548 815.822,373.956 C814.346,374.364 813.08,374.94 812.024,375.684 L812.024,375.684 L814.04,379.608 C814.736,379.056 815.582,378.618 816.578,378.294 C817.574,377.97 818.588,377.808 819.62,377.808 C821.108,377.808 822.224,378.138 822.968,378.798 C823.712,379.458 824.084,380.4 824.084,381.624 L824.084,381.624 L819.62,381.624 C816.788,381.624 814.694,382.14 813.338,383.172 C811.982,384.204 811.304,385.62 811.304,387.42 C811.304,388.548 811.592,389.556 812.168,390.444 C812.744,391.332 813.578,392.028 814.67,392.532 C815.762,393.036 817.052,393.288 818.54,393.288 Z M819.944,389.508 C818.96,389.508 818.186,389.298 817.622,388.878 C817.058,388.458 816.776,387.888 816.776,387.168 C816.776,385.656 817.928,384.9 820.232,384.9 L820.232,384.9 L824.084,384.9 L824.084,386.88 C823.772,387.744 823.244,388.398 822.5,388.842 C821.756,389.286 820.904,389.508 819.944,389.508 Z M840.242,393 L840.242,366.288 L834.626,366.288 L834.626,393 L840.242,393 Z M854.636,393.288 C855.524,393.288 856.37,393.186 857.174,392.982 C857.978,392.778 858.656,392.472 859.208,392.064 L859.208,392.064 L857.696,388.104 C857.072,388.584 856.316,388.824 855.428,388.824 C854.66,388.824 854.066,388.602 853.646,388.158 C853.226,387.714 853.016,387.084 853.016,386.268 L853.016,386.268 L853.016,378.384 L857.84,378.384 L857.84,374.064 L853.016,374.064 L853.016,369.348 L847.4,369.348 L847.4,374.064 L844.412,374.064 L844.412,378.384 L847.4,378.384 L847.4,386.34 C847.4,388.62 848.03,390.348 849.29,391.524 C850.55,392.7 852.332,393.288 854.636,393.288 Z M867.842,393 L867.842,383.424 C867.842,381.696 868.262,380.394 869.102,379.518 C869.942,378.642 871.07,378.204 872.486,378.204 C873.758,378.204 874.73,378.582 875.402,379.338 C876.074,380.094 876.41,381.24 876.41,382.776 L876.41,382.776 L876.41,393 L882.026,393 L882.026,381.912 C882.026,379.08 881.288,376.944 879.812,375.504 C878.336,374.064 876.398,373.344 873.998,373.344 C872.75,373.344 871.598,373.542 870.542,373.938 C869.486,374.334 868.586,374.904 867.842,375.648 L867.842,375.648 L867.842,366.288 L862.226,366.288 L862.226,393 L867.842,393 Z M889.04,400.272 C890.888,400.272 892.466,399.816 893.774,398.904 C895.082,397.992 896.18,396.42 897.068,394.188 L897.068,394.188 L905.816,373.632 L900.416,373.632 L894.944,386.772 L889.508,373.632 L883.712,373.632 L892.1,393.144 L892.028,393.324 C891.644,394.188 891.212,394.806 890.732,395.178 C890.252,395.55 889.628,395.736 888.86,395.736 C888.308,395.736 887.75,395.628 887.186,395.412 C886.622,395.196 886.124,394.896 885.692,394.512 L885.692,394.512 L883.64,398.508 C884.264,399.06 885.068,399.492 886.052,399.804 C887.036,400.116 888.032,400.272 889.04,400.272 Z M926.324,393.288 C928.964,393.288 930.98,392.448 932.372,390.768 L932.372,390.768 L932.372,393 L937.736,393 L937.736,366.288 L932.12,366.288 L932.12,375.684 C930.728,374.124 928.796,373.344 926.324,373.344 C924.5,373.344 922.85,373.752 921.374,374.568 C919.898,375.384 918.74,376.548 917.9,378.06 C917.06,379.572 916.64,381.324 916.64,383.316 C916.64,385.308 917.06,387.06 917.9,388.572 C918.74,390.084 919.898,391.248 921.374,392.064 C922.85,392.88 924.5,393.288 926.324,393.288 Z M927.296,388.68 C925.856,388.68 924.668,388.194 923.732,387.222 C922.796,386.25 922.328,384.948 922.328,383.316 C922.328,381.684 922.796,380.382 923.732,379.41 C924.668,378.438 925.856,377.952 927.296,377.952 C928.712,377.952 929.888,378.438 930.824,379.41 C931.76,380.382 932.228,381.684 932.228,383.316 C932.228,384.948 931.76,386.25 930.824,387.222 C929.888,388.194 928.712,388.68 927.296,388.68 Z M945.578,370.932 C946.61,370.932 947.45,370.626 948.098,370.014 C948.746,369.402 949.07,368.628 949.07,367.692 C949.07,366.828 948.746,366.108 948.098,365.532 C947.45,364.956 946.61,364.668 945.578,364.668 C944.546,364.668 943.706,364.968 943.058,365.568 C942.41,366.168 942.086,366.912 942.086,367.8 C942.086,368.688 942.41,369.432 943.058,370.032 C943.706,370.632 944.546,370.932 945.578,370.932 Z M948.386,393 L948.386,373.632 L942.77,373.632 L942.77,393 L948.386,393 Z M963.068,393.288 C966.572,393.288 969.236,392.244 971.06,390.156 L971.06,390.156 L968.072,386.916 C967.4,387.564 966.674,388.038 965.894,388.338 C965.114,388.638 964.22,388.788 963.212,388.788 C961.748,388.788 960.524,388.44 959.54,387.744 C958.556,387.048 957.932,386.1 957.668,384.9 L957.668,384.9 L972.32,384.9 C972.392,383.964 972.428,383.46 972.428,383.388 C972.428,381.372 971.99,379.602 971.114,378.078 C970.238,376.554 969.032,375.384 967.496,374.568 C965.96,373.752 964.244,373.344 962.348,373.344 C960.404,373.344 958.646,373.77 957.074,374.622 C955.502,375.474 954.266,376.662 953.366,378.186 C952.466,379.71 952.016,381.42 952.016,383.316 C952.016,385.236 952.472,386.952 953.384,388.464 C954.296,389.976 955.592,391.158 957.272,392.01 C958.952,392.862 960.884,393.288 963.068,393.288 Z M967.136,381.624 L957.596,381.624 C957.788,380.376 958.316,379.392 959.18,378.672 C960.044,377.952 961.112,377.592 962.384,377.592 C963.632,377.592 964.688,377.958 965.552,378.69 C966.416,379.422 966.944,380.4 967.136,381.624 L967.136,381.624 Z M983.942,393.288 C984.83,393.288 985.676,393.186 986.48,392.982 C987.284,392.778 987.962,392.472 988.514,392.064 L988.514,392.064 L987.002,388.104 C986.378,388.584 985.622,388.824 984.734,388.824 C983.966,388.824 983.372,388.602 982.952,388.158 C982.532,387.714 982.322,387.084 982.322,386.268 L982.322,386.268 L982.322,378.384 L987.146,378.384 L987.146,374.064 L982.322,374.064 L982.322,369.348 L976.706,369.348 L976.706,374.064 L973.718,374.064 L973.718,378.384 L976.706,378.384 L976.706,386.34 C976.706,388.62 977.336,390.348 978.596,391.524 C979.856,392.7 981.638,393.288 983.942,393.288 Z" id="Unhealthydiet" fill="#232323" fill-rule="nonzero"></path>
        <path d="M1209.456,393 L1209.456,388.248 L1196.82,388.248 L1196.82,367.8 L1190.988,367.8 L1190.988,393 L1209.456,393 Z M1218.378,393.288 C1221.258,393.288 1223.226,392.388 1224.282,390.588 L1224.282,390.588 L1224.282,393 L1229.538,393 L1229.538,381.948 C1229.538,379.068 1228.734,376.914 1227.126,375.486 C1225.518,374.058 1223.214,373.344 1220.214,373.344 C1218.654,373.344 1217.136,373.548 1215.66,373.956 C1214.184,374.364 1212.918,374.94 1211.862,375.684 L1211.862,375.684 L1213.878,379.608 C1214.574,379.056 1215.42,378.618 1216.416,378.294 C1217.412,377.97 1218.426,377.808 1219.458,377.808 C1220.946,377.808 1222.062,378.138 1222.806,378.798 C1223.55,379.458 1223.922,380.4 1223.922,381.624 L1223.922,381.624 L1219.458,381.624 C1216.626,381.624 1214.532,382.14 1213.176,383.172 C1211.82,384.204 1211.142,385.62 1211.142,387.42 C1211.142,388.548 1211.43,389.556 1212.006,390.444 C1212.582,391.332 1213.416,392.028 1214.508,392.532 C1215.6,393.036 1216.89,393.288 1218.378,393.288 Z M1219.782,389.508 C1218.798,389.508 1218.024,389.298 1217.46,388.878 C1216.896,388.458 1216.614,387.888 1216.614,387.168 C1216.614,385.656 1217.766,384.9 1220.07,384.9 L1220.07,384.9 L1223.922,384.9 L1223.922,386.88 C1223.61,387.744 1223.082,388.398 1222.338,388.842 C1221.594,389.286 1220.742,389.508 1219.782,389.508 Z M1244.04,393.288 C1246.08,393.288 1247.862,392.856 1249.386,391.992 C1250.91,391.128 1252.02,389.928 1252.716,388.392 L1252.716,388.392 L1248.36,386.016 C1247.376,387.792 1245.924,388.68 1244.004,388.68 C1242.54,388.68 1241.328,388.2 1240.368,387.24 C1239.408,386.28 1238.928,384.972 1238.928,383.316 C1238.928,381.66 1239.408,380.352 1240.368,379.392 C1241.328,378.432 1242.54,377.952 1244.004,377.952 C1245.9,377.952 1247.352,378.84 1248.36,380.616 L1248.36,380.616 L1252.716,378.276 C1252.02,376.692 1250.91,375.474 1249.386,374.622 C1247.862,373.77 1246.08,373.344 1244.04,373.344 C1241.976,373.344 1240.122,373.77 1238.478,374.622 C1236.834,375.474 1235.55,376.656 1234.626,378.168 C1233.702,379.68 1233.24,381.396 1233.24,383.316 C1233.24,385.236 1233.702,386.952 1234.626,388.464 C1235.55,389.976 1236.834,391.158 1238.478,392.01 C1240.122,392.862 1241.976,393.288 1244.04,393.288 Z M1261.278,393 L1261.278,388.068 L1263.978,385.404 L1270.098,393 L1276.902,393 L1268.118,381.84 L1276.182,373.632 L1269.486,373.632 L1261.278,381.408 L1261.278,366.288 L1255.662,366.288 L1255.662,393 L1261.278,393 Z M1298.526,393.288 C1300.566,393.288 1302.39,392.862 1303.998,392.01 C1305.606,391.158 1306.866,389.976 1307.778,388.464 C1308.69,386.952 1309.146,385.236 1309.146,383.316 C1309.146,381.396 1308.69,379.68 1307.778,378.168 C1306.866,376.656 1305.606,375.474 1303.998,374.622 C1302.39,373.77 1300.566,373.344 1298.526,373.344 C1296.486,373.344 1294.656,373.77 1293.036,374.622 C1291.416,375.474 1290.15,376.656 1289.238,378.168 C1288.326,379.68 1287.87,381.396 1287.87,383.316 C1287.87,385.236 1288.326,386.952 1289.238,388.464 C1290.15,389.976 1291.416,391.158 1293.036,392.01 C1294.656,392.862 1296.486,393.288 1298.526,393.288 Z M1298.526,388.68 C1297.086,388.68 1295.898,388.194 1294.962,387.222 C1294.026,386.25 1293.558,384.948 1293.558,383.316 C1293.558,381.684 1294.026,380.382 1294.962,379.41 C1295.898,378.438 1297.086,377.952 1298.526,377.952 C1299.966,377.952 1301.148,378.438 1302.072,379.41 C1302.996,380.382 1303.458,381.684 1303.458,383.316 C1303.458,384.948 1302.996,386.25 1302.072,387.222 C1301.148,388.194 1299.966,388.68 1298.526,388.68 Z M1319.04,393 L1319.04,378.384 L1323.864,378.384 L1323.864,374.064 L1318.896,374.064 L1318.896,373.236 C1318.896,371.364 1319.748,370.428 1321.452,370.428 C1322.316,370.428 1323.072,370.656 1323.72,371.112 L1323.72,371.112 L1325.196,367.044 C1324.692,366.708 1324.062,366.45 1323.306,366.27 C1322.55,366.09 1321.752,366 1320.912,366 C1318.536,366 1316.694,366.648 1315.386,367.944 C1314.078,369.24 1313.424,370.992 1313.424,373.2 L1313.424,373.2 L1313.424,374.064 L1310.436,374.064 L1310.436,378.384 L1313.424,378.384 L1313.424,393 L1319.04,393 Z M1339.62,393 L1341.852,387.6 L1353.552,387.6 L1355.784,393 L1361.904,393 L1350.636,367.8 L1344.876,367.8 L1333.644,393 L1339.62,393 Z M1351.716,383.172 L1343.724,383.172 L1347.72,373.524 L1351.716,383.172 Z M1372.806,393 L1377.306,380.976 L1381.662,393 L1387.062,393 L1394.082,373.632 L1389.114,373.632 L1384.398,386.736 L1379.79,373.632 L1375.038,373.632 L1370.286,386.736 L1365.714,373.632 L1360.422,373.632 L1367.406,393 L1372.806,393 Z M1401.888,393.288 C1404.768,393.288 1406.736,392.388 1407.792,390.588 L1407.792,390.588 L1407.792,393 L1413.048,393 L1413.048,381.948 C1413.048,379.068 1412.244,376.914 1410.636,375.486 C1409.028,374.058 1406.724,373.344 1403.724,373.344 C1402.164,373.344 1400.646,373.548 1399.17,373.956 C1397.694,374.364 1396.428,374.94 1395.372,375.684 L1395.372,375.684 L1397.388,379.608 C1398.084,379.056 1398.93,378.618 1399.926,378.294 C1400.922,377.97 1401.936,377.808 1402.968,377.808 C1404.456,377.808 1405.572,378.138 1406.316,378.798 C1407.06,379.458 1407.432,380.4 1407.432,381.624 L1407.432,381.624 L1402.968,381.624 C1400.136,381.624 1398.042,382.14 1396.686,383.172 C1395.33,384.204 1394.652,385.62 1394.652,387.42 C1394.652,388.548 1394.94,389.556 1395.516,390.444 C1396.092,391.332 1396.926,392.028 1398.018,392.532 C1399.11,393.036 1400.4,393.288 1401.888,393.288 Z M1403.292,389.508 C1402.308,389.508 1401.534,389.298 1400.97,388.878 C1400.406,388.458 1400.124,387.888 1400.124,387.168 C1400.124,385.656 1401.276,384.9 1403.58,384.9 L1403.58,384.9 L1407.432,384.9 L1407.432,386.88 C1407.12,387.744 1406.592,388.398 1405.848,388.842 C1405.104,389.286 1404.252,389.508 1403.292,389.508 Z M1423.59,393 L1423.59,383.856 C1423.59,382.056 1424.046,380.706 1424.958,379.806 C1425.87,378.906 1427.13,378.456 1428.738,378.456 C1428.954,378.456 1429.374,378.48 1429.998,378.528 L1429.998,378.528 L1429.998,373.344 C1428.51,373.344 1427.196,373.584 1426.056,374.064 C1424.916,374.544 1424.01,375.252 1423.338,376.188 L1423.338,376.188 L1423.338,373.632 L1417.974,373.632 L1417.974,393 L1423.59,393 Z M1442.628,393.288 C1446.132,393.288 1448.796,392.244 1450.62,390.156 L1450.62,390.156 L1447.632,386.916 C1446.96,387.564 1446.234,388.038 1445.454,388.338 C1444.674,388.638 1443.78,388.788 1442.772,388.788 C1441.308,388.788 1440.084,388.44 1439.1,387.744 C1438.116,387.048 1437.492,386.1 1437.228,384.9 L1437.228,384.9 L1451.88,384.9 C1451.952,383.964 1451.988,383.46 1451.988,383.388 C1451.988,381.372 1451.55,379.602 1450.674,378.078 C1449.798,376.554 1448.592,375.384 1447.056,374.568 C1445.52,373.752 1443.804,373.344 1441.908,373.344 C1439.964,373.344 1438.206,373.77 1436.634,374.622 C1435.062,375.474 1433.826,376.662 1432.926,378.186 C1432.026,379.71 1431.576,381.42 1431.576,383.316 C1431.576,385.236 1432.032,386.952 1432.944,388.464 C1433.856,389.976 1435.152,391.158 1436.832,392.01 C1438.512,392.862 1440.444,393.288 1442.628,393.288 Z M1446.696,381.624 L1437.156,381.624 C1437.348,380.376 1437.876,379.392 1438.74,378.672 C1439.604,377.952 1440.672,377.592 1441.944,377.592 C1443.192,377.592 1444.248,377.958 1445.112,378.69 C1445.976,379.422 1446.504,380.4 1446.696,381.624 L1446.696,381.624 Z M1461.198,393 L1461.198,383.424 C1461.198,381.696 1461.618,380.394 1462.458,379.518 C1463.298,378.642 1464.426,378.204 1465.842,378.204 C1467.114,378.204 1468.086,378.582 1468.758,379.338 C1469.43,380.094 1469.766,381.24 1469.766,382.776 L1469.766,382.776 L1469.766,393 L1475.382,393 L1475.382,381.912 C1475.382,379.08 1474.644,376.944 1473.168,375.504 C1471.692,374.064 1469.754,373.344 1467.354,373.344 C1466.034,373.344 1464.822,373.566 1463.718,374.01 C1462.614,374.454 1461.69,375.084 1460.946,375.9 L1460.946,375.9 L1460.946,373.632 L1455.582,373.632 L1455.582,393 L1461.198,393 Z M1490.136,393.288 C1493.64,393.288 1496.304,392.244 1498.128,390.156 L1498.128,390.156 L1495.14,386.916 C1494.468,387.564 1493.742,388.038 1492.962,388.338 C1492.182,388.638 1491.288,388.788 1490.28,388.788 C1488.816,388.788 1487.592,388.44 1486.608,387.744 C1485.624,387.048 1485,386.1 1484.736,384.9 L1484.736,384.9 L1499.388,384.9 C1499.46,383.964 1499.496,383.46 1499.496,383.388 C1499.496,381.372 1499.058,379.602 1498.182,378.078 C1497.306,376.554 1496.1,375.384 1494.564,374.568 C1493.028,373.752 1491.312,373.344 1489.416,373.344 C1487.472,373.344 1485.714,373.77 1484.142,374.622 C1482.57,375.474 1481.334,376.662 1480.434,378.186 C1479.534,379.71 1479.084,381.42 1479.084,383.316 C1479.084,385.236 1479.54,386.952 1480.452,388.464 C1481.364,389.976 1482.66,391.158 1484.34,392.01 C1486.02,392.862 1487.952,393.288 1490.136,393.288 Z M1494.204,381.624 L1484.664,381.624 C1484.856,380.376 1485.384,379.392 1486.248,378.672 C1487.112,377.952 1488.18,377.592 1489.452,377.592 C1490.7,377.592 1491.756,377.958 1492.62,378.69 C1493.484,379.422 1494.012,380.4 1494.204,381.624 L1494.204,381.624 Z M1509.606,393.288 C1511.502,393.288 1513.14,393.03 1514.52,392.514 C1515.9,391.998 1516.95,391.272 1517.67,390.336 C1518.39,389.4 1518.75,388.332 1518.75,387.132 C1518.75,385.716 1518.378,384.612 1517.634,383.82 C1516.89,383.028 1516.014,382.482 1515.006,382.182 C1513.998,381.882 1512.702,381.6 1511.118,381.336 C1509.702,381.12 1508.67,380.892 1508.022,380.652 C1507.374,380.412 1507.05,379.992 1507.05,379.392 C1507.05,378.864 1507.35,378.432 1507.95,378.096 C1508.55,377.76 1509.45,377.592 1510.65,377.592 C1512.666,377.592 1514.526,378.072 1516.23,379.032 L1516.23,379.032 L1518.102,375.036 C1517.214,374.508 1516.092,374.094 1514.736,373.794 C1513.38,373.494 1512.018,373.344 1510.65,373.344 C1508.802,373.344 1507.2,373.608 1505.844,374.136 C1504.488,374.664 1503.456,375.402 1502.748,376.35 C1502.04,377.298 1501.686,378.384 1501.686,379.608 C1501.686,381.072 1502.064,382.2 1502.82,382.992 C1503.576,383.784 1504.47,384.336 1505.502,384.648 C1506.534,384.96 1507.842,385.236 1509.426,385.476 C1510.77,385.644 1511.766,385.848 1512.414,386.088 C1513.062,386.328 1513.386,386.724 1513.386,387.276 C1513.386,388.452 1512.198,389.04 1509.822,389.04 C1508.646,389.04 1507.446,388.866 1506.222,388.518 C1504.998,388.17 1503.954,387.72 1503.09,387.168 L1503.09,387.168 L1501.218,391.2 C1502.13,391.8 1503.354,392.298 1504.89,392.694 C1506.426,393.09 1507.998,393.288 1509.606,393.288 Z M1528.572,393.288 C1530.468,393.288 1532.106,393.03 1533.486,392.514 C1534.866,391.998 1535.916,391.272 1536.636,390.336 C1537.356,389.4 1537.716,388.332 1537.716,387.132 C1537.716,385.716 1537.344,384.612 1536.6,383.82 C1535.856,383.028 1534.98,382.482 1533.972,382.182 C1532.964,381.882 1531.668,381.6 1530.084,381.336 C1528.668,381.12 1527.636,380.892 1526.988,380.652 C1526.34,380.412 1526.016,379.992 1526.016,379.392 C1526.016,378.864 1526.316,378.432 1526.916,378.096 C1527.516,377.76 1528.416,377.592 1529.616,377.592 C1531.632,377.592 1533.492,378.072 1535.196,379.032 L1535.196,379.032 L1537.068,375.036 C1536.18,374.508 1535.058,374.094 1533.702,373.794 C1532.346,373.494 1530.984,373.344 1529.616,373.344 C1527.768,373.344 1526.166,373.608 1524.81,374.136 C1523.454,374.664 1522.422,375.402 1521.714,376.35 C1521.006,377.298 1520.652,378.384 1520.652,379.608 C1520.652,381.072 1521.03,382.2 1521.786,382.992 C1522.542,383.784 1523.436,384.336 1524.468,384.648 C1525.5,384.96 1526.808,385.236 1528.392,385.476 C1529.736,385.644 1530.732,385.848 1531.38,386.088 C1532.028,386.328 1532.352,386.724 1532.352,387.276 C1532.352,388.452 1531.164,389.04 1528.788,389.04 C1527.612,389.04 1526.412,388.866 1525.188,388.518 C1523.964,388.17 1522.92,387.72 1522.056,387.168 L1522.056,387.168 L1520.184,391.2 C1521.096,391.8 1522.32,392.298 1523.856,392.694 C1525.392,393.09 1526.964,393.288 1528.572,393.288 Z" id="LackofAwareness" fill="#232323" fill-rule="nonzero"></path>
    </g>
</svg>