<?xml version="1.0" encoding="UTF-8"?>
<svg width="52px" height="86px" viewBox="0 0 52 86" version="1.1" xmlns="http://www.w3.org/2000/svg" xmlns:xlink="http://www.w3.org/1999/xlink">
    <title>admin</title>
    <g id="Assets" stroke="none" stroke-width="1" fill="none" fill-rule="evenodd">
        <g id="onboarding-flow-copy-2" transform="translate(-308.000000, -700.000000)">
            <g id="admin" transform="translate(308.800000, 701.979724)">
                <path d="M46.4909865,82.7551121 L4.12893049,82.7551121 C2.19108296,82.7551121 0.620183857,81.2834305 0.620183857,79.4683184 L0.620183857,63.1471749 C0.620183857,54.0281614 8.51169058,46.6354484 18.2462108,46.6354484 L32.3737444,46.6354484 C42.1083408,46.6354484 49.9996188,54.0281614 49.9996188,63.1471749 L49.9996188,79.4683184 C49.9996188,81.2834305 48.4288341,82.7551121 46.4909865,82.7551121 Z" id="Path" fill="#F6E266" fill-rule="nonzero"></path>
                <path d="M32.3733632,46.6354484 L27.1940807,46.6354484 C36.9286771,46.6354484 44.8203363,54.0281614 44.8203363,63.1471749 L44.8203363,79.4683184 C44.8203363,81.2834305 43.2491704,82.7551121 41.3113229,82.7551121 L46.4906054,82.7551121 C48.4284529,82.7551121 49.9992377,81.2834305 49.9992377,79.4683184 L49.9992377,63.1471749 C49.9992377,54.0281614 42.1079596,46.6354484 32.3733632,46.6354484 Z" id="Path" fill="#FFD064" fill-rule="nonzero"></path>
                <path d="M9.22962101,82.8166543 L4.55927431,82.8166543 C2.38377472,82.8166543 0.620183857,81.0479404 0.620183857,78.8661212 L0.620183857,62.4991232 C0.620183857,53.7718464 7.67454732,46.6969907 16.3765457,46.6969907 L34.243257,46.6969907 C42.9452554,46.6969907 49.9996188,53.7718464 49.9996188,62.4991232 L49.9996188,78.8661212 C49.9996188,81.0479404 48.236028,82.8166543 46.0605284,82.8166543 L13.0053286,82.8166543 L13.0053286,82.8166543" id="Path" stroke="#001F35" stroke-linecap="round" stroke-linejoin="round"></path>
                <polygon id="Path" fill="#544F57" fill-rule="nonzero" points="18.3967713 82.7551121 32.2224215 82.7551121 25.3095964 52.0762108"></polygon>
                <polygon id="Path" fill="#454045" fill-rule="nonzero" points="25.3095964 52.0762108 23.8139013 58.7142152 29.2310314 82.7551121 32.2224215 82.7551121"></polygon>
                <polygon id="Path" fill="#AFAAB4" fill-rule="nonzero" points="19.3096637 60.0387668 25.2973991 54.4295291 31.2851345 60.0387668 25.2973991 65.6480045"></polygon>
                <polygon id="Path" fill="#544F57" fill-rule="nonzero" points="25.3095964 58.1908744 34.0966143 37.8011659 16.5229596 37.8011659"></polygon>
                <path d="M25.3095964,58.1908744 L19.4518386,44.5977354 L15.5878834,47.5639686 C14.4295202,48.4532287 14.0368049,49.9523543 14.6242578,51.2426009 L19.5364574,62.0360762 L25.3095964,58.1908744 Z" id="Path" fill="#F6F1F1" fill-rule="nonzero"></path>
                <path d="M25.3099776,58.1908744 L31.1677354,44.5977354 L35.0316143,47.5639686 C36.1899776,48.4532287 36.5825785,49.9523543 35.9952018,51.2429821 L31.0831166,62.0360762 L25.3099776,58.1908744 Z" id="Path" fill="#F6F1F1" fill-rule="nonzero"></path>
                <path d="M44.6053587,66.8826009 L35.288139,66.8826009 C34.7579372,66.8826009 34.3283632,66.4800897 34.3283632,65.9834305 L34.3283632,63.6956726 C34.3283632,63.1990135 34.7579372,62.7965022 35.288139,62.7965022 L44.6053587,62.7965022 C45.1355605,62.7965022 45.5651345,63.1990135 45.5651345,63.6956726 L45.5651345,65.9834305 C45.5651345,66.4797085 45.1355605,66.8826009 44.6053587,66.8826009 Z" id="Path" fill="#F6F1F1" fill-rule="nonzero"></path>
                <path d="M34.4087892,4.9649417 L35.6933184,2.79533004 C36.5440807,1.35860516 34.9557623,-0.266697758 33.3533408,0.400289238 L24.8388565,3.94303587 C23.2238565,4.61503139 21.4765919,4.96227354 19.7091256,4.96227354 L16.3342063,4.96227354 C10.5157848,4.96227354 5.7988565,9.38086323 5.7988565,14.8316121 L5.7988565,30.6312825 L44.8199552,30.6312825 L44.8199552,14.8311166 C44.8199552,9.41955157 40.1701121,5.02737668 34.4087892,4.9649417 Z" id="Path" fill="#544F57" fill-rule="nonzero"></path>
                <path d="M34.4087892,4.9649417 L35.6933184,2.79533004 C36.5440807,1.35860516 34.9561435,-0.266697758 33.3533408,0.400289238 L31.8542152,1.02411682 C32.2041256,1.51563789 32.2936996,2.17316435 31.9251121,2.79549395 L31.9174888,2.80860987 C31.3396413,3.78401345 31.9239686,4.98819283 33.0792825,5.25859193 C37.6593722,6.33046861 41.05213,10.2090224 41.05213,14.8316121 L41.05213,30.6312825 L44.8203363,30.6312825 L44.8203363,14.8311166 C44.8203363,9.41955157 40.1701121,5.02737668 34.4087892,4.9649417 Z" id="Path" fill="#454045" fill-rule="nonzero"></path>
                <path d="M25.3095964,49.1808744 C16.5683946,49.1808744 9.48225336,42.54287 9.48225336,34.3542444 L9.48225336,20.8555202 C20.0338789,27.4611256 30.5853139,27.4611256 41.1367489,20.8555202 L41.1367489,34.3542444 C41.1367489,42.54287 34.0508744,49.1808744 25.3095964,49.1808744 Z" id="Path" fill="#F1D0A5" fill-rule="nonzero"></path>
                <path d="M37.5457848,22.8479888 C28.1912108,27.3754776 18.8366368,26.7119439 9.48225336,20.8558251 L9.48225336,23.6769865 C17.8344753,28.9058206 26.1866592,29.994926 34.539148,26.9456749 C35.984148,26.4181413 37.5457848,27.3991861 37.5457848,28.8521906 L37.5457848,34.3545874 C37.5457848,41.9741704 31.4093946,48.2504484 23.5139238,49.085583 C24.1032063,49.1480942 24.7023991,49.1812556 25.3095964,49.1812556 C34.0508744,49.1812556 41.1367489,42.5432511 41.1367489,34.3545874 L41.1367489,20.8558251 C39.9387444,21.6058072 38.7163453,22.2812713 37.5457848,22.8479888 Z" id="Path" fill="#F1B986" fill-rule="nonzero"></path>
                <path d="M9.48252018,35.0181592 L8.17031839,35.0181592 C6.18265247,35.0181592 4.57154036,33.5087422 4.57154036,31.6468991 L4.57154036,30.9475359 C4.57154036,29.0855022 6.18284305,27.5762377 8.17031839,27.5762377 L9.48252018,27.5762377 L9.48252018,35.0181592 Z" id="Path" fill="#E2A770" fill-rule="nonzero"></path>
                <path d="M41.13713,36.3742332 L43.3254036,36.3742332 C45.8879821,36.3742332 47.9653363,34.4282287 47.9653363,32.027722 L47.9653363,30.5665987 C47.9653363,28.1660538 45.8879821,26.2200493 43.3254036,26.2200493 L41.13713,26.2200493 L41.13713,36.3742332 Z" id="Path" fill="#F6E266" fill-rule="nonzero"></path>
                <path d="M43.3254036,26.2200493 L41.13713,26.2200493 L41.13713,26.2685336 C43.3711435,26.5816233 45.0844843,28.3865202 45.0844843,30.5665987 L45.0844843,32.027722 C45.0844843,34.2078004 43.3711435,36.0126973 41.13713,36.3259395 L41.13713,36.3742332 L43.3254036,36.3742332 C45.8879821,36.3742332 47.9653363,34.4282287 47.9653363,32.027722 L47.9653363,30.5665987 C47.9653363,28.1660538 45.8879821,26.2200493 43.3254036,26.2200493 Z" id="Path" fill="#FFD064" fill-rule="nonzero"></path>
                <path d="M32.5121076,31.2801031 C31.7779821,31.2801031 31.1833632,31.8373677 31.1833632,32.5251054 L31.1833632,34.0305583 C31.1833632,34.718296 31.7779821,35.2755605 32.5121076,35.2755605 C33.2462332,35.2755605 33.8412332,34.718296 33.8412332,34.0305583 L33.8412332,32.5251054 C33.8412332,31.8373677 33.2462332,31.2801031 32.5121076,31.2801031 Z" id="Path" fill="#000000" fill-rule="nonzero"></path>
                <path d="M16.7777691,32.5251054 L16.7777691,34.0305583 C16.7777691,34.718296 17.3726547,35.2755605 18.106704,35.2755605 C18.8408296,35.2755605 19.4358296,34.718296 19.4358296,34.0305583 L19.4358296,32.5251054 C19.4358296,31.8373677 18.8408296,31.2801031 18.106704,31.2801031 C17.3726547,31.2801031 16.7777691,31.8373677 16.7777691,32.5251054 Z" id="Path" fill="#000000" fill-rule="nonzero"></path>
                <g id="Group-17" transform="translate(4.230472, 0.077070)">
                    <path d="M28.2818266,24.6820629 C20.4657653,26.6284391 12.7890837,25.4719626 5.25178174,21.2126334 L5.25178174,34.6040027 C5.25178402,35.9024243 5.48166544,37.1905918 5.93078514,38.4088652 C8.55943812,45.5392985 13.6048189,49.1044054 21.0669275,49.1041859 C28.524959,49.1039665 33.5756333,45.5427163 36.2189502,38.4204354 C36.6735316,37.1955834 36.9062773,35.8995443 36.9062773,34.5930579 L36.9062773,20.7784505 L36.9062773,20.7784505 L32.0108587,23.462727" id="Path-10" stroke="#001F35" stroke-linecap="round" stroke-linejoin="round"></path>
                    <path d="M1.56838488,28.0448632 L1.65950685,14.7382383 C1.66651718,13.7149012 1.84800505,12.7002546 2.19616722,11.7379391 C2.67190799,10.4229981 3.03291381,9.60381727 3.2791847,9.28039655 M5.46533067,6.99956339 C5.78347219,6.75094856 6.13607918,6.50555991 6.52539797,6.27433952 C7.59873353,5.63687459 8.95110881,5.1071 10.6295961,4.91430842 C13.5959934,4.57358711 15.6390805,4.41277272 16.7588574,4.43186524 C18.3334153,4.41277272 19.6165912,4.22413968 20.6083849,3.86596615 C21.6001786,3.50779261 24.4394835,2.27545334 29.1262997,0.168948337 C30.3409484,-0.159565135 31.1078542,-0.00899235225 31.4270172,0.620666686 C31.7461801,1.25032572 31.7461801,1.9790233 31.4270172,2.80675942 L30.4334895,4.6600389 C33.9668526,5.72198796 35.8271391,6.35657737 36.014349,6.56380714 C36.2951639,6.8746518 40.5898647,8.9033294 40.5898647,13.2554672 C40.5898647,16.1568925 40.5898647,21.2469539 40.5898647,26.4888557" id="Shape" stroke="#001F35" stroke-linecap="round" stroke-linejoin="round"></path>
                    <path d="M36.9062773,26.1429796 C41.2400067,25.8459708 43.4068714,27.5326554 43.4068714,31.2030334 C43.4068714,34.8734115 41.2400067,36.5714548 36.9062773,36.2971635 L36.9062773,26.1429796 Z" id="Path-12" stroke="#001F35" stroke-linecap="round" stroke-linejoin="round"></path>
                    <path d="M0.467000687,27.547903 C3.65685472,27.332254 5.25178174,28.5569042 5.25178174,31.2218536 C5.25178174,33.8868031 3.65685472,35.1197005 0.467000687,34.9205459 L0.467000687,27.547903 Z" id="Path-12-Copy" stroke="#001F35" stroke-linecap="round" stroke-linejoin="round" transform="translate(2.859391, 31.232503) scale(-1, 1) translate(-2.859391, -31.232503) "></path>
                    <line x1="13.8763277" y1="32.0478292" x2="13.8763277" y2="34.3185558" id="Path-13" stroke="#001F35" stroke-linecap="round" stroke-linejoin="round"></line>
                    <line x1="28.1220923" y1="32.0478292" x2="28.1220923" y2="34.3185558" id="Path-13-Copy" stroke="#001F35" stroke-linecap="round" stroke-linejoin="round"></line>
                    <path d="M24.4353761,39.7488496 C23.7064038,40.709368 22.5835876,41.1896272 21.0669275,41.1896272 C19.5502673,41.1896272 18.4726342,40.709368 17.8340281,39.7488496" id="Path-13-Copy-2" stroke="#001F35" stroke-linecap="round" stroke-linejoin="round"></path>
                    <path d="M34.2171517,42.8938496 L29.5947526,42.8938496 C28.6021965,42.8938496 27.7975553,42.1399034 27.7975553,41.2098585 L27.7975553,40.6686029 C27.7975553,39.7385581 28.6021965,38.9846119 29.5947526,38.9846119 L34.2171517,38.9846119 C35.2097077,38.9846119 36.014349,39.7385581 36.014349,40.6686029 L36.014349,41.2098585 C36.014349,42.1399034 35.2097077,42.8938496 34.2171517,42.8938496 Z" id="Path" fill="#544F57" fill-rule="nonzero"></path>
                    <rect id="Rectangle" stroke="#001F35" x="27.5761594" y="38.7450869" width="8.38512569" height="4.25517418" rx="2.12758709"></rect>
                    <rect id="Rectangle-Copy-5" stroke="#001F35" x="30.1174115" y="62.778303" width="11.5145156" height="4.25517418" rx="2"></rect>
                    <path d="M40.3207616,36.3257726 L40.320571,39.7488496 C40.3206762,40.4061737 39.787895,40.9391255 39.1305709,40.9392307 C39.1305074,40.9392307 39.1304439,40.9392307 39.1303804,40.9392307 L38.991636,40.9392307 L38.991636,40.9392307 L36.4612851,40.9392307" id="Path-14" stroke="#001F35" stroke-linecap="round" stroke-linejoin="round"></path>
                    <path d="M11.4543609,47.1022438 C9.68007517,48.4532105 9.23650373,49.961332 10.1236466,51.6266081 C11.0107895,53.2918842 12.5344188,56.6587038 14.6945347,61.727067 L21.0669275,57.6541614 L17.2806566,49.1038047 L11.4543609,47.1022438 Z" id="Path-15" stroke="#001F35" stroke-linecap="round" stroke-linejoin="round"></path>
                    <path d="M22.9089878,47.1022438 C21.1347021,48.4532105 20.6911306,49.961332 21.5782735,51.6266081 C22.4654164,53.2918842 23.9890457,56.6587038 26.1491616,61.727067 L32.5215544,57.6541614 L28.7352835,49.1038047 L22.9089878,47.1022438 Z" id="Path-15-Copy" stroke="#001F35" stroke-linecap="round" stroke-linejoin="round" transform="translate(26.828128, 54.414655) scale(-1, 1) translate(-26.828128, -54.414655) "></path>
                    <polyline id="Path-16" stroke="#001F35" stroke-linecap="round" stroke-linejoin="round" points="16.7588574 61.0838615 21.0669275 64.982224 25.3994795 61.0838615"></polyline>
                    <polyline id="Path-21" stroke="#001F35" stroke-linecap="round" stroke-linejoin="round" points="18.4765239 62.8129975 14.1662997 82.6780424 28.1220923 82.6780424 23.6817257 62.8129975"></polyline>
                </g>
            </g>
        </g>
    </g>
</svg>