<?xml version="1.0" encoding="UTF-8"?>
<svg width="29px" height="28px" viewBox="0 0 29 28" version="1.1" xmlns="http://www.w3.org/2000/svg" xmlns:xlink="http://www.w3.org/1999/xlink">
    <title>sticky-note</title>
    <g id="Landing-Page" stroke="none" stroke-width="1" fill="none" fill-rule="evenodd">
        <g id="Desktop-HD-Copy-20" transform="translate(-541.000000, -575.000000)" fill="#232323" fill-rule="nonzero">
            <g id="Group-16" transform="translate(517.083562, 551.000000)">
                <g id="sticky-note" transform="translate(24.122517, 24.000000)">
                    <path d="M27.5121907,3.91364691 L8.2350451,0.0771842784 L8.18869201,0.0681121134 L1.87092139,0.0797358247 L0,0.0771842784 L0,27.450741 L27.5188531,27.450741 L27.5188531,4.57846649 L27.5121907,3.91364691 Z M22.6301611,10.2369459 C20.8220361,8.61267397 15.1340013,4.73063789 11.3284407,2.18100515 L25.9398711,5.16269974 C25.6476482,6.41281572 24.8078351,8.93820876 22.6301611,10.2369459 Z M22.8162822,11.7735438 C24.3365786,11.0435889 25.3729317,9.8919201 26.0755992,8.72026418 L26.0755992,26.0072745 L1.44318299,26.0072745 L1.44318299,1.52362758 L1.76212629,1.52284794 L7.7427384,1.53078608 C12.5497101,4.70228737 20.826643,10.3092397 21.9610889,11.5991881 L22.3217784,12.0093492 L22.8162822,11.7735438 Z" id="Shape"></path>
                </g>
            </g>
        </g>
    </g>
</svg>