<?xml version="1.0" encoding="UTF-8"?>
<svg width="57px" height="85px" viewBox="0 0 57 85" version="1.1" xmlns="http://www.w3.org/2000/svg" xmlns:xlink="http://www.w3.org/1999/xlink">
    <title>bu</title>
    <g id="Assets" stroke="none" stroke-width="1" fill="none" fill-rule="evenodd">
        <g id="onboarding-flow-copy-2" transform="translate(-388.000000, -701.000000)">
            <g id="bu" transform="translate(389.754806, 702.979724)">
                <path d="M51.8237892,81.4762618 L2.40387782,81.4762618 C1.66206448,81.4762618 0.493296,79.8853787 0.493296,79.221592 L0.493296,57.5214933 C0.493296,48.7265067 8.461648,41.5965867 18.29088,41.5965867 L36.3135467,41.5965867 C46.1426667,41.5965867 54.1110933,48.7265067 54.1110933,57.5214933 L54.1110933,79.221592 C53.5096533,79.8194561 52.5656025,81.4762618 51.8237892,81.4762618 Z" id="Path" fill="#61A2F9" fill-rule="nonzero"></path>
                <path d="M36.3135467,41.59696 L31.2754133,41.59696 C41.1049067,41.59696 49.0733333,48.72688 49.0733333,57.5218667 L49.0733333,81.7504533 L51.8237892,81.4762618 C53.5170753,80.2818688 53.5170753,79.9489024 54.1110933,79.221592 L54.1110933,57.5214933 C54.1110933,48.7265067 46.14304,41.59696 36.3135467,41.59696 Z" id="Path" fill="#5490F9" fill-rule="nonzero"></path>
                <path d="M9.74501238,81.7600607 L4.64460051,81.7600607 C2.26877177,81.7600607 0.342782033,79.8046537 0.342782033,77.392537 L0.342782033,59.2979537 C0.342782033,49.6494868 8.04674097,41.8278589 17.5500559,41.8278589 L37.0620092,41.8278589 C41.7705193,41.8278589 46.0373227,43.747915 49.1442685,46.858907 M51.1473298,49.2603923 C53.1143945,52.1004228 54.2692831,55.5622589 54.2692831,59.2979537 L54.2692831,77.392537 C54.2692831,79.8046537 52.3432934,81.7600607 49.9674647,81.7600607 L13.868403,81.7600607" id="Shape" stroke="#001F35" stroke-linecap="round" stroke-linejoin="round"></path>
                <path d="M5.59448533,27.8980533 L45.8460535,23.7787307 L49.00912,24.5475275 L49.00912,11.77584 C49.00912,5.47016533 43.296,0.358336 36.2485867,0.358336 L18.35472,0.358336 C11.3075307,0.358336 5.59448533,5.47016533 5.59448533,11.77584 L5.59448533,27.8980533 Z" id="Path" fill="#365E7D" fill-rule="nonzero"></path>
                <path d="M36.2485867,0.358336 L32.60224,0.358336 C39.6496533,0.358336 45.3627733,5.47016533 45.3627733,11.77584 C45.3923754,21.1542145 45.3923754,27.5299737 45.3627733,30.9031174 C45.3608153,31.1262347 45.1166553,31.1786059 44.6302933,31.0602309 C44.404598,33.4886768 44.2906226,34.8314131 44.288367,35.0884398 C44.2880915,35.1198251 41.0769441,40.1414661 41.1380017,41.5 C41.1581805,41.9489787 42.5664377,41.3432929 45.3627733,39.6829425 L48.6061067,35.0884398 L49.00912,11.77584 C49.00912,5.47016533 43.296,0.358336 36.2485867,0.358336 Z" id="Path" fill="#2B4D66" fill-rule="nonzero"></path>
                <polygon id="Path" fill="#F6F1F1" fill-rule="nonzero" points="27.3020267 62.3434667 36.4893867 41.9411733 18.1146667 41.9411733"></polygon>
                <path d="M18.1146667,41.9411733 L22.1899733,50.9907733 C24.04432,55.1090133 30.5601067,55.1090133 32.41408,50.9907733 L36.4893867,41.9411733" id="Path" fill="#E2A770" fill-rule="nonzero"></path>
                <path d="M27.3024,47.10848 C17.7327467,47.10848 9.974544,40.1670933 9.974544,31.60432 L9.974544,18.178544 C9.974544,17.0724693 10.3094987,16.046624 10.8878667,15.1699627 C12.6910667,12.436864 16.811584,11.82176 19.62928,13.749952 C24.7995733,17.2882933 30.44848,18.4277813 36.6984533,16.5577173 C40.43888,15.4385387 44.4469867,17.731104 44.6239467,21.256528 C44.6284267,21.345792 44.6306667,21.4353547 44.6306667,21.52544 L44.6306667,31.60432 C44.6306667,40.1670933 36.8724267,47.10848 27.3024,47.10848 Z" id="Path" fill="#F1D0A5" fill-rule="nonzero"></path>
                <path d="M44.6235733,21.2565653 C44.4466133,17.7311413 40.4385067,15.438576 36.69808,16.5577547 C36.6656,16.567424 36.63312,16.575936 36.60064,16.585456 C38.7629867,17.267536 40.43104,19.011152 40.5437867,21.2565653 C40.5478933,21.3458293 40.5505067,21.435392 40.5505067,21.5254773 L40.5505067,31.60432 C40.5505067,39.5496 33.8708267,46.0978667 25.2625067,47.0013333 C25.93152,47.07152 26.6121067,47.1088533 27.3024,47.1088533 C36.8724267,47.1088533 44.6302933,40.1670933 44.6302933,31.60432 L44.6302933,21.5254773 C44.6302933,21.435392 44.6280533,21.3458293 44.6235733,21.2565653 Z" id="Path" fill="#F1B986" fill-rule="nonzero"></path>
                <path d="M14.054144,41.59696 C11.508944,38.8981333 9.97405867,35.4119467 9.97405867,31.60432 L9.97405867,26.7171627 L5.59437333,27.8979413 C6.278544,35.93424 6.11181333,43.5901867 4.57565867,50.6334933 C4.101264,52.8085333 7.019648,54.2902933 8.85282667,52.7999467 C12.3928107,49.9226667 14.5040107,46.3674133 14.054144,41.59696 Z" id="Path" fill="#365E7D" fill-rule="nonzero"></path>
                <path d="M46.1516267,81.7717333 L8.45317333,81.7717333 L5.11142933,65.73072 C4.78674133,64.17168 6.12357333,62.7321067 7.895824,62.7321067 L46.7090133,62.7321067 C48.4812267,62.7321067 49.8181333,64.17168 49.4933333,65.73072 L46.1516267,81.7717333 Z" id="Path" fill="#365E7D" fill-rule="nonzero"></path>
                <path d="M46.7090133,62.7321067 L42.9917333,62.7321067 C44.7639467,62.7321067 46.1008533,64.17168 45.7760533,65.73072 L42.4343467,81.7717333 L46.1516267,81.7717333 L49.4933333,65.73072 C49.8181333,64.17168 48.4812267,62.7321067 46.7090133,62.7321067 Z" id="Path" fill="#2B4D66" fill-rule="nonzero"></path>
                <path d="M27.3020267,78.8518933 C29.45616,78.8518933 31.20224,77.28912 31.20224,75.3619733 C31.20224,73.4344533 29.45616,71.8720533 27.3020267,71.8720533 C25.1478933,71.8720533 23.4018133,73.4344533 23.4018133,75.3619733 C23.4018133,77.28912 25.1478933,78.8518933 27.3020267,78.8518933 Z" id="Path" fill="#F6F1F1" fill-rule="nonzero"></path>
                <path d="M27.3020267,71.8724267 C26.7834667,71.8724267 26.28992,71.96464 25.8370667,72.1289067 C27.2646933,72.6474667 28.27232,73.8985067 28.27232,75.3619733 C28.27232,76.82544 27.2646933,78.07648 25.8370667,78.59504 C26.28992,78.7593067 26.7834667,78.85152 27.3020267,78.85152 C29.45616,78.85152 31.20224,77.28912 31.20224,75.3619733 C31.20224,73.4344533 29.45616,71.8724267 27.3020267,71.8724267 Z" id="Path" fill="#DAE4EA" fill-rule="nonzero"></path>
                <path d="M45.1794667,62.7317333 L35.79872,62.7317333 L35.79872,60.06352 C35.79872,59.2698133 36.51776,58.6269333 37.4044267,58.6269333 L43.57376,58.6269333 C44.4608,58.6269333 45.1794667,59.2698133 45.1794667,60.06352 L45.1794667,62.7317333 Z" id="Path" fill="#F6F1F1" fill-rule="nonzero"></path>
                <path d="M19.3545067,27.9459147 C20.1127467,27.9459147 20.7272533,27.396144 20.7272533,26.717648 L20.7272533,25.0074453 C20.7272533,24.3289493 20.1127467,23.7791787 19.3545067,23.7791787 C18.5962667,23.7791787 17.98176,24.3289493 17.98176,25.0074453 L17.98176,26.717648 C17.98176,27.396144 18.5962667,27.9459147 19.3545067,27.9459147 Z" id="Path" fill="#000000" fill-rule="nonzero"></path>
                <path d="M35.24992,27.9454293 C36.00816,27.9454293 36.6226667,27.3956587 36.6226667,26.7172 L36.6226667,25.00696 C36.6226667,24.3285013 36.00816,23.7787307 35.24992,23.7787307 C34.49168,23.7787307 33.8771733,24.3285013 33.8771733,25.00696 L33.8771733,26.7172 C33.8771733,27.3956587 34.49168,27.9454293 35.24992,27.9454293 Z" id="Path" fill="#000000" fill-rule="nonzero"></path>
                <line x1="19.3545067" y1="24.66312" x2="19.3545067" y2="26.9338466" id="Path-13" stroke="#001F35" stroke-linecap="round" stroke-linejoin="round"></line>
                <line x1="35.1888312" y1="24.8417655" x2="35.1888312" y2="27.1124921" id="Path-13-Copy" stroke="#001F35" stroke-linecap="round" stroke-linejoin="round"></line>
                <path d="M30.6323264,38.2421649 C29.9033541,39.2026833 28.7805379,39.6829425 27.2638777,39.6829425 C25.7472176,39.6829425 24.6695845,39.2026833 24.0309783,38.2421649" id="Path-13-Copy-2" stroke="#001F35" stroke-linecap="round" stroke-linejoin="round"></path>
                <g id="Group-18" transform="translate(4.342782, 0.273310)">
                    <path d="M7.15223555,37.5782707 C10.1543137,43.6227845 15.3742485,46.6449403 22.8120399,46.6447383 C31.1274125,46.6445123 36.6784134,42.8670649 39.4650429,35.3123959 C39.7920071,34.4259737 39.9593689,33.4886415 39.9593689,32.5438399 L39.9593689,20.6234019 C39.9593689,19.1970212 39.1998079,17.8785673 37.9658666,17.1630599 L37.5945412,16.9477449 C36.5398335,16.336167 35.2980125,16.1310266 34.1026495,16.3709079 L28.0709246,17.5813336 L28.0709246,17.5813336 C23.303458,17.3459288 19.8959202,16.5631379 17.8483113,15.2329608 C14.776898,13.2376952 10.7085772,10.8817809 7.68830288,13.8548842 L7.56866216,13.9832918 C6.36190056,15.2784808 5.69091372,16.982935 5.69091372,18.7531858 L5.69091372,18.7531858 L5.69091372,18.7531858 L5.69091372,31.3507902 C5.69091503,33.5115733 6.19107585,35.6430303 7.15223555,37.5782707 Z" id="Path-10" stroke="#001F35" stroke-linecap="round" stroke-linejoin="round"></path>
                    <path d="M9.77141864,42.3040204 C9.39327432,44.6985709 8.99143722,46.3827593 8.56590737,47.3565856 C7.13682609,50.627042 5.02228012,52.6640275 2.76206407,53.1295196 C0.501848027,53.5950118 0.294571532,51.7340911 0.181480467,50.8980985 C0.123345231,50.4683509 0.382583214,49.0462094 0.959194415,46.6316741 C1.35550588,44.9721443 1.54809265,43.2705008 1.53269753,41.5643751 L1.2517033,10.4238909 L1.2517033,10.4238909 C1.86370375,6.05651124 4.40834014,2.89058621 8.88561249,0.926115793 L9.30387539,0.825890176 C11.5936575,0.277204586 13.9400741,0 16.2946776,0 L17.1508734,0 L17.1508734,0 M21.0406143,0 L32.0104596,0 C37.3445247,0 42.1648514,3.18029243 44.2635113,8.08415586 C44.2635113,8.08415586 44.2635113,8.08415586 44.2635113,8.08415586 L44.3640804,8.77929045 C44.5464422,10.039777 44.6393885,11.3115871 44.642223,12.5851938 L44.666338,23.4204405 L44.666338,23.4204405 L44.337312,32.7275423 C44.2795918,34.3602656 43.7785322,35.9464834 42.887866,37.3160931 C41.5372763,39.3929437 40.0248114,40.6964758 38.3504713,41.2266896 L35.8765021,41.8347753" id="Shape" stroke="#001F35" stroke-linecap="round" stroke-linejoin="round"></path>
                    <path d="M5.63920736,30.7079404 L3.21665276,30.7079404 C1.53605658,30.7079404 0.173493721,29.1316845 0.173493721,27.187209 C0.173493721,25.2427756 1.53589382,23.6664776 3.21665276,23.6664776 L5.63920736,23.6664776 L5.63920736,30.7079404 Z" id="Path" fill="#E2A770" fill-rule="nonzero"></path>
                    <path d="M45.1780702,30.629807 L42.8250973,30.629807 C41.1927719,30.629807 39.8693452,29.070451 39.8693452,27.1468234 C39.8693452,25.2232374 41.1926138,23.6638397 42.8250973,23.6638397 L45.1780702,23.6638397 L45.1780702,30.629807 Z" id="Path-Copy" fill="#E2A770" fill-rule="nonzero" transform="translate(42.523708, 27.146823) scale(-1, 1) translate(-42.523708, -27.146823) "></path>
                    <path d="M0.382188698,23.4444896 C3.92133872,23.2303277 5.69091372,24.4465328 5.69091372,27.093105 C5.69091372,29.7396772 3.92133872,30.9640727 0.382188698,30.7662915 L0.382188698,23.4444896 Z" id="Path-12-Copy" stroke="#001F35" stroke-linecap="round" stroke-linejoin="round" transform="translate(3.036551, 27.103681) scale(-1, 1) translate(-3.036551, -27.103681) "></path>
                    <path d="M39.9455849,23.4442318 C43.3830819,23.232366 45.1018305,24.4355315 45.1018305,27.0537283 C45.1018305,29.6719252 43.3830819,30.8831932 39.9455849,30.6875325 L39.9455849,23.4442318 Z" id="Path-12-Copy-2" stroke="#001F35" stroke-linecap="round" stroke-linejoin="round"></path>
                    <path d="M15.5770365,45.6069029 C16.9057545,48.4338579 17.8570523,50.3631468 18.4309298,51.3947695 C19.3662337,53.0761053 21.1773368,53.8061429 22.8251413,53.8061429 C24.6109344,53.8061429 26.5940888,53.0635936 27.4889103,51.3143352 C28.0372207,50.2424604 28.9293508,48.3399829 30.1653004,45.6069029" id="Path-22" stroke="#001F35" stroke-linecap="round" stroke-linejoin="round"></path>
                    <polyline id="Path-23" stroke="#001F35" stroke-linecap="round" stroke-linejoin="round" points="15.5770365 45.6069029 22.8251413 61.2301562 30.1653004 45.6069029"></polyline>
                    <path d="M2.61771329,73.8577057 L0.735756633,65.1202795 C0.934906131,63.6045529 1.57187839,62.7172674 2.64667342,62.4584229 C3.01989885,62.3685385 4.88565981,62.3098817 8.24395629,62.2824525 C8.97530322,62.2764791 9.92945976,62.273319 11.1064259,62.2728859 C14.8369776,62.2718478 25.469372,62.3338135 43.0036092,62.4587962 C44.8228142,62.8230443 45.554737,63.7102054 45.1993774,65.1202795 C44.8440178,66.5303535 43.6119825,71.9826414 41.5032714,81.4771429 L4.25886597,81.4771429 L3.15142406,76.3355835" id="Path" stroke="#001F35" stroke-linecap="round" stroke-linejoin="round"></path>
                    <path d="M31.455938,62.2338629 L31.455938,60.3536229 C31.455938,59.2490534 32.3513685,58.3536229 33.455938,58.3536229 L38.5523028,58.3536229 C39.6568723,58.3536229 40.5523028,59.2490534 40.5523028,60.3536229 L40.5523028,62.0701562 L40.5523028,62.0701562" id="Path-25" stroke="#001F35" stroke-linecap="round" stroke-linejoin="round"></path>
                    <ellipse id="Oval" stroke="#001F35" cx="22.9632506" cy="75.0988663" rx="3.7706014" ry="3.34941528"></ellipse>
                </g>
            </g>
        </g>
    </g>
</svg>