<?xml version="1.0" encoding="UTF-8"?>
<svg width="73px" height="73px" viewBox="0 0 73 73" version="1.1" xmlns="http://www.w3.org/2000/svg" xmlns:xlink="http://www.w3.org/1999/xlink">
    <title>chatbot</title>
    <g id="Landing-Page" stroke="none" stroke-width="1" fill="none" fill-rule="evenodd">
        <g id="Desktop-HD-Copy-20" transform="translate(-721.000000, -1445.000000)">
            <g id="chatbot" transform="translate(721.643837, 1445.500000)">
                <rect id="Rectangle" x="0.532008098" y="0.561534336" width="71.0136986" height="71.0136986"></rect>
                <g id="Group-13" transform="translate(2.538857, 7.068384)">
                    <path d="M12.9460531,57.1504659 L33.5942941,46.6262467 L59.4126142,46.6262467 C63.8102778,44.6472639 66.0091095,42.5804774 66.0091095,40.4258872 C66.0091095,37.1940018 66.592261,12.1638333 66.0091095,7.87624253 C65.6203419,5.01784867 63.8077327,2.54061355 60.5712817,0.444537164 L9.25234186,0 C4.58215368,1.20090623 2.24705958,3.8263204 2.24705958,7.87624253 C2.24705958,13.9511257 2.11996505,33.138499 2.24705958,40.4258872 C2.93562696,44.1100783 5.55863063,45.358121 9.25234186,45.358121 C11.714816,45.358121 13.773896,45.4537198 15.429582,45.6449174 L12.9460531,57.1504659 Z" id="Path-2" fill="#E8EFF5"></path>
                    <path d="M22.7175216,16.067547 C22.7175216,14.4954084 21.4430515,13.2209383 19.8709129,13.2209383 C18.2987744,13.2209383 17.0243042,14.4954084 17.0243042,16.067547 C17.0243042,17.6396856 22.7175216,17.6396856 22.7175216,16.067547 Z" id="Oval" fill="#185799"></path>
                    <path d="M47.0534106,16.067547 C47.0534106,14.4954084 45.7789405,13.2209383 44.2068019,13.2209383 C42.6346633,13.2209383 41.3601932,14.4954084 41.3601932,16.067547 C41.3601932,17.6396856 47.0534106,17.6396856 47.0534106,16.067547 Z" id="Oval-Copy" fill="#185799"></path>
                    <path d="M19.7730447,29.0210712 C23.8616489,30.4190453 27.9502532,31.1180323 32.0388574,31.1180323 C36.1274616,31.1180323 40.2160659,30.4190453 44.3046701,29.0210712" id="Path-10" stroke="#185799" stroke-linecap="round" stroke-linejoin="round"></path>
                    <path d="M0,6 L0,40.4778358 C-9.36415037e-15,43.7915443 2.6862915,46.4778358 6,46.4778358 L13.2824397,46.4778358 L13.2824397,46.4778358 L11.6269008,55.1107336 C11.522884,55.6531347 11.8782648,56.1771599 12.4206659,56.2811767 C12.6432022,56.3238527 12.8736348,56.2896859 13.0742137,56.1842736 L31.5436585,46.4778358 L31.5436585,46.4778358 L58.0777148,46.4778358 C61.3914233,46.4778358 64.0777148,43.7915443 64.0777148,40.4778358 L64.0777148,6 C64.0777148,2.6862915 61.3914233,4.36375064e-13 58.0777148,4.36983782e-13 L6,4.36983782e-13 C2.6862915,4.39368858e-13 4.82366169e-16,2.6862915 0,6 Z" id="Path-21" stroke="#185799" stroke-linecap="round" stroke-linejoin="round"></path>
                </g>
            </g>
        </g>
    </g>
</svg>