<?xml version="1.0" encoding="UTF-8"?>
<svg width="73px" height="73px" viewBox="0 0 73 73" version="1.1" xmlns="http://www.w3.org/2000/svg" xmlns:xlink="http://www.w3.org/1999/xlink">
    <title>desk-gadget</title>
    <g id="Landing-Page" stroke="none" stroke-width="1" fill="none" fill-rule="evenodd">
        <g id="Desktop-HD-Copy-20" transform="translate(-629.000000, -1445.000000)">
            <g id="desk-gadget" transform="translate(629.451364, 1445.500000)">
                <rect id="Rectangle" x="0.493150685" y="0.493150685" width="71.0136986" height="71.0136986"></rect>
                <g id="Group-5" transform="translate(1.972603, 18.000000)">
                    <path d="M35.3828379,33.1743396 L35.380123,33.1617944 C5.49426208,32.3378485 2.66294133,31.4993947 2.66294133,28.0584109 C2.66294133,24.5999621 9.53177511,13.3618868 35.837281,13.3618868 L35.3819413,13.3638868 L35.3828379,13.3618868 L35.6079413,13.3628868 L35.837281,13.3618868 L35.8369413,13.3638868 L36.1575081,13.3652419 C61.5358146,13.5860484 68.5571776,24.6435065 68.5571776,28.0700923 C68.5571776,31.496678 66.3783763,33.1412968 36.302785,33.1738465 L35.837281,33.1743396 L35.837281,33.1743396 L35.3828379,33.1743396 L35.3828379,33.1743396 Z" id="Combined-Shape-Copy" fill="#E8EFF5"></path>
                    <path d="M32.7198966,32.2528302 L32.7171817,32.240285 C2.83132076,31.416339 -1.00215726e-12,30.5778853 -1.00215726e-12,27.1369015 C-1.00215726e-12,23.6784527 6.86883378,12.4403774 33.1743396,12.4403774 L32.719,12.4423774 L32.7198966,12.4403774 L32.945,12.4413774 L33.1743396,12.4403774 L33.174,12.4423774 L33.4945668,12.4437324 C58.8728733,12.6645389 65.8942362,23.7219971 65.8942362,27.1485828 C65.8942362,30.5751686 63.7154349,32.2197874 33.6398436,32.2523371 L33.1743396,32.2528302 L33.1743396,32.2528302 L32.7198966,32.2528302 L32.7198966,32.2528302 Z" id="Combined-Shape" stroke="#185799" stroke-linejoin="round"></path>
                    <line x1="31.5760351" y1="24.9353935" x2="35.8135706" y2="24.7874154" id="Path-8-Copy" stroke="#185799" stroke-linecap="round" stroke-linejoin="round" transform="translate(33.694803, 24.861404) rotate(2.000001) translate(-33.694803, -24.861404) "></line>
                    <path d="M62.2586922,30.8036481 C62.2586922,34.2156821 60.3004479,35.8442489 33.1512426,35.8603774 C33.1445092,35.8603774 33.1397523,35.8600879 33.1349962,35.8599432 L32.7449693,35.8603774 L32.7449693,35.8603774 L32.7433254,35.8479726 C6.15449194,35.0316896 3.63554407,34.2010584 3.63554407,30.7920755" id="Shape" stroke="#185799" stroke-linecap="round" stroke-linejoin="round"></path>
                    <g id="Group" transform="translate(19.353466, 0.000000)" stroke="#185799" stroke-linecap="round" stroke-linejoin="round">
                        <line x1="2.70478473" y1="2.31403011" x2="2.66925508" y2="8.28332838" id="Line-3-Copy" transform="translate(2.687020, 5.298679) rotate(-30.000000) translate(-2.687020, -5.298679) "></line>
                        <line x1="25.8813782" y1="2.31403011" x2="25.8458485" y2="8.28332838" id="Line-3-Copy-2" transform="translate(25.863613, 5.298679) scale(-1, 1) rotate(-30.000000) translate(-25.863613, -5.298679) "></line>
                        <line x1="14.2753166" y1="0.230377358" x2="14.2753166" y2="6.22018868" id="Line-3"></line>
                    </g>
                </g>
            </g>
        </g>
    </g>
</svg>