<?xml version="1.0" encoding="UTF-8"?>
<svg width="73px" height="73px" viewBox="0 0 73 73" version="1.1" xmlns="http://www.w3.org/2000/svg" xmlns:xlink="http://www.w3.org/1999/xlink">
    <title>Group 7</title>
    <defs>
        <rect id="path-1" x="0.692019331" y="0" width="71.0136986" height="72"></rect>
    </defs>
    <g id="Assets" stroke="none" stroke-width="1" fill="none" fill-rule="evenodd">
        <g id="onboarding-flow-copy-2" transform="translate(-880.000000, -272.000000)">
            <g id="Group-7" transform="translate(880.731468, 272.979724)">
                <mask id="mask-2" fill="white">
                    <use xlink:href="#path-1"></use>
                </mask>
                <g id="Mask"></g>
                <g mask="url(#mask-2)">
                    <g transform="translate(-1.773734, -2.000000)">
                        <path d="M36.3607095,56.3833629 C36.3607095,57.1661604 36.978369,57.7141187 37.6732358,57.7141187 L43.4637927,57.7141187 C44.235867,57.7141187 44.776319,57.0878807 44.776319,56.3833629 L44.776319,53.3304526 C46.0116378,52.9390539 47.2469566,52.4693754 48.3278606,51.8431373 L50.4896685,54.0349704 C51.0301205,54.5829286 51.8794022,54.5829286 52.3426467,54.0349704 L56.4346403,49.8861436 C56.9750923,49.3381853 56.9750923,48.477108 56.4346403,48.0074295 L54.2728324,45.8155965 C54.8904918,44.71968 55.4309437,43.467204 55.7397734,42.2147279 L58.7508631,42.2147279 C59.5229373,42.2147279 60.0633893,41.5884899 60.0633893,40.8839722 L60.0633893,35.0129908 C60.0633893,34.2301933 59.4457299,33.6822351 58.7508631,33.6822351 L55.7397734,33.6822351 C55.3537363,32.429759 54.8904918,31.177283 54.2728324,30.0813665 L56.4346403,27.8895335 C56.9750923,27.3415752 56.9750923,26.4804979 56.4346403,26.0108194 L52.3426467,21.8619926 C51.8021947,21.3140344 50.952913,21.3140344 50.4896685,21.8619926 L48.3278606,24.0538256 C47.2469566,23.4275876 46.0116378,22.8796294 44.776319,22.5665104 L44.776319,19.5136001 C44.776319,18.7308026 44.1586596,18.1828443 43.4637927,18.1828443 L37.6732358,18.1828443 C36.9011615,18.1828443 36.3607095,18.8090823 36.3607095,19.5136001 L36.3607095,22.5665104 C35.1253907,22.9579091 33.8900719,23.4275876 32.809168,24.0538256 L30.64736,21.8619926 C30.106908,21.3140344 29.2576264,21.3140344 28.7943818,21.8619926 L24.7023882,26.0108194 C24.1619363,26.5587777 24.1619363,27.4198549 24.7023882,27.8895335 L26.8641962,30.0813665 C26.2465368,31.177283 25.7060848,32.429759 25.3972551,33.6822351 L22.3861655,33.6822351 C21.6140912,33.6822351 21.0736392,34.3084731 21.0736392,35.0129908 L21.0736392,40.8839722 C21.0736392,41.6667697 21.6912986,42.2147279 22.3861655,42.2147279 L25.3972551,42.2147279 C25.7832922,43.467204 26.2465368,44.71968 26.8641962,45.8155965 L24.7023882,48.0074295 C24.1619363,48.5553878 24.1619363,49.4164651 24.7023882,49.8861436 L28.7943818,54.0349704 C29.3348338,54.5829286 30.1841155,54.5829286 30.64736,54.0349704 L32.809168,51.8431373 C33.8900719,52.4693754 35.1253907,53.0173336 36.3607095,53.3304526 L36.3607095,56.3833629 Z M35.2635142,37.8310619 C35.2635142,34.8598658 37.6418867,32.4915211 40.5299105,32.4915211 C43.4604053,32.4915211 45.7963069,34.9029266 45.7963069,37.8310619 C45.7963069,40.7591971 43.4604053,43.1706026 40.5299105,43.1706026 C37.6418867,43.1706026 35.2635142,40.8022579 35.2635142,37.8310619 Z" id="Shape-Copy" stroke="none" fill="#E8EFF5" fill-rule="nonzero"></path>
                        <path d="M34.3252183,56.3833629 C34.3252183,57.1661604 34.9428777,57.7141187 35.6377446,57.7141187 L41.4283015,57.7141187 C42.2003758,57.7141187 42.7408278,57.0878807 42.7408278,56.3833629 L42.7408278,53.3304526 C43.9761466,52.9390539 45.2114654,52.4693754 46.2923694,51.8431373 L48.4541773,54.0349704 C48.9946293,54.5829286 49.8439109,54.5829286 50.3071555,54.0349704 L54.3991491,49.8861436 C54.9396011,49.3381853 54.9396011,48.477108 54.3991491,48.0074295 L52.2373411,45.8155965 C52.8550006,44.71968 53.3954525,43.467204 53.7042822,42.2147279 L56.7153719,42.2147279 C57.4874461,42.2147279 58.0278981,41.5884899 58.0278981,40.8839722 L58.0278981,35.0129908 C58.0278981,34.2301933 57.4102387,33.6822351 56.7153719,33.6822351 L53.7042822,33.6822351 C53.3182451,32.429759 52.8550006,31.177283 52.2373411,30.0813665 L54.3991491,27.8895335 C54.9396011,27.3415752 54.9396011,26.4804979 54.3991491,26.0108194 L50.3071555,21.8619926 C49.7667035,21.3140344 48.9174218,21.3140344 48.4541773,21.8619926 L46.2923694,24.0538256 C45.2114654,23.4275876 43.9761466,22.8796294 42.7408278,22.5665104 L42.7408278,19.5136001 C42.7408278,18.7308026 42.1231684,18.1828443 41.4283015,18.1828443 L35.6377446,18.1828443 C34.8656703,18.1828443 34.3252183,18.8090823 34.3252183,19.5136001 L34.3252183,22.5665104 C33.0898995,22.9579091 31.8545807,23.4275876 30.7736767,24.0538256 L28.6118688,21.8619926 C28.0714168,21.3140344 27.2221352,21.3140344 26.7588906,21.8619926 L22.666897,26.0108194 C22.126445,26.5587777 22.126445,27.4198549 22.666897,27.8895335 L24.828705,30.0813665 C24.2110455,31.177283 23.6705936,32.429759 23.3617639,33.6822351 L20.3506742,33.6822351 C19.5786,33.6822351 19.038148,34.3084731 19.038148,35.0129908 L19.038148,40.8839722 C19.038148,41.6667697 19.6558074,42.2147279 20.3506742,42.2147279 L23.3617639,42.2147279 C23.747801,43.467204 24.2110455,44.71968 24.828705,45.8155965 L22.666897,48.0074295 C22.126445,48.5553878 22.126445,49.4164651 22.666897,49.8861436 L26.7588906,54.0349704 C27.2993426,54.5829286 28.1486243,54.5829286 28.6118688,54.0349704 L30.7736767,51.8431373 C31.8545807,52.4693754 33.0898995,53.0173336 34.3252183,53.3304526 L34.3252183,56.3833629 Z M33.228023,37.8310619 C33.228023,34.8598658 35.6063955,32.4915211 38.4944193,32.4915211 C41.4249141,32.4915211 43.7608157,34.9029266 43.7608157,37.8310619 C43.7608157,40.7591971 41.4249141,43.1706026 38.4944193,43.1706026 C35.6063955,43.1706026 33.228023,40.8022579 33.228023,37.8310619 Z" id="Shape" stroke="#185799" stroke-width="1" fill="none" fill-rule="nonzero"></path>
                        <path d="M10.2199242,47.7872425 L7.30561508,47.3719745 C11.2890182,61.0323536 23.7575545,71 38.5222681,71 C56.4980019,71 71.0702133,56.2253967 71.0702133,38 M66.6104638,27.4816317 L69.5161378,27.8956693 C65.3069416,14.6128504 53.0218275,5 38.5222681,5 C20.5465343,5 5.97432288,19.7746033 5.97432288,38 M69.5125149,27.8987405 L70.9207449,25.286812 M5.87553303,49.9931612 L7.28376307,47.3812326" id="Shape" stroke="#185799" stroke-width="1" fill="none" stroke-linecap="round" stroke-linejoin="round" transform="translate(38.171471, 38.000000) rotate(-8.000000) translate(-38.171471, -38.000000) "></path>
                    </g>
                </g>
            </g>
        </g>
    </g>
</svg>