<?xml version="1.0" encoding="UTF-8"?>
<svg width="73px" height="73px" viewBox="0 0 73 73" version="1.1" xmlns="http://www.w3.org/2000/svg" xmlns:xlink="http://www.w3.org/1999/xlink">
    <title>Group 12 Copy 2</title>
    <g id="Assets" stroke="none" stroke-width="1" fill="none" fill-rule="evenodd">
        <g id="onboarding-flow-copy-2" transform="translate(-544.000000, -504.000000)">
            <g id="Group-12-Copy-2" transform="translate(544.573522, 504.979724)">
                <rect id="Rectangle" x="0.28730118" y="0.900363764" width="71.0136986" height="71.0136986"></rect>
                <g id="Group-15" transform="translate(0.780452, 9.283925)">
                    <g id="Group-8" transform="translate(7.725835, 7.978586)">
                        <g id="Group-11-Copy" transform="translate(1.834863, 0.255603)" fill="#E8EFF5">
                            <circle id="Oval-Copy-13" cx="16.950721" cy="11.5131281" r="11.0544677"></circle>
                            <path d="M16.950721,44.85204 C25.9077032,44.85204 33.1687719,46.2291567 33.1687719,37.2721745 C33.1687719,28.3151923 25.9077032,21.0541235 16.950721,21.0541235 C7.99373875,21.0541235 0.732670017,28.3151923 0.732670017,37.2721745 C0.732670017,46.2291567 7.99373875,44.85204 16.950721,44.85204 Z" id="Oval-Copy-14"></path>
                        </g>
                        <circle id="Oval-Copy-4" stroke="#185799" cx="15.9744477" cy="11.7687313" r="10.5544677"></circle>
                        <path d="M15.9744477,22.5643435 C20.1733106,22.5643435 23.9746675,24.266269 26.7263087,27.0179102 C29.4779498,29.7695513 31.1798753,33.5709082 31.1798753,37.7697711 C31.1798753,40.8258685 30.2782623,42.5778991 28.6471141,43.5310986 C26.4304548,44.8264551 23.0135724,44.7243673 19.0622624,44.6488424 C18.0637524,44.629757 17.0312517,44.6100507 15.9728052,44.6100534 C14.9838179,44.6133023 14.0193386,44.6312492 13.0862271,44.6486304 C9.02856931,44.7242127 5.56779714,44.8248536 3.32883776,43.5368368 C2.49875419,43.0593107 1.84904428,42.3809883 1.41476523,41.4228883 C0.989319523,40.4842762 0.769020145,39.2879149 0.769020145,37.7697711 C0.769020145,33.5709082 2.4709456,29.7695513 5.22258677,27.0179102 C7.97422795,24.266269 11.7755848,22.5643435 15.9744477,22.5643435 Z" id="Oval-Copy-5" stroke="#185799"></path>
                    </g>
                    <line x1="0.140647168" y1="52.4559831" x2="68.4845861" y2="52.4559831" id="Path-4" stroke="#185799" stroke-linecap="round" stroke-linejoin="round"></line>
                    <g id="Group-14" transform="translate(38.313880, 0.000000)" stroke="#185799">
                        <path d="M27.2542856,0.551955317 C27.6684991,0.551955317 28.0434991,0.719848536 28.3149457,0.991295146 C28.5863924,1.26274176 28.7542856,1.63774176 28.7542856,2.05195532 L28.7542856,2.05195532 L28.7542856,16.3807232 C28.7542856,16.7949368 28.5863924,17.1699368 28.3149457,17.4413834 C28.0434991,17.71283 27.6684991,17.8807232 27.2542856,17.8807232 L27.2542856,17.8807232 L9.5521865,17.8807232 L5.8313194,21.8340086 L4.96722528,17.8807232 L2.42900806,17.8807232 C2.0147945,17.8807232 1.6397945,17.71283 1.36834789,17.4413834 C1.09690128,17.1699368 0.929008062,16.7949368 0.929008062,16.3807232 L0.929008062,16.3807232 L0.929008062,2.05195532 C0.929008062,1.63774176 1.09690128,1.26274176 1.36834789,0.991295146 C1.6397945,0.719848536 2.0147945,0.551955317 2.42900806,0.551955317 L2.42900806,0.551955317 Z" id="Rectangle"></path>
                        <circle id="Oval" cx="10.1179512" cy="9.39084277" r="1"></circle>
                        <circle id="Oval-Copy" cx="14.8416468" cy="9.39084277" r="1"></circle>
                        <circle id="Oval-Copy-2" cx="19.5653424" cy="9.39084277" r="1"></circle>
                    </g>
                </g>
            </g>
        </g>
    </g>
</svg>