<?xml version="1.0" encoding="UTF-8"?>
<svg width="20px" height="25px" viewBox="0 0 20 25" version="1.1" xmlns="http://www.w3.org/2000/svg" xmlns:xlink="http://www.w3.org/1999/xlink">
    <title>lock</title>
    <g id="Landing-Page" stroke="none" stroke-width="1" fill="none" fill-rule="evenodd">
        <g id="Desktop-HD-Copy-13" transform="translate(-127.000000, -1554.000000)" fill="#232323" fill-rule="nonzero">
            <g id="Group-2-Copy-18" transform="translate(127.000000, 841.000000)">
                <g id="Group-6" transform="translate(0.000000, 712.506520)">
                    <g id="lock" transform="translate(0.000000, 0.561966)">
                        <path d="M18.1867759,8.41759339 L17.3450018,8.41759339 L17.3450018,7.57581925 C17.3403656,3.39373028 13.9512715,0.00463624355 9.76918255,-3.62376795e-13 C5.58709358,0.00463624355 2.19799954,3.39373028 2.1933633,7.57581925 L2.1933633,8.41759339 L1.35163848,8.41759339 C0.886731763,8.41759339 0.509864348,8.7944608 0.509864348,9.25936752 L0.509864348,22.7274578 C0.509864348,23.1923645 0.886731763,23.5692319 1.35163848,23.5692319 L18.1867759,23.5692319 C18.6516827,23.5692319 19.0285501,23.1923645 19.0285501,22.7274578 L19.0285501,9.2593182 C19.0285501,8.7944608 18.6516827,8.41759339 18.1867759,8.41759339 Z M3.87691157,7.57581925 C3.87691157,4.32157085 6.51498347,1.68349895 9.76923187,1.68349895 C13.0234803,1.68349895 15.6615029,4.32157085 15.6615029,7.57581925 L15.6615029,8.41759339 L3.87691157,8.41759339 L3.87691157,7.57581925 Z M17.3450018,21.8856836 L2.1933633,21.8856836 L2.1933633,10.1010923 L17.3450018,10.1010923 L17.3450018,21.8856836 Z" id="Shape"></path>
                        <path d="M12.1502389,14.3087793 C11.7945798,13.2990646 10.8397109,12.6243432 9.76918255,12.6263609 C8.37776694,12.6237514 7.24765792,13.7495694 7.24503933,15.140985 C7.24302167,16.2115134 7.91774308,17.1663823 8.92745774,17.5220413 L8.92745774,19.3604599 C8.92745774,19.8253666 9.30432515,20.202234 9.76923187,20.202234 C10.2341386,20.202234 10.6109567,19.8253173 10.6109567,19.3604105 L10.6109567,17.5220413 C11.9233589,17.059798 12.6125315,15.6211321 12.1502389,14.3087793 Z M9.76918255,15.9934126 C9.30427583,15.9934126 8.92740841,15.6165452 8.92740841,15.1516385 C8.92740841,14.6867318 9.30427583,14.3098644 9.76918255,14.3098644 C10.2340893,14.3098644 10.6109567,14.6867318 10.6109567,15.1516385 C10.6109567,15.6165452 10.2340893,15.9934126 9.76918255,15.9934126 Z" id="Shape"></path>
                    </g>
                </g>
            </g>
        </g>
    </g>
</svg>