<?xml version="1.0" encoding="UTF-8"?>
<svg width="26px" height="29px" viewBox="0 0 26 29" version="1.1" xmlns="http://www.w3.org/2000/svg" xmlns:xlink="http://www.w3.org/1999/xlink">
    <title>exit</title>
    <g id="Landing-Page" stroke="none" stroke-width="1" fill="none" fill-rule="evenodd">
        <g id="Desktop-HD-Copy-20" transform="translate(-844.000000, -575.000000)" fill="#232323" fill-rule="nonzero">
            <g id="Group-16-Copy" transform="translate(820.083562, 551.000000)">
                <g id="exit" transform="translate(24.122517, 24.000000)">
                    <path d="M12.1965714,13.551746 C8.46035505,13.551746 5.42069841,10.5120894 5.42069841,6.77587302 C5.42069841,3.03965663 8.46035505,0 12.1965714,0 C15.9327878,0 18.9724444,3.03965663 18.9724444,6.77587302 C18.9724444,10.5120894 15.9327878,13.551746 12.1965714,13.551746 Z M12.1965714,1.3551746 C9.20705625,1.3551746 6.77587302,3.78635784 6.77587302,6.77587302 C6.77587302,9.76538819 9.20705625,12.1965714 12.1965714,12.1965714 C15.1860866,12.1965714 17.6172698,9.76538819 17.6172698,6.77587302 C17.6172698,3.78635784 15.1860866,1.3551746 12.1965714,1.3551746 Z" id="Shape"></path>
                    <path d="M23.7155556,28.4586667 L0.677587302,28.4586667 C0.303559111,28.4586667 1.06403775e-12,28.1213788 1.06403775e-12,27.7057919 L1.06403775e-12,21.6827937 C1.06403775e-12,17.947029 2.73609752,14.9069206 6.09828571,14.9069206 L18.2948571,14.9069206 C21.6570453,14.9069206 24.3931429,17.947029 24.3931429,21.6827937 L24.3931429,27.7057919 C24.3931429,28.1213788 24.0895837,28.4586667 23.7155556,28.4586667 Z M1.3551746,26.9529171 L23.0379683,26.9529171 L23.0379683,21.6827937 C23.0379683,18.776697 20.9103441,16.4126702 18.2948571,16.4126702 L6.09828571,16.4126702 C3.48279873,16.4126702 1.3551746,18.776697 1.3551746,21.6827937 L1.3551746,26.9529171 Z" id="Shape"></path>
                </g>
            </g>
        </g>
    </g>
</svg>