<?xml version="1.0" encoding="UTF-8"?>
<svg width="73px" height="73px" viewBox="0 0 73 73" version="1.1" xmlns="http://www.w3.org/2000/svg" xmlns:xlink="http://www.w3.org/1999/xlink">
    <title>Group 2</title>
    <g id="Landing-Page" stroke="none" stroke-width="1" fill="none" fill-rule="evenodd">
        <g id="Desktop-HD-Copy-20" transform="translate(-524.000000, -888.000000)">
            <g id="Group-2" transform="translate(524.083562, 888.500000)">
                <rect id="Rectangle" x="0" y="0.493150685" width="72" height="71.0136986"></rect>
                <ellipse id="Oval" fill="#E8EFF5" cx="21.4448974" cy="8.94330176" rx="7.06751429" ry="6.97069902"></ellipse>
                <ellipse id="Oval-Copy" stroke="#185799" cx="19.0441881" cy="8.94330176" rx="7.06751429" ry="6.97069902"></ellipse>
                <polyline id="Path-3" stroke="#185799" stroke-linecap="round" stroke-linejoin="round" points="36.7129739 36.8334998 63.3758195 36.8334998 63.3758195 70.3198387 52.5746256 70.3198387 52.5746256 38.0122405"></polyline>
                <path d="M16.0402202,24.0749123 L17.3413682,46.1267937 C17.5251451,48.827436 18.6304076,50.1777572 20.6571559,50.1777572 C22.6839041,50.1777572 29.0105215,50.1777572 39.6370082,50.1777572 C40.663602,50.4729998 41.1768989,50.8376371 41.1768989,51.271669 C41.1768989,51.9227169 40.203733,66.3007215 40.3812088,68.4544449 C40.5586845,70.6081683 42.3842673,70.759172 43.9155231,70.759172 C45.4467789,70.759172 46.4844849,69.4035743 46.4844849,68.4544449 C46.4844849,67.8216919 46.8725225,61.9381544 47.6485975,50.8038323 C47.4844278,47.434407 46.7566442,45.4066115 45.4652468,44.7204457 C44.1738493,44.0342799 39.607952,43.1645338 31.7675547,42.1112072 C30.6257357,41.896925 30.0548262,41.5965303 30.0548262,41.2100232 C30.0548262,40.8235161 29.6577274,36.1790169 28.8635297,27.2765257 C28.959473,26.8244091 29.3565719,26.5983508 30.0548262,26.5983508 C31.1022078,26.5983508 32.1547063,28.1767634 34.5894287,29.052713 C37.4164344,29.6072393 43.5243128,30.0144597 45.0043989,29.7207942 C46.4844849,29.4271287 47.1452148,27.8972923 47.1452148,27.2765257 C47.1452148,26.6557591 46.3907803,25.4299974 45.4652468,25.4299974 C44.5397133,25.4299974 38.2138485,25.3546096 36.324724,24.8161702 C34.4355995,24.2777309 30.5089581,20.0743386 25.668936,19.3352705 C20.8289139,18.5962024 18.6209377,19.3352705 18.6209377,19.3352705 C18.6209377,19.3352705 16.0402202,20.3247598 16.0402202,21.697512 C16.0402202,22.6126801 16.0402202,23.4051469 16.0402202,24.0749123 Z" id="Path-4-Copy" fill="#E8EFF5"></path>
                <path d="M13.6395109,24.0318883 L14.9406589,45.8965682 C15.1244358,48.5742843 16.2296984,49.9131424 18.2564466,49.9131424 C20.2831948,49.9131424 26.6098123,49.9131424 37.2362989,49.9131424 C38.2628928,50.2058787 38.7761897,50.5674205 38.7761897,50.9977679 C38.7761897,51.643289 37.8030237,65.8992366 37.9804995,68.0346767 C38.1579753,70.1701168 39.983558,70.3198387 41.5148138,70.3198387 C43.0460697,70.3198387 44.0837757,68.9757488 44.0837757,68.0346767 C44.0837757,67.4072953 44.4718132,61.573704 45.2478883,50.5339027 C45.0837186,47.193081 44.355935,45.1824997 43.0645375,44.5021589 C41.7731401,43.821818 37.2072427,42.9594553 29.3668455,41.9150706 C28.2250265,41.7026074 27.654117,41.4047628 27.654117,41.0215368 C27.654117,40.6383108 27.2570181,36.0332395 26.4628204,27.2063227 C26.5587638,26.7580442 26.9558626,26.533905 27.654117,26.533905 C28.7014985,26.533905 29.7539971,28.0989182 32.1887194,28.9674318 C35.0157251,29.5172506 41.1236036,29.921014 42.6036896,29.6298415 C44.0837757,29.338669 44.7445055,27.8218196 44.7445055,27.2063227 C44.7445055,26.5908259 43.990071,25.3754699 43.0645375,25.3754699 C42.139004,25.3754699 35.8131393,25.3007221 33.9240148,24.7668536 C32.0348903,24.2329852 28.1082488,20.0652761 23.2682268,19.3324821 C18.4282047,18.599688 16.2202284,19.3324821 16.2202284,19.3324821 C16.2202284,19.3324821 13.6395109,20.3135714 13.6395109,21.6746701 C13.6395109,22.5820692 13.6395109,23.3678086 13.6395109,24.0318883 Z" id="Path-4" stroke="#185799"></path>
                <g id="Group-3" transform="translate(8.000000, 23.458593)" stroke="#185799" stroke-linecap="round" stroke-linejoin="round">
                    <polyline id="Path-5" points="-8.66151944e-13 3.69852421e-13 1.95958707 31.3656687 6.09124717 31.3656687 18.828686 31.3656687 23.2407026 31.3656687"></polyline>
                    <line x1="3.18831964" y1="46.1963797" x2="5.63951094" y2="31.3824288" id="Path-6"></line>
                    <line x1="18.8969818" y1="46.1963797" x2="21.3481731" y2="31.3824288" id="Path-6-Copy" transform="translate(20.122577, 38.789404) scale(-1, 1) translate(-20.122577, -38.789404) "></line>
                </g>
            </g>
        </g>
    </g>
</svg>