<?xml version="1.0" encoding="UTF-8"?>
<svg width="73px" height="73px" viewBox="0 0 73 73" version="1.1" xmlns="http://www.w3.org/2000/svg" xmlns:xlink="http://www.w3.org/1999/xlink">
    <title>Group 12</title>
    <g id="Landing-Page" stroke="none" stroke-width="1" fill="none" fill-rule="evenodd">
        <g id="Desktop-HD-Copy-20" transform="translate(-544.000000, -1043.000000)">
            <g id="Group-12" transform="translate(544.083562, 1043.649371)">
                <rect id="Rectangle" x="0.168081667" y="0.675444675" width="71.0136986" height="71.0273999"></rect>
                <g id="Group-14" transform="translate(0.661232, 1.682488)">
                    <path d="M16.4244123,-1.69141799e-12 L59.2633446,-1.69141799e-12 L59.2633446,68.0799604 L16.4244123,68.0799604 L16.4244123,62.3625144 C18.0436173,60.9701506 18.9637728,59.8672474 19.1848787,59.053805 C19.4059847,58.2403625 19.1405727,56.9344835 18.3886426,55.136168 L16.4244123,52.8302473 L16.4244123,-1.69141799e-12 Z" id="Rectangle" fill="#E8EFF5"></path>
                    <polyline id="Path" stroke="#185799" stroke-linejoin="round" points="14.1483322 62.8564295 14.1483322 68.1335567 56.9872645 68.1335567 56.9872645 2.23153466e-12 14.1483322 2.23153466e-12 14.1483322 45.9114101"></polyline>
                    <polygon id="Path-26" stroke="#185799" stroke-linecap="round" stroke-linejoin="round" points="28.558262 53.4872098 28.558262 68.0799604 42.5773348 68.0799604 42.5773348 53.4872098"></polygon>
                    <polyline id="Path-23" stroke="#185799" stroke-linecap="round" stroke-linejoin="round" points="56.9872645 43.5649094 69.8882123 43.5649094 69.8882123 48.2081615 56.9872645 48.2081615"></polyline>
                    <polyline id="Path-24" stroke="#185799" stroke-linecap="round" stroke-linejoin="round" points="67.3409317 48.2081615 67.3409317 68.1335567 56.9872645 68.1335567"></polyline>
                    <g id="Group-9" transform="translate(19.465574, 4.852188)" stroke="#185799" stroke-linejoin="round">
                        <polygon id="Path-25-Copy-15" points="28.8659558 36.5417575 28.8659558 43.5459212 33.2630434 43.5459212 33.2630434 36.5417575"></polygon>
                        <polygon id="Path-25-Copy-14" points="19.2439705 36.5417575 19.2439705 43.5459212 23.6410581 43.5459212 23.6410581 36.5417575"></polygon>
                        <polygon id="Path-25-Copy-13" points="9.62198527 36.5417575 9.62198527 43.5459212 14.0190728 43.5459212 14.0190728 36.5417575"></polygon>
                        <polygon id="Path-25-Copy-12" points="1.65606622e-12 36.5417575 1.65606622e-12 43.5459212 4.39708758 43.5459212 4.39708758 36.5417575"></polygon>
                        <polygon id="Path-25-Copy-11" points="28.8659558 24.3611717 28.8659558 31.3653354 33.2630434 31.3653354 33.2630434 24.3611717"></polygon>
                        <polygon id="Path-25-Copy-10" points="19.2439705 24.3611717 19.2439705 31.3653354 23.6410581 31.3653354 23.6410581 24.3611717"></polygon>
                        <polygon id="Path-25-Copy-9" points="9.62198527 24.3611717 9.62198527 31.3653354 14.0190728 31.3653354 14.0190728 24.3611717"></polygon>
                        <polygon id="Path-25-Copy-8" points="1.65606622e-12 24.3611717 1.65606622e-12 31.3653354 4.39708758 31.3653354 4.39708758 24.3611717"></polygon>
                        <polygon id="Path-25-Copy-7" points="28.8659558 12.1805858 28.8659558 19.1847496 33.2630434 19.1847496 33.2630434 12.1805858"></polygon>
                        <polygon id="Path-25-Copy-6" points="19.2439705 12.1805858 19.2439705 19.1847496 23.6410581 19.1847496 23.6410581 12.1805858"></polygon>
                        <polygon id="Path-25-Copy-5" points="9.62198527 12.1805858 9.62198527 19.1847496 14.0190728 19.1847496 14.0190728 12.1805858"></polygon>
                        <polygon id="Path-25-Copy-4" points="1.65606622e-12 12.1805858 1.65606622e-12 19.1847496 4.39708758 19.1847496 4.39708758 12.1805858"></polygon>
                        <polygon id="Path-25-Copy-3" points="28.8659558 1.6793911e-12 28.8659558 7.00416374 33.2630434 7.00416374 33.2630434 1.6793911e-12"></polygon>
                        <polygon id="Path-25-Copy-2" points="19.2439705 1.6793911e-12 19.2439705 7.00416374 23.6410581 7.00416374 23.6410581 1.6793911e-12"></polygon>
                        <polygon id="Path-25-Copy" points="9.62198527 1.6793911e-12 9.62198527 7.00416374 14.0190728 7.00416374 14.0190728 1.6793911e-12"></polygon>
                        <polygon id="Path-25" points="1.65606622e-12 1.6793911e-12 1.65606622e-12 7.00416374 4.39708758 7.00416374 4.39708758 1.6793911e-12"></polygon>
                    </g>
                    <polyline id="Path-27" stroke="#185799" stroke-linecap="round" stroke-linejoin="round" points="9.55240488 58.0808507 9.55240488 61.7613139 9.55240488 68.3208715"></polyline>
                    <path d="M9.55240488,60.8371815 C4.93291436,63.2454454 1.88768096,62.8698568 0.416704704,59.7104158 C-0.771145544,56.6380447 0.580551154,54.0561117 4.4717948,51.9646166 C3.80554045,46.6293335 5.49907715,43.8703965 9.55240488,43.6878055 C13.6057326,43.5052145 15.3905158,46.1650229 14.9067543,51.6672308 C17.0875509,52.7241698 18.4275872,54.1658586 18.9268633,55.9922971 C19.6757774,58.7319549 18.7999457,60.6567789 16.2261692,62.2682812 C14.5103182,63.342616 12.2857301,62.8655828 9.55240488,60.8371815 Z" id="Path-28" stroke="#185799" stroke-linecap="round" stroke-linejoin="round"></path>
                </g>
            </g>
        </g>
    </g>
</svg>