<?xml version="1.0" encoding="UTF-8"?>
<svg width="73px" height="73px" viewBox="0 0 73 73" version="1.1" xmlns="http://www.w3.org/2000/svg" xmlns:xlink="http://www.w3.org/1999/xlink">
    <title>Group 6</title>
    <g id="Landing-Page" stroke="none" stroke-width="1" fill="none" fill-rule="evenodd">
        <g id="Desktop-HD-Copy-20" transform="translate(-535.000000, -1163.000000)">
            <g id="Group-6" transform="translate(535.834504, 1163.584238)">
                <rect id="Rectangle" x="0.00262582193" y="0.408912934" width="72" height="71.0136986"></rect>
                <g id="Group-7" transform="translate(2.502626, 6.915762)">
                    <polygon id="Path" fill="#E8EFF5" fill-rule="nonzero" points="28.4968813 16.5322329 28.4968813 34.2884847 62.5006435 46.9246133 62.5006435 3.89624411"></polygon>
                    <polygon id="Path-10" stroke="#185799" stroke-linecap="round" stroke-linejoin="round" points="26.6900842 15.1134181 26.6900842 32.4498443 60.3976849 45.1577959 60.3976849 2.89445942"></polygon>
                    <path d="M26.6900842,15.1133956 L2.94772394,15.1133956 C1.93038626,15.1497509 1.18814333,15.4015027 0.720995146,15.8686508 C0.253846962,16.335799 0.0135152465,17.0665494 3.58824082e-13,18.0609021 L3.58824082e-13,30.3137111 C0.00202787993,30.9433352 0.153701253,31.4088068 0.455020121,31.7101256 C0.756338988,32.0114445 1.24505427,32.1863379 1.92116597,32.2348059 L17.3622283,32.2348059 L24.1520931,32.2348059" id="Path-12" stroke="#185799" stroke-linecap="round" stroke-linejoin="round"></path>
                    <path d="M6.65487081,32.2348059 L6.65487081,54.4072717 C6.73305265,55.3555081 7.12064644,56.1781292 7.8176522,56.8751349 C8.51465796,57.5721407 9.31307258,57.9355556 10.2128961,57.9653796 L16.5234844,57.9653796 L16.5234844,32.2348059" id="Path-13" stroke="#185799" stroke-linecap="round" stroke-linejoin="round"></path>
                    <line x1="6.65487081" y1="37.8720368" x2="18.1555316" y2="37.8720368" id="Path-14" stroke="#185799" stroke-linecap="round" stroke-linejoin="round"></line>
                    <line x1="60.3976849" y1="-9.09494702e-13" x2="60.3976849" y2="48.0251144" id="Path-15" stroke="#185799" stroke-linecap="round" stroke-linejoin="round"></line>
                    <polyline id="Path-16" stroke="#185799" stroke-linecap="round" stroke-linejoin="round" points="63.2452409 18.4947603 66.339097 20.2162974 66.339097 27.1126023 63.2452409 28.9157622"></polyline>
                </g>
            </g>
        </g>
    </g>
</svg>