<?xml version="1.0" encoding="UTF-8"?>
<svg width="73px" height="73px" viewBox="0 0 73 73" version="1.1" xmlns="http://www.w3.org/2000/svg" xmlns:xlink="http://www.w3.org/1999/xlink">
    <title>Group 12 Copy</title>
    <g id="Assets" stroke="none" stroke-width="1" fill="none" fill-rule="evenodd">
        <g id="onboarding-flow-copy-2" transform="translate(-544.000000, -403.000000)">
            <g id="Group-12-Copy" transform="translate(544.731468, 403.979724)">
                <rect id="Rectangle" x="0" y="0" width="72" height="72"></rect>
                <g id="Group-8" transform="translate(1.000000, 1.000000)">
                    <g id="Group-11" transform="translate(26.255427, 0.000000)" fill="#E8EFF5">
                        <circle id="Oval-Copy-13" cx="9.28078804" cy="6.32592488" r="6.32592488"></circle>
                        <path d="M9.28078804,25.4041345 C14.4064257,25.4041345 18.5615761,26.1921902 18.5615761,21.0665525 C18.5615761,15.9409148 14.4064257,11.7857645 9.28078804,11.7857645 C4.15515034,11.7857645 1.32176765e-13,15.9409148 1.32176765e-13,21.0665525 C1.32176765e-13,26.1921902 4.15515034,25.4041345 9.28078804,25.4041345 Z" id="Oval-Copy-14"></path>
                    </g>
                    <g id="Group-11-Copy" transform="translate(50.992027, 36.876910)" fill="#E8EFF5">
                        <circle id="Oval-Copy-13" cx="9.28078804" cy="6.32592488" r="6.32592488"></circle>
                        <path d="M9.28078804,25.4041345 C14.4064257,25.4041345 18.5615761,26.1921902 18.5615761,21.0665525 C18.5615761,15.9409148 14.4064257,11.7857645 9.28078804,11.7857645 C4.15515034,11.7857645 1.32176765e-13,15.9409148 1.32176765e-13,21.0665525 C1.32176765e-13,26.1921902 4.15515034,25.4041345 9.28078804,25.4041345 Z" id="Oval-Copy-14"></path>
                    </g>
                    <g id="Group-11-Copy-2" transform="translate(2.317811, 36.876910)" fill="#E8EFF5">
                        <circle id="Oval-Copy-13" cx="9.28078804" cy="6.32592488" r="6.32592488"></circle>
                        <path d="M9.28078804,25.4041345 C14.4064257,25.4041345 18.5615761,26.1921902 18.5615761,21.0665525 C18.5615761,15.9409148 14.4064257,11.7857645 9.28078804,11.7857645 C4.15515034,11.7857645 1.32176765e-13,15.9409148 1.32176765e-13,21.0665525 C1.32176765e-13,26.1921902 4.15515034,25.4041345 9.28078804,25.4041345 Z" id="Oval-Copy-14"></path>
                    </g>
                    <circle id="Oval" stroke="#185799" cx="33.8164514" cy="6.32592488" r="5.82592488"></circle>
                    <circle id="Oval-Copy-4" stroke="#185799" cx="58.6641413" cy="43.2028352" r="5.82592488"></circle>
                    <circle id="Oval-Copy-6" stroke="#185799" cx="9.53843807" cy="43.2028352" r="5.82592488"></circle>
                    <path d="M33.8164514,12.2857645 C36.2411991,12.2857645 38.4363961,13.2685876 40.0254062,14.8575977 C41.6144163,16.4466078 42.5972394,18.6418048 42.5972394,21.0665525 C42.5972394,22.7665338 42.1157923,23.7604368 41.2018972,24.2944927 C39.9167112,25.0455211 37.9323508,24.9708144 35.6450385,24.9270949 C35.0537263,24.9157927 34.4422849,24.9041345 33.8141119,24.9041399 C33.2485891,24.906786 32.6973834,24.9169298 32.1639062,24.9267617 C29.7826376,24.9706482 27.7586612,25.0438341 26.453056,24.2984811 C25.996162,24.0376462 25.639136,23.6669241 25.4005809,23.1430676 C25.1577548,22.6098317 25.0356634,21.9292415 25.0356634,21.0665525 C25.0356634,18.6418048 26.0184865,16.4466078 27.6074966,14.8575977 C29.1965067,13.2685876 31.3917037,12.2857645 33.8164514,12.2857645 Z" id="Oval-Copy-3" stroke="#185799"></path>
                    <path d="M58.6641413,49.1626748 C61.088889,49.1626748 63.284086,50.145498 64.8730961,51.7345081 C66.4621062,53.3235182 67.4449294,55.5187152 67.4449294,57.9434628 C67.4449294,59.6434441 66.9634822,60.6373472 66.0495871,61.1714031 C64.7644012,61.9224314 62.7800407,61.8477247 60.4927284,61.8040053 C59.9014162,61.792703 59.2899748,61.7810448 58.6618018,61.7810503 C58.0962791,61.7836964 57.5450733,61.7938401 57.0115961,61.8036721 C54.6303276,61.8475585 52.6063512,61.9207444 51.3007459,61.1753914 C50.8438519,60.9145565 50.4868259,60.5438345 50.2482709,60.0199779 C50.0054447,59.4867421 49.8833533,58.8061518 49.8833533,57.9434628 C49.8833533,55.5187152 50.8661765,53.3235182 52.4551866,51.7345081 C54.0441967,50.145498 56.2393937,49.1626748 58.6641413,49.1626748 Z" id="Oval-Copy-5" stroke="#185799"></path>
                    <path d="M9.53843807,49.1626748 C11.9631857,49.1626748 14.1583827,50.145498 15.7473928,51.7345081 C17.3364029,53.3235182 18.3192261,55.5187152 18.3192261,57.9434628 C18.3192261,59.6434441 17.8377789,60.6373472 16.9238839,61.1714031 C15.6386979,61.9224314 13.6543375,61.8477247 11.3670251,61.8040053 C10.775713,61.792703 10.1642716,61.7810448 9.53609857,61.7810503 C8.97057582,61.7836964 8.41937004,61.7938401 7.88589288,61.8036721 C5.50462429,61.8475585 3.48064792,61.9207444 2.17504268,61.1753914 C1.71814868,60.9145565 1.36112263,60.5438345 1.12256762,60.0199779 C0.879741449,59.4867421 0.757650031,58.8061518 0.757650031,57.9434628 C0.757650031,55.5187152 1.74047321,53.3235182 3.3294833,51.7345081 C4.9184934,50.145498 7.11369041,49.1626748 9.53843807,49.1626748 Z" id="Oval-Copy-7" stroke="#185799"></path>
                </g>
                <line x1="36" y1="30.9518688" x2="36" y2="44.700194" id="Path-2" stroke="#185799" stroke-linecap="round" stroke-linejoin="round"></line>
                <line x1="36" y1="44.700194" x2="47.5078832" y2="52.2224991" id="Path-3" stroke="#185799" stroke-linecap="round" stroke-linejoin="round"></line>
                <line x1="24.4921168" y1="44.700194" x2="36" y2="52.2224991" id="Path-3-Copy" stroke="#185799" stroke-linecap="round" stroke-linejoin="round" transform="translate(30.246058, 48.461347) scale(-1, 1) translate(-30.246058, -48.461347) "></line>
            </g>
        </g>
    </g>
</svg>