<svg width="72" height="70" viewBox="0 0 72 70" fill="none" xmlns="http://www.w3.org/2000/svg">
<path fill-rule="evenodd" clip-rule="evenodd" d="M37.7143 69.7205C56.6498 69.7205 72 54.3702 72 35.4348C72 16.4993 56.6498 1.14905 37.7143 1.14905C18.7788 1.14905 3.42857 16.4993 3.42857 35.4348C3.42857 54.3702 18.7788 69.7205 37.7143 69.7205ZM19.8997 35.2857H53.9403C54.459 35.2857 54.8954 35.6792 54.8924 36.1979C54.8559 42.4202 49.5473 53.2857 37.4832 53.2857C31.6761 53.5404 20.0499 50.4629 18.9205 36.3322C18.8752 35.7654 19.3311 35.2857 19.8997 35.2857Z" fill="#E8EFF5"/>
<path d="M57.4738 59.1265C51.4833 64.3207 43.6331 68.3043 35.039 68.3043C16.2398 68.3043 1 53.2378 1 34.6522C1 16.0666 16.2398 1 35.039 1C53.8382 1 68.3043 15.3018 68.3043 33.8873C68.3043 41.0914 66.0146 48.2986 62.1154 53.7727" stroke="#185799" stroke-linecap="round"/>
<path d="M18.2174 26.8261V25.6894C18.2174 24.8997 18.4511 24.1277 18.8892 23.4706L19.0935 23.1642C19.5423 22.4909 20.1848 21.9696 20.9361 21.6691L22.2101 21.1595C23.1637 20.778 24.2276 20.778 25.1812 21.1595L26.4552 21.6691C27.2065 21.9696 27.849 22.4909 28.2978 23.1642L28.5021 23.4706C28.9402 24.1277 29.1739 24.8997 29.1739 25.6894V26.8261" stroke="#185799" stroke-linecap="round"/>
<path d="M40.1304 26.8261V25.6894C40.1304 24.8997 40.3642 24.1277 40.8022 23.4706L41.0065 23.1642C41.4554 22.4909 42.0979 21.9696 42.8492 21.6691L44.1231 21.1595C45.0768 20.778 46.1406 20.778 47.0943 21.1595L48.3682 21.6691C49.1195 21.9696 49.762 22.4909 50.2109 23.1642L50.4152 23.4706C50.8532 24.1277 51.087 24.8997 51.087 25.6894V26.8261" stroke="#185799" stroke-linecap="round"/>
<path d="M51.7354 35.4348H17.6947C17.1261 35.4348 16.6702 35.9144 16.7155 36.4813C17.8449 50.6119 29.4711 53.6895 35.2783 53.4348C47.3423 53.4348 52.6509 42.5693 52.6874 36.347C52.6904 35.8283 52.2541 35.4348 51.7354 35.4348Z" stroke="#185799" stroke-linecap="round"/>
</svg>
