<?xml version="1.0" encoding="utf-8"?>
<!-- Generator: Adobe Illustrator 17.0.0, SVG Export Plug-In . SVG Version: 6.00 Build 0)  -->
<!DOCTYPE svg PUBLIC "-//W3C//DTD SVG 1.1//EN" "http://www.w3.org/Graphics/SVG/1.1/DTD/svg11.dtd">
<svg version="1.1" id="Capa_1" xmlns="http://www.w3.org/2000/svg" xmlns:xlink="http://www.w3.org/1999/xlink" x="0px" y="0px"
	 width="430.123px" height="430.123px" viewBox="0 0 430.123 430.123" enable-background="new 0 0 430.123 430.123"
	 xml:space="preserve">
<g>
	<path id="Behance" fill="#232323" d="M388.432,119.12H280.659V92.35h107.782v26.77C388.441,119.12,388.432,119.12,388.432,119.12z
		 M208.912,228.896c6.954,10.771,10.429,23.85,10.429,39.203c0,15.877-3.918,30.121-11.889,42.703
		c-5.071,8.326-11.367,15.359-18.932,21.021c-8.521,6.548-18.607,11.037-30.203,13.437c-11.633,2.403-24.226,3.617-37.787,3.617H0
		V81.247h129.25c32.579,0.53,55.676,9.969,69.315,28.506c8.184,11.369,12.239,25.011,12.239,40.868
		c0,16.362-4.104,29.454-12.368,39.401c-4.599,5.577-11.39,10.65-20.378,15.229C191.675,210.236,202.007,218.086,208.912,228.896z
		 M61.722,186.76h56.632c11.638,0,21.046-2.212,28.292-6.634c7.241-4.415,10.854-12.263,10.854-23.531
		c0-12.449-4.784-20.712-14.375-24.688c-8.244-2.763-18.792-4.186-31.591-4.186H61.722V186.76z M162.953,264.274
		c0-13.901-5.682-23.513-17.021-28.67c-6.344-2.932-15.29-4.43-26.765-4.535H61.722v71.322h56.556
		c11.619,0,20.612-1.521,27.102-4.695C157.084,291.862,162.953,280.76,162.953,264.274z M428.421,220.735
		c1.302,8.757,1.891,21.461,1.65,38.064H290.493c0.771,19.268,7.421,32.739,20.035,40.449c7.607,4.835,16.83,7.195,27.63,7.195
		c11.39,0,20.67-2.879,27.815-8.797c3.893-3.137,7.327-7.564,10.296-13.151h51.16c-1.34,11.379-7.5,22.92-18.57,34.647
		c-17.151,18.642-41.205,27.987-72.097,27.987c-25.521,0-48.013-7.883-67.533-23.592C249.772,307.776,240,282.211,240,246.746
		c0-33.257,8.773-58.712,26.378-76.43c17.67-17.751,40.476-26.586,68.585-26.586c16.659,0,31.68,2.978,45.077,8.965
		c13.357,5.993,24.396,15.425,33.092,28.388C420.998,192.499,426.058,205.699,428.421,220.735z M378.062,225.729
		c-0.938-13.321-5.386-23.404-13.396-30.295c-7.942-6.91-17.865-10.379-29.705-10.379c-12.888,0-22.836,3.708-29.906,10.996
		c-7.118,7.273-11.549,17.161-13.362,29.681h86.369V225.729z"/>
</g>
</svg>
