<?xml version="1.0" encoding="utf-8"?>
<!-- Generator: Adobe Illustrator 17.0.0, SVG Export Plug-In . SVG Version: 6.00 Build 0)  -->
<!DOCTYPE svg PUBLIC "-//W3C//DTD SVG 1.1//EN" "http://www.w3.org/Graphics/SVG/1.1/DTD/svg11.dtd">
<svg version="1.1" id="Layer_1" xmlns="http://www.w3.org/2000/svg" xmlns:xlink="http://www.w3.org/1999/xlink" x="0px" y="0px"
	 width="900px" height="900px" viewBox="0 0 900 900" enable-background="new 0 0 900 900" xml:space="preserve">
<g>
	<path fill="#232323" d="M0.572,469.862c0-13.264,0-26.526,0-39.792c0.342-2.471,0.761-4.934,1.014-7.413
		c1.348-13.178,2.05-26.453,4.073-39.524c14.293-92.394,52.459-173.747,117.465-240.921
		C233.747,27.897,368.964-17.365,526.063,7.028c89.228,13.854,167.463,53.184,232.091,116.25
		C875.75,238.037,920.917,377.656,889.95,539.011c-23.582,122.874-91.264,218.361-195.436,287.411
		c-62.049,41.128-130.697,64.354-204.938,70.803c-8.126,0.706-16.251,1.437-24.376,2.156c-10.144,0-20.286,0-30.429,0
		c-1.705-0.3-3.4-0.672-5.115-0.886c-23.935-2.983-48.264-4.14-71.745-9.219c-117.207-25.352-210.185-87.88-278.61-186.226
		C37.286,642.66,12.406,575.448,3.907,502.286C2.653,491.495,1.677,480.672,0.572,469.862z M518.571,512.62
		c-2.575,0.783-4.059,1.17-5.495,1.681c-76.947,27.254-146.539,66.966-206.671,122.527c-34.563,31.938-64.653,67.572-87.936,108.672
		c-1.395,2.463-2.575,5.047-3.852,7.565c1.56,1.243,2.603,2.116,3.688,2.932c59.921,45.044,127.12,70.997,201.945,76.847
		c60.295,4.712,118.463-4.366,174.557-26.998c3.879-1.564,5.222-3.052,4.395-7.588c-13.589-74.459-33.119-147.361-57.141-219.083
		C534.651,557.056,526.552,535.169,518.571,512.62z M492.138,448.49c-8.284-17.333-16.315-34.383-24.569-51.324
		c-6.459-13.259-6.574-13.175-20.493-9.229c-69.871,19.8-141.003,33.053-213.132,41.193c-53.708,6.062-107.545,9.72-161.622,9.359
		c-1.868-0.012-3.737,0.179-6.139,0.302c-1.404,102.262,31.24,191.166,98.086,267.62C245.198,584.31,349.415,492.865,492.138,448.49
		z M429.257,324.938C385.595,247.82,338.14,174.255,287.11,103.136c-53.236,24.032-110.202,68.226-151.16,126.824
		c-29.995,42.913-50.654,89.833-61.554,141.899C195.007,370.695,312.8,355.168,429.257,324.938z M504.545,301.513
		c77.196-30.205,147.011-71.712,200.332-138.1c-49.979-43.87-106.286-73.088-170.063-87.541
		c-57.912-13.124-115.832-12.687-173.43,0.967c24.824,36.979,50.137,73.214,73.87,110.456
		C459.002,224.56,481.171,262.832,504.545,301.513z M833.398,446.185c7.304-64.083-42.119-200.062-86.334-237.713
		c-57.797,69.313-131.701,115.799-213.498,150.3c10.646,24.274,21.057,48.179,31.729,71.965c0.664,1.479,3.448,2.961,5.15,2.858
		c10.697-0.647,21.355-1.883,32.048-2.668c62.323-4.578,124.301-0.709,186.052,7.974
		C803.539,441.009,818.445,443.739,833.398,446.185z M664.645,768.321c38.293-25.918,70.453-57.243,97.077-94.26
		c35.141-48.857,57.518-103.008,67.393-163.11c-78.666-21.874-157.869-28.44-239.07-16.239
		C622.102,584.115,647.612,674.623,664.645,768.321z"/>
</g>
</svg>
